<svg width="934" height="1219" viewBox="0 0 934 1219" fill="none" xmlns="http://www.w3.org/2000/svg">
<g clip-path="url(#clip0)">
<path opacity="0.18" d="M443 -35C421 -20.203 370.21 -14.1684 353 8.44947C282.84 101.311 377.7 595.078 327 704.848C288.19 788.73 -89.83 1122.99 -98 1219C-30 1219 367 1219 568 1219C645 1219 626 1219 683 1219C764 1219 869 1219 938 1219C938 1114 938 905.198 938 724.159C938 543.119 938 388.632 938 229.318C938 121.901 938 74.8306 938 -16.8961" fill="#6DD5BE"/>
</g>
<defs>
<clipPath id="clip0">
<rect width="1036" height="1254" fill="white" transform="translate(0 -35)"/>
</clipPath>
</defs>
</svg>
