<svg width="1565" height="583" viewBox="0 0 1565 583" fill="none" xmlns="http://www.w3.org/2000/svg">
<path d="M1564.39 581.499C1564.59 581.876 1564.79 582.253 1565 582.63C1533.65 582.495 1494.88 571.588 1461.73 569.012C1419.54 565.732 1376.39 565.41 1333.77 566.628C1260.42 568.723 1188.06 575.303 1115.04 579.107C997.324 585.231 878.299 584.128 761.243 575.828C729.725 573.59 698.266 570.828 666.39 570.302C626.946 569.651 587.675 572.433 548.508 574.662C430.707 581.358 311.773 583.107 193.25 579.885C142.163 578.498 81.8898 579.201 32.3717 574.623C-13.2045 570.409 3.10229 550.256 3.77012 532.845C4.44295 515.298 -0.0288911 497.615 0.00310056 480.016C0.0760816 443.245 6.21049 406.55 13.3156 369.963C27.5019 296.919 46.2951 223.276 29.9653 149.924C24.3088 124.513 15.1242 99.1448 14.7323 73.547C14.5323 60.2809 16.3808 46.9079 23.1601 33.9702C31.308 18.4189 31.8098 12.596 63.4836 12.4226C127.718 12.0708 187.639 17.6022 253.434 13.923C317.869 10.3193 381.611 4.36393 446.315 1.69732C640.156 -6.28857 833.6 16.3973 1028.17 18.559C1081.66 19.1529 1135.17 18.1925 1188.64 17.2325L1371.86 13.9419C1408.39 13.286 1487.99 4.57596 1520.25 14.7954C1553.47 25.3194 1538.21 64.5454 1539.08 80.8222C1540.61 109.195 1542.14 137.569 1543.66 165.942C1549.77 279.435 1555.88 392.928 1561.98 506.42C1563.31 531.029 1551.81 557.336 1564.39 581.497" fill="#EBF7FA"/>
</svg>
