<svg width="1414" height="583" viewBox="0 0 1414 583" fill="none" xmlns="http://www.w3.org/2000/svg">
<path d="M1413.39 581.498C1413.59 581.875 1413.79 582.252 1414 582.629C1382.65 582.494 1343.87 571.587 1310.73 569.011C1268.54 565.731 1225.39 565.409 1182.76 566.627C1109.41 568.722 1037.06 575.302 964.039 579.106C846.321 585.23 727.296 584.127 610.24 575.827C578.722 573.589 547.263 570.826 515.387 570.301C475.943 569.65 436.672 572.432 397.506 574.661C279.704 581.357 160.77 583.106 42.2469 579.884C-8.83978 578.497 -69.1131 579.2 -118.631 574.622C-164.207 570.408 -147.901 550.255 -147.233 532.844C-146.56 515.297 -151.032 497.614 -151 480.015C-150.927 443.244 -144.792 406.549 -137.687 369.962C-123.501 296.918 -104.708 223.275 -121.038 149.923C-126.694 124.512 -135.879 99.1437 -136.271 73.5459C-136.471 60.2798 -134.622 46.9068 -127.843 33.9691C-119.695 18.4178 -119.193 12.5949 -87.5193 12.4215C-23.285 12.0697 36.6364 17.6011 102.431 13.9219C166.867 10.3182 230.608 4.36283 295.312 1.69622C489.153 -6.28967 682.597 16.3962 877.17 18.5579C930.662 19.1518 984.171 18.1914 1037.64 17.2314L1220.85 13.9408C1257.39 13.2849 1336.98 4.57486 1369.25 14.7943C1402.47 25.3183 1387.2 64.5443 1388.08 80.8211C1389.61 109.194 1391.13 137.567 1392.66 165.941C1398.77 279.434 1404.87 392.926 1410.98 506.419C1412.31 531.028 1400.81 557.335 1413.39 581.496" fill="#EBF7FA" fill-opacity="0.8"/>
</svg>
