<svg width="403" height="482" viewBox="0 0 403 482" fill="none" xmlns="http://www.w3.org/2000/svg">
<path d="M245.089 120.147C245.089 110.724 248.093 101.287 246.39 92.0302C244.563 82.0261 237.393 72.6584 239.566 62.6819C240.95 56.4829 245.67 51.6122 250.224 47.2397L258.986 38.6884C259.933 37.6327 261.069 36.7644 262.336 36.1286C263.713 35.6462 265.169 35.4302 266.627 35.492C275.726 35.326 284.82 35.4182 293.91 35.7688C301.44 36.0455 309.925 36.9864 314.576 42.9087C318.729 48.2775 318.3 55.8879 316.833 62.5435C315.365 69.1991 313.109 75.9793 314.438 82.6626C316.127 91.1447 323.477 99.0041 320.916 107.265C319.809 110.876 316.93 113.699 315.573 117.228C314.452 120.133 314.3 123.579 312.085 125.765C310.49 127.078 308.583 127.955 306.548 128.311C292.014 132.158 277.479 137.001 262.89 140.46C250.889 143.324 245.047 130.857 245.089 120.147Z" fill="url(#paint0_linear)"/>
<path d="M197.472 455.806C253.386 455.806 298.713 447.592 298.713 437.459C298.713 427.325 253.386 419.111 197.472 419.111C141.558 419.111 96.2305 427.325 96.2305 437.459C96.2305 447.592 141.558 455.806 197.472 455.806Z" fill="url(#paint1_linear)"/>
<path d="M184.682 415.264C184.682 415.264 186.869 429.585 185.692 431.218C184.516 432.851 177.636 432.297 173.4 431.37C169.165 430.443 168.14 424.95 168.14 424.95L167.85 420.439L184.682 415.264Z" fill="#F7AF81"/>
<path d="M242.016 410.296C242.016 410.296 244.784 427.814 243.843 429.336C242.902 430.858 236.41 430.623 232.631 430.166C228.852 429.71 228.368 420.134 228.368 420.134L227.731 416.219L242.016 410.296Z" fill="#F7AF81"/>
<path d="M186.011 72.354C186.325 73.0802 186.714 73.7713 187.173 74.4157C188.627 76.9755 187.921 80.4625 189.72 82.8009C190.163 80.9191 193.873 67.6909 192.115 66.833C191.7 66.6254 189.513 68.4519 189.001 68.6872C187.423 69.3652 185.222 69.9048 186.011 72.354Z" fill="#7D3B3D"/>
<path d="M232.672 239.298L236.271 312.717L243.193 414.448C243.193 414.448 239.22 419.208 227.786 419.36L207.217 315.831L197.527 263.25L189.222 314.572L185.748 421.477C185.748 421.477 177.678 421.643 167.185 422.584L160.389 317.173L167.116 235.534L232.672 239.298Z" fill="#6DD5BE"/>
<path d="M232.672 239.298L236.271 312.717L243.193 414.448C243.193 414.448 239.22 419.208 227.786 419.36L207.217 315.831L197.527 263.25L189.222 314.572L185.748 421.477C185.748 421.477 177.678 421.643 167.185 422.584L160.389 317.173L167.116 235.534L232.672 239.298Z" fill="url(#paint2_linear)"/>
<path d="M174.065 120.41L167.767 155.21C167.199 155.584 149.149 167.83 147.004 170.652C144.858 173.475 135.708 177.267 132.58 177.82C129.452 178.373 122.489 172.424 123.61 163.346C124.731 154.269 160.984 124.188 164.777 122.043C168.57 119.898 174.065 120.41 174.065 120.41Z" fill="white"/>
<path d="M169.995 138.343L167.767 155.21C167.199 155.584 149.149 167.83 147.004 170.652C144.858 173.475 135.708 177.267 132.58 177.82C129.452 178.373 122.489 172.424 123.61 163.346L142.989 160.579L169.995 138.343Z" fill="url(#paint3_linear)"/>
<path d="M244.757 279.758C244.757 280.311 244.217 280.795 243.372 281.21C237.434 284.061 213.958 283.521 199.465 282.055C198.081 281.916 197.666 261.977 197.666 261.977C197.666 261.977 192.572 281.197 191.409 280.961C178.868 278.581 157.454 276.118 157.454 276.118C162.592 255.596 165.707 234.621 166.756 213.492C168.597 171.192 164.265 122.306 165.635 121.199C168.113 119.206 192.087 111.762 192.087 111.762L217.003 113.92L220.062 115.304C225.322 117.629 235.676 122.223 237.254 123.606C237.337 123.606 237.393 123.911 237.448 124.312C237.614 125.557 237.697 128.366 237.739 132.393C237.836 141.802 237.739 157.839 237.822 176.173C237.822 178.111 237.822 180.075 237.822 182.068C237.933 195.241 238.196 209.341 238.722 222.846C239.718 248.029 244.895 277.862 244.757 279.758Z" fill="white"/>
<path d="M244.757 279.758C244.757 280.311 244.217 280.795 243.372 281.21C237.124 281.986 230.841 282.448 224.547 282.594L227.786 264.412L224.146 170.32L233.448 157.397L237.766 176.187C237.766 191.007 238.071 207.334 238.694 222.86C239.718 248.029 244.895 277.862 244.757 279.758Z" fill="url(#paint4_linear)"/>
<path d="M258.087 190.702C255.747 194.162 250.723 195.102 246.875 193.47C244.985 192.568 243.302 191.287 241.93 189.707C240.558 188.126 239.527 186.279 238.901 184.282C238.606 183.483 238.236 182.714 237.794 181.985C235.87 178.692 232.783 175.219 232.645 171.856C232.271 163.872 229.309 155.902 229.295 147.904C229.295 141.747 233.448 135.105 235.676 128.781C236.221 127.299 236.633 125.771 236.908 124.215C237.069 124.195 237.232 124.195 237.393 124.215C240.438 124.603 244.175 131.452 245.324 133.721C247.266 137.753 248.662 142.024 249.477 146.424C251.249 155.266 252.937 159.486 256.398 167.788C257.63 170.694 258.045 178.484 258.889 181.528C259.422 183.025 259.626 184.62 259.488 186.203C259.349 187.786 258.871 189.32 258.087 190.702Z" fill="white"/>
<path d="M256.481 167.83L249.906 176.132C249.906 176.132 245.67 163.997 244.48 158.241C243.4 153.149 239.953 138.578 237.697 132.338C237.468 131.663 237.2 131.002 236.894 130.359C236.569 129.788 236.163 129.266 235.69 128.809C231.178 124.284 217.488 117.338 217.488 117.338L220.021 115.263C225.281 117.587 235.635 122.181 237.213 123.565C237.296 123.565 237.351 123.869 237.406 124.271C240.452 124.658 244.189 131.507 245.338 133.777C247.279 137.808 248.676 142.08 249.491 146.479C251.262 155.307 252.951 159.527 256.481 167.83Z" fill="url(#paint5_linear)"/>
<path d="M217.751 95.7109C217.751 95.7109 216.159 107.306 217.432 111.596C218.706 115.885 212.809 128.74 204.075 129.584C195.34 130.428 193.998 115.526 193.831 113.782C193.665 112.039 196.226 110.918 194.953 106.628C193.679 102.339 216.408 90.5497 217.751 95.7109Z" fill="#F7AF81"/>
<path d="M194.953 106.573C195.659 110.091 195.536 113.724 194.593 117.186C196.904 118.943 199.036 121.96 201.514 121.725C206.746 121.254 214.221 109.562 217.003 101.398C217.003 101.246 217.1 101.094 217.142 100.941C217.391 98.0079 217.695 95.7109 217.695 95.7109C216.408 90.5497 193.693 102.284 194.953 106.573Z" fill="#F69771"/>
<path d="M189.222 70.2784C189.222 70.2784 187.243 93.0681 188.931 99.2117C190.62 105.355 195.852 110.683 201.099 110.738C206.345 110.793 214.304 106.49 217.889 98.6306C221.474 90.7711 223.426 71.5099 222.582 68.867C221.737 66.2242 216.519 57.8804 202.497 59.0151C192.849 59.7899 189.264 66.7776 189.222 70.2784Z" fill="#F7AF81"/>
<path d="M219.273 83.2576C219.273 83.2576 219.675 77.9303 223.329 79.3693C226.983 80.8084 223.481 90.7988 221.806 91.8227C221.07 92.3804 220.193 92.7207 219.273 92.8051" fill="#F7AF81"/>
<path d="M138.38 172.396C138.38 172.396 146.505 170.196 143.668 157.922C140.83 145.649 130.573 109.493 130.573 109.493L121.285 116.951C121.285 116.951 118.06 166.584 124.842 170.915C126.836 172.18 129.092 172.971 131.439 173.227C133.786 173.484 136.16 173.2 138.38 172.396Z" fill="#F7AF81"/>
<path d="M130.573 109.534C130.573 109.534 131.957 103.114 131.293 101.398C130.628 99.6821 123.846 87.381 121.174 89.166C118.503 90.951 114.682 102.809 114.378 103.612C114.073 104.414 121.285 116.951 121.285 116.951L130.573 109.534Z" fill="#F7AF81"/>
<path d="M260.163 189.485L283.238 158.088L282.56 139.159L244.217 178.623C243.195 179.717 242.44 181.032 242.013 182.467C241.585 183.901 241.496 185.415 241.752 186.89C242.008 188.365 242.603 189.76 243.489 190.967C244.376 192.173 245.53 193.158 246.861 193.843L249.712 194.134C251.709 194.345 253.726 194.026 255.561 193.21C257.396 192.394 258.983 191.109 260.163 189.485Z" fill="#F7AF81"/>
<path d="M280.123 159.32C282.279 158.876 284.392 158.241 286.435 157.424C288.124 156.525 293.495 137.36 291.972 136.087C290.45 134.814 284.138 131.217 282.38 132.379C280.622 133.541 271.14 142.646 271.14 142.646C271.14 142.646 273.825 161.229 280.123 159.32Z" fill="#F7AF81"/>
<path d="M192.101 111.762L194.441 110.032C194.441 110.032 197.209 124.077 202.22 125.488C202.22 125.488 210.207 128.615 217.072 110.267L219.702 115.567C219.702 115.567 214.844 127.08 212.228 128.297C209.611 129.515 202.04 136.848 195.243 127.08C192.018 122.389 192.101 111.762 192.101 111.762Z" fill="#6DD5BE"/>
<path d="M192.101 111.762L194.441 110.032C194.441 110.032 197.209 124.077 202.22 125.488C202.22 125.488 210.207 128.615 217.072 110.267L219.702 115.567C219.702 115.567 214.844 127.08 212.228 128.297C209.611 129.515 202.04 136.848 195.243 127.08C192.018 122.389 192.101 111.762 192.101 111.762Z" fill="url(#paint6_linear)"/>
<path d="M134.864 95.1159C136.164 93.9535 137.279 92.6005 138.172 91.1032C138.308 90.874 138.348 90.6005 138.283 90.3421C138.199 90.1825 138.069 90.0521 137.909 89.9685C137.32 89.635 136.655 89.4597 135.978 89.4597C135.301 89.4597 134.636 89.635 134.047 89.9685C132.868 90.6496 131.951 91.707 131.445 92.9712C131.27 93.5096 130.998 94.0114 130.642 94.4517C130.184 94.7879 129.654 95.0118 129.094 95.1056C128.534 95.1993 127.959 95.1602 127.417 94.9914C127.147 94.9007 126.856 94.9007 126.586 94.9914C126.157 95.2128 126.102 95.7939 126.143 96.2782C126.268 97.7865 128.178 102.92 130.393 102.533C131.307 102.367 131.777 99.7652 132.151 99.0318C132.872 97.6087 133.785 96.2911 134.864 95.1159Z" fill="#F7AF81"/>
<path d="M188.987 68.5211C188.987 68.5211 208.366 61.9347 223.163 77.6951L224.755 56.7043C227.182 56.4686 229.563 55.8909 231.828 54.9885C236.271 53.3695 238.749 43.6836 233.032 42.0647C231.304 41.6231 229.499 41.5755 227.75 41.9251C226.001 42.2748 224.353 43.0129 222.928 44.0849C222.928 44.0849 227.786 33.9838 214.747 33.9838C214.747 33.9838 208.38 35.1876 207.175 39.4356C207.175 39.4356 202.926 30.6491 195.659 33.9838C188.391 37.3185 189.291 41.2483 189.291 41.2483C189.291 41.2483 184.128 39.1312 182.619 41.8571C181.11 44.583 180.446 48.8725 185.388 49.4398C193.264 50.3392 191.658 51.9581 191.658 51.9581L188.987 68.5211Z" fill="white"/>
<path d="M217.695 88.0313C219.64 85.3063 221.201 82.3264 222.332 79.1756C222.766 79.922 223.447 80.4943 224.256 80.7946C224.662 80.9334 225.102 80.934 225.507 80.7963C225.913 80.6586 226.262 80.3904 226.499 80.0335C226.664 79.6819 226.718 79.2882 226.654 78.9049C226.59 78.5217 226.41 78.1672 226.139 77.8888C225.592 77.3345 224.876 76.979 224.104 76.8787C223.887 76.8622 223.679 76.7802 223.509 76.6435C223.149 76.256 223.509 75.578 223.301 75.1352C223.132 74.9387 222.904 74.8027 222.651 74.7478C221.391 74.3327 219.426 73.3641 218.207 73.0873C217.571 75.1214 218.969 78.0687 218.816 80.2964C218.63 82.8984 218.256 85.4835 217.695 88.0313Z" fill="#7D3B3D"/>
<path d="M220.298 100.028C220.249 100.623 220.123 101.209 219.924 101.772C219.348 102.899 218.484 103.854 217.418 104.539C217.271 104.667 217.096 104.757 216.906 104.802C216.715 104.8 216.531 104.729 216.389 104.602C216.246 104.474 216.155 104.3 216.131 104.11C216.092 103.726 216.159 103.338 216.325 102.989L219.01 95.3788C219.225 94.8173 219.391 94.2387 219.509 93.6492C219.53 93.3731 219.596 93.1022 219.702 92.8467C219.896 92.4731 220.574 91.9334 221.087 92.1825C221.599 92.4315 221.17 93.8429 221.087 94.3134L220.298 100.028Z" fill="#7D3B3D"/>
<path d="M242.265 149.316L325.595 130.027L311.683 129.1L251.346 143.504L242.265 149.316Z" fill="#6DD5BE"/>
<path d="M242.265 149.316L325.595 130.027L311.683 129.1L251.346 143.504L242.265 149.316Z" fill="url(#paint7_linear)"/>
<path d="M251.401 143.518C251.401 143.518 244.784 113.893 270.78 108.247C302.907 101.329 311.628 129.114 311.628 129.114L251.401 143.518Z" fill="#6DD5BE"/>
<path d="M311.683 129.114L251.401 143.518C251.401 143.518 244.784 113.893 270.78 108.247C272.316 107.915 273.797 107.666 275.223 107.486C301.523 104.138 310.258 125.295 311.476 128.657L311.683 129.114Z" fill="url(#paint8_linear)"/>
<path d="M311.517 128.657L262.876 140.28C262.876 140.28 257.588 116.466 275.334 107.486C301.509 104.138 310.299 125.253 311.517 128.657Z" fill="url(#paint9_linear)"/>
<path d="M269.825 108.635C271.384 108.635 272.649 107.371 272.649 105.812C272.649 104.253 271.384 102.989 269.825 102.989C268.265 102.989 267.001 104.253 267.001 105.812C267.001 107.371 268.265 108.635 269.825 108.635Z" fill="#6DD5BE"/>
<path d="M149.038 430.056C146.63 430.969 144.083 432.38 144.083 435.466C144.098 436.687 144.516 437.87 145.273 438.828C148.222 442.786 153.675 442.98 158.465 442.786C167.404 442.329 176.289 441.125 185.028 439.188C185.625 439.103 186.191 438.87 186.675 438.51C187.137 437.993 187.428 437.345 187.506 436.656C188.123 433.646 188.217 430.552 187.782 427.51C187.744 427.229 187.631 426.964 187.457 426.741C187.283 426.518 187.052 426.345 186.79 426.24C186.527 426.134 186.241 426.1 185.961 426.141C185.68 426.182 185.416 426.296 185.194 426.472C183.458 427.897 181.249 428.618 179.007 428.492C173.677 428.146 171.643 423.483 166.203 425.074C160.541 426.721 154.506 427.952 149.038 430.056Z" fill="#6DD5BE"/>
<path d="M206.483 428.395C204.075 429.308 201.528 430.72 201.514 433.792C201.54 435.018 201.962 436.202 202.718 437.168C205.653 441.125 211.12 441.319 215.91 441.111C224.849 440.654 233.734 439.451 242.473 437.514C243.071 437.434 243.639 437.201 244.12 436.836C244.587 436.322 244.878 435.672 244.95 434.982C245.571 431.939 245.66 428.812 245.213 425.739C245.176 425.467 245.067 425.211 244.898 424.995C244.729 424.78 244.505 424.613 244.251 424.511C243.996 424.41 243.719 424.378 243.448 424.419C243.177 424.459 242.922 424.571 242.708 424.742C240.975 426.235 238.736 427.008 236.451 426.901C231.122 426.541 229.074 421.892 223.647 423.469C217.986 425.06 212.006 426.292 206.483 428.395Z" fill="#6DD5BE"/>
<path d="M149.038 430.056C146.63 430.969 144.083 432.38 144.083 435.466C144.098 436.687 144.516 437.87 145.273 438.828C148.222 442.786 153.675 442.98 158.465 442.786C167.404 442.329 176.289 441.125 185.028 439.188C185.625 439.103 186.191 438.87 186.675 438.51C187.137 437.993 187.428 437.345 187.506 436.656C188.123 433.646 188.217 430.552 187.782 427.51C187.744 427.229 187.631 426.964 187.457 426.741C187.283 426.518 187.052 426.345 186.79 426.24C186.527 426.134 186.241 426.1 185.961 426.141C185.68 426.182 185.416 426.296 185.194 426.472C183.458 427.897 181.249 428.618 179.007 428.492C173.677 428.146 171.643 423.483 166.203 425.074C160.541 426.721 154.506 427.952 149.038 430.056Z" fill="url(#paint10_linear)"/>
<path d="M206.483 428.395C204.075 429.308 201.528 430.72 201.514 433.792C201.54 435.018 201.962 436.202 202.718 437.168C205.653 441.125 211.12 441.319 215.91 441.111C224.849 440.654 233.734 439.451 242.473 437.514C243.071 437.434 243.639 437.201 244.12 436.836C244.587 436.322 244.878 435.672 244.95 434.982C245.571 431.939 245.66 428.812 245.213 425.739C245.176 425.467 245.067 425.211 244.898 424.995C244.729 424.78 244.505 424.613 244.251 424.511C243.996 424.41 243.719 424.378 243.448 424.419C243.177 424.459 242.922 424.571 242.708 424.742C240.975 426.235 238.736 427.008 236.451 426.901C231.122 426.541 229.074 421.892 223.647 423.469C217.986 425.06 212.006 426.292 206.483 428.395Z" fill="url(#paint11_linear)"/>
<path d="M195.963 146.617C196.911 146.617 197.68 145.849 197.68 144.902C197.68 143.954 196.911 143.186 195.963 143.186C195.015 143.186 194.247 143.954 194.247 144.902C194.247 145.849 195.015 146.617 195.963 146.617Z" fill="#6DD5BE"/>
<path d="M192.627 169.144C193.575 169.144 194.344 168.376 194.344 167.428C194.344 166.481 193.575 165.713 192.627 165.713C191.679 165.713 190.911 166.481 190.911 167.428C190.911 168.376 191.679 169.144 192.627 169.144Z" fill="#6DD5BE"/>
<path d="M192.018 196.209C192.966 196.209 193.735 195.441 193.735 194.494C193.735 193.546 192.966 192.778 192.018 192.778C191.07 192.778 190.302 193.546 190.302 194.494C190.302 195.441 191.07 196.209 192.018 196.209Z" fill="#6DD5BE"/>
<path d="M193.029 218.529C193.977 218.529 194.745 217.76 194.745 216.813C194.745 215.865 193.977 215.097 193.029 215.097C192.081 215.097 191.312 215.865 191.312 216.813C191.312 217.76 192.081 218.529 193.029 218.529Z" fill="#6DD5BE"/>
<path d="M193.43 251.862C194.378 251.862 195.146 251.094 195.146 250.146C195.146 249.199 194.378 248.43 193.43 248.43C192.482 248.43 191.714 249.199 191.714 250.146C191.714 251.094 192.482 251.862 193.43 251.862Z" fill="#6DD5BE"/>
<path d="M232.686 221.877C234.73 221.655 236.797 221.935 238.708 222.694C240.549 223.621 241.919 225.821 241.172 227.73C240.65 228.699 239.987 229.585 239.206 230.359C237.323 232.808 237.254 236.143 237.282 239.243L237.946 330.055C237.946 333.155 237.642 336.877 234.901 338.358C233.664 338.895 232.316 339.128 230.97 339.036C207.669 339.331 184.373 339.575 161.081 339.769C158.659 339.769 155.793 339.575 154.561 337.486C154.066 336.456 153.833 335.32 153.883 334.179C152.646 298.166 156.047 262.143 164.002 226.997C164.184 225.624 164.756 224.333 165.649 223.275C167.033 221.891 174.757 223.565 176.833 223.524C183.131 223.413 189.416 223.164 195.7 222.984L232.686 221.877Z" fill="#6DD5BE"/>
<path d="M232.686 221.877C234.73 221.655 236.797 221.935 238.708 222.694C240.549 223.621 241.919 225.821 241.172 227.73C240.65 228.699 239.987 229.585 239.206 230.359C237.323 232.808 237.254 236.143 237.282 239.243L237.946 330.055C237.946 333.155 237.642 336.877 234.901 338.358C233.664 338.895 232.316 339.128 230.97 339.036C207.669 339.331 184.373 339.575 161.081 339.769C158.659 339.769 155.793 339.575 154.561 337.486C154.066 336.456 153.833 335.32 153.883 334.179C152.646 298.166 156.047 262.143 164.002 226.997C164.184 225.624 164.756 224.333 165.649 223.275C167.033 221.891 174.757 223.565 176.833 223.524C183.131 223.413 189.416 223.164 195.7 222.984L232.686 221.877Z" fill="url(#paint12_linear)"/>
<defs>
<linearGradient id="paint0_linear" x1="278.255" y1="53.245" x2="283.704" y2="138.08" gradientUnits="userSpaceOnUse">
<stop offset="0.02" stop-color="white" stop-opacity="0"/>
<stop offset="0.39" stop-color="white" stop-opacity="0.39"/>
<stop offset="1" stop-color="white"/>
</linearGradient>
<linearGradient id="paint1_linear" x1="207.895" y1="297.801" x2="193.371" y2="492.572" gradientUnits="userSpaceOnUse">
<stop offset="0.01"/>
<stop offset="0.83" stop-opacity="0.07"/>
<stop offset="1" stop-opacity="0"/>
</linearGradient>
<linearGradient id="paint2_linear" x1="16380" y1="26953.7" x2="25033.7" y2="74606" gradientUnits="userSpaceOnUse">
<stop offset="0.01"/>
<stop offset="0.83" stop-opacity="0.07"/>
<stop offset="1" stop-opacity="0"/>
</linearGradient>
<linearGradient id="paint3_linear" x1="8416.43" y1="6141.51" x2="7851.85" y2="4147.58" gradientUnits="userSpaceOnUse">
<stop offset="0.01"/>
<stop offset="0.83" stop-opacity="0.07"/>
<stop offset="1" stop-opacity="0"/>
</linearGradient>
<linearGradient id="paint4_linear" x1="6629.02" y1="20942.7" x2="4419.94" y2="20923.3" gradientUnits="userSpaceOnUse">
<stop offset="0.01"/>
<stop offset="0.83" stop-opacity="0.07"/>
<stop offset="1" stop-opacity="0"/>
</linearGradient>
<linearGradient id="paint5_linear" x1="10539" y1="5128.45" x2="8449.05" y2="6084.85" gradientUnits="userSpaceOnUse">
<stop offset="0.01"/>
<stop offset="0.83" stop-opacity="0.07"/>
<stop offset="1" stop-opacity="0"/>
</linearGradient>
<linearGradient id="paint6_linear" x1="5952.52" y1="1472.09" x2="5929.44" y2="2621.62" gradientUnits="userSpaceOnUse">
<stop offset="0.01"/>
<stop offset="0.83" stop-opacity="0.07"/>
<stop offset="1" stop-opacity="0"/>
</linearGradient>
<linearGradient id="paint7_linear" x1="16861.5" y1="1829.46" x2="16904.3" y2="2351.94" gradientUnits="userSpaceOnUse">
<stop offset="0.01"/>
<stop offset="0.83" stop-opacity="0.07"/>
<stop offset="1" stop-opacity="0"/>
</linearGradient>
<linearGradient id="paint8_linear" x1="15830.6" y1="2745.38" x2="16028.9" y2="4009.56" gradientUnits="userSpaceOnUse">
<stop offset="0.02" stop-color="white" stop-opacity="0"/>
<stop offset="0.39" stop-color="white" stop-opacity="0.39"/>
<stop offset="1" stop-color="white"/>
</linearGradient>
<linearGradient id="paint9_linear" x1="13078.8" y1="2491.45" x2="13275" y2="3602.41" gradientUnits="userSpaceOnUse">
<stop offset="0.02" stop-color="white" stop-opacity="0"/>
<stop offset="0.39" stop-color="white" stop-opacity="0.39"/>
<stop offset="1" stop-color="white"/>
</linearGradient>
<linearGradient id="paint10_linear" x1="7868.35" y1="5502.54" x2="7940.78" y2="7160.74" gradientUnits="userSpaceOnUse">
<stop offset="0.01"/>
<stop offset="0.83" stop-opacity="0.07"/>
<stop offset="1" stop-opacity="0"/>
</linearGradient>
<linearGradient id="paint11_linear" x1="9747.57" y1="5439.44" x2="9819.36" y2="7091.38" gradientUnits="userSpaceOnUse">
<stop offset="0.01"/>
<stop offset="0.83" stop-opacity="0.07"/>
<stop offset="1" stop-opacity="0"/>
</linearGradient>
<linearGradient id="paint12_linear" x1="17902.5" y1="32276.6" x2="17834.3" y2="15329.8" gradientUnits="userSpaceOnUse">
<stop offset="0.01"/>
<stop offset="0.83" stop-opacity="0.07"/>
<stop offset="1" stop-opacity="0"/>
</linearGradient>
</defs>
</svg>
