<svg xmlns="http://www.w3.org/2000/svg" xmlns:xlink="http://www.w3.org/1999/xlink" version="1.1" x="0px" y="0px" viewBox="0 0 100 125" enable-background="new 0 0 100 100" xml:space="preserve"><path fill="#000000" d="M81,49.999c0.002,2.21-1.787,4-3.999,4H50.01C50.007,53.999,50.003,54,50,54c-2.209,0-4-1.791-4-4V23  c0-2.209,1.791-4,4-4s4,1.791,4,4V46h23.001v0.002C79.211,46.005,81,47.791,81,49.999z M50,87c-2.209,0-4,1.791-4,4s1.791,4,4,4  s4-1.791,4-4S52.209,87,50,87z M5,50c0,2.21,1.791,4.001,4.002,4.001c2.207-0.003,3.998-1.791,3.998-4  c0.003-2.211-1.791-4.002-3.999-4.002S5.002,47.79,5,50z M95,49.999L95,49.999C95,49.999,95,49.999,95,49.999  C94.999,25.146,74.853,5,50,5c-2.209,0-4,1.791-4,4s1.791,4,4,4c0.003,0,0.005-0.001,0.008-0.001  c20.428,0.004,36.988,16.568,36.988,37H87c0.005,2.211,1.793,3.999,4.001,3.999C93.213,53.999,95.001,52.21,95,49.999L95,49.999  C95,50,95,50,95,49.999z M27.5,11.029c-1.913,1.104-2.568,3.551-1.464,5.465c1.105,1.914,3.551,2.569,5.465,1.464  c1.912-1.104,2.568-3.551,1.464-5.464S29.413,9.924,27.5,11.029z M68.5,82.043c-1.913,1.104-2.568,3.551-1.464,5.465  c1.104,1.912,3.551,2.568,5.464,1.463c1.913-1.104,2.569-3.551,1.464-5.463C72.86,81.594,70.413,80.938,68.5,82.043z M11.028,72.5  c1.105,1.914,3.553,2.57,5.467,1.465c1.91-1.107,2.566-3.551,1.463-5.464c-1.104-1.917-3.553-2.571-5.465-1.467  S9.926,70.585,11.028,72.5z M11.029,27.5c-1.104,1.913-0.449,4.36,1.464,5.465c1.914,1.104,4.359,0.449,5.465-1.464  c1.104-1.913,0.449-4.359-1.464-5.464S12.134,25.587,11.029,27.5z M82.043,68.5c-1.104,1.913-0.448,4.359,1.465,5.465  c1.913,1.104,4.359,0.449,5.464-1.465c1.104-1.912,0.449-4.359-1.465-5.463C85.595,65.932,83.147,66.587,82.043,68.5z   M27.499,88.972c1.915,1.104,4.362,0.45,5.467-1.465c1.102-1.914,0.447-4.358-1.465-5.464c-1.914-1.107-4.361-0.449-5.466,1.463  C24.932,85.418,25.587,87.864,27.499,88.972z"/></svg>