<svg width="250" height="201" viewBox="0 0 250 201" fill="none" xmlns="http://www.w3.org/2000/svg">
<path d="M168.19 0.502028C152.49 0.282028 137.78 4.48203 125.19 11.922C112.57 4.26203 97.75 -0.107972 81.92 0.00202788C36.41 0.322028 0 38.052 0 83.562V159.242C0 181.252 17.46 199.702 39.46 199.992C42.27 200.032 45.01 199.772 47.67 199.262C62.38 196.402 72.81 183.212 72.81 168.222V106.972C62.87 106.972 56.25 102.252 56.25 92.472V49.622C56.25 48.232 56.76 47.032 57.77 46.022C58.78 45.012 59.98 44.502 61.37 44.502C62.76 44.502 63.96 45.012 64.97 46.022C65.99 47.042 66.49 48.242 66.49 49.622V82.942C66.49 84.332 67 85.532 68.01 86.542C69.02 87.562 70.22 88.062 71.61 88.062C73 88.062 74.2 87.562 75.21 86.542C76.22 85.532 76.73 84.332 76.73 82.942V49.622C76.73 48.232 77.24 47.032 78.25 46.022C79.26 45.012 80.46 44.502 81.85 44.502C83.24 44.502 84.44 45.012 85.45 46.022C86.46 47.042 86.97 48.242 86.97 49.622V82.942C86.97 84.332 87.48 85.532 88.49 86.542C89.5 87.562 90.7 88.062 92.09 88.062C93.48 88.062 94.68 87.562 95.69 86.542C96.7 85.532 97.21 84.332 97.21 82.942V49.622C97.21 48.232 97.72 47.032 98.73 46.022C99.74 45.012 100.94 44.502 102.33 44.502C103.72 44.502 104.92 45.012 105.93 46.022C106.94 47.042 107.45 48.242 107.45 49.622V92.472C107.45 100.552 102.5 106.972 92.99 106.972V168.792C92.99 185.592 106.07 199.802 122.86 200.462C123.39 200.482 123.92 200.492 124.45 200.492C135.62 200.492 145.72 195.902 152.98 188.522C155.26 186.282 157.28 183.762 158.97 181.022C161.52 176.902 162.8 172.112 162.8 167.272V136.612H151.16C150.47 136.612 149.86 136.362 149.36 135.852C148.85 135.342 148.6 134.742 148.6 134.052V69.972C148.6 62.922 151.11 56.892 156.13 51.872C161.15 46.852 167.18 44.342 174.23 44.342H177.91C179.3 44.342 180.5 44.852 181.51 45.862C182.52 46.882 183.03 48.082 183.03 49.462V173.932C183.03 188.102 194.13 200.072 208.3 200.472C208.89 200.492 209.48 200.492 210.07 200.482C232.05 200.142 249.45 181.682 249.45 159.702V84.042C249.51 38.762 213.47 1.14203 168.19 0.502028Z" fill="white"/>
</svg>
