<svg xmlns="http://www.w3.org/2000/svg" width="1565.407" height="1297.788" viewBox="0 0 1565.407 1297.788">
  <path id="BG" d="M1564.8,1294.445q.295,1.26.608,2.517c-31.36-.3-70.143-24.58-103.295-30.314-42.2-7.3-85.363-8.018-128-5.307-73.369,4.665-145.743,19.311-218.781,27.78a1306.488,1306.488,0,0,1-353.891-7.3c-31.526-4.981-62.994-11.131-94.878-12.3-39.454-1.451-78.735,4.742-117.912,9.705A1911.6,1911.6,0,0,1,193.3,1290.852c-51.1-3.088-111.389-1.523-160.92-11.714-45.588-9.38-29.277-54.241-28.609-93,.673-39.059-3.8-78.423-3.768-117.6C.076,986.684,6.212,905,13.319,823.556c14.19-162.6,32.988-326.534,16.654-489.819C24.315,277.172,15.128,220.7,14.736,163.718c-.2-29.531,1.649-59.3,8.43-88.1C31.316,41,31.818,28.038,63.5,27.652c64.251-.783,124.188,11.53,190,3.34C317.952,22.97,381.71,9.713,446.431,3.777,640.322-14,833.817,36.5,1028.44,41.312c53.506,1.322,107.029-.816,160.508-2.953l183.265-7.325c36.544-1.46,116.16-20.849,148.434,1.9,33.231,23.427,17.959,110.746,18.835,146.979q2.292,94.74,4.582,189.481,9.164,378.961,18.327,757.922c1.324,54.78-10.179,113.341,2.409,167.125" transform="translate(0)" fill="#ebf7fa"/>
</svg>
