<svg width="512" height="512" viewBox="0 0 512 512" fill="none" xmlns="http://www.w3.org/2000/svg">
<path d="M299.53 155.82C283.83 155.6 269.12 159.8 256.53 167.24C243.91 159.58 229.09 155.21 213.26 155.32C167.75 155.64 131.34 193.37 131.34 238.88V314.56C131.34 336.57 148.8 355.02 170.8 355.31C173.61 355.35 176.35 355.09 179.01 354.58C193.72 351.72 204.15 338.53 204.15 323.54V262.29C194.21 262.29 187.59 257.57 187.59 247.79V204.94C187.59 203.55 188.1 202.35 189.11 201.34C190.12 200.33 191.32 199.82 192.71 199.82C194.1 199.82 195.3 200.33 196.31 201.34C197.33 202.36 197.83 203.56 197.83 204.94V238.26C197.83 239.65 198.34 240.85 199.35 241.86C200.36 242.88 201.56 243.38 202.95 243.38C204.34 243.38 205.54 242.88 206.55 241.86C207.56 240.85 208.07 239.65 208.07 238.26V204.94C208.07 203.55 208.58 202.35 209.59 201.34C210.6 200.33 211.8 199.82 213.19 199.82C214.58 199.82 215.78 200.33 216.79 201.34C217.8 202.36 218.31 203.56 218.31 204.94V238.26C218.31 239.65 218.82 240.85 219.83 241.86C220.84 242.88 222.04 243.38 223.43 243.38C224.82 243.38 226.02 242.88 227.03 241.86C228.04 240.85 228.55 239.65 228.55 238.26V204.94C228.55 203.55 229.06 202.35 230.07 201.34C231.08 200.33 232.28 199.82 233.67 199.82C235.06 199.82 236.26 200.33 237.27 201.34C238.28 202.36 238.79 203.56 238.79 204.94V247.79C238.79 255.87 233.84 262.29 224.33 262.29V324.11C224.33 340.91 237.41 355.12 254.2 355.78C254.73 355.8 255.26 355.81 255.79 355.81C266.96 355.81 277.06 351.22 284.32 343.84C286.6 341.6 288.62 339.08 290.31 336.34C292.86 332.22 294.14 327.43 294.14 322.59V291.93H282.5C281.81 291.93 281.2 291.68 280.7 291.17C280.19 290.66 279.94 290.06 279.94 289.37V225.29C279.94 218.24 282.45 212.21 287.47 207.19C292.49 202.17 298.52 199.66 305.57 199.66H309.25C310.64 199.66 311.84 200.17 312.85 201.18C313.86 202.2 314.37 203.4 314.37 204.78V329.25C314.37 343.42 325.47 355.39 339.64 355.79C340.23 355.81 340.82 355.81 341.41 355.8C363.39 355.46 380.79 337 380.79 315.02V239.36C380.85 194.08 344.81 156.46 299.53 155.82Z" fill="black"/>
</svg>
