<svg width="250" height="201" viewBox="0 0 250 201" fill="none" xmlns="http://www.w3.org/2000/svg">
<path d="M168.53 0.820021C152.83 0.600021 138.12 4.80002 125.53 12.24C112.91 4.58002 98.09 0.210021 82.26 0.320021C36.75 0.640021 0.339966 38.37 0.339966 83.88V159.56C0.339966 181.57 17.8 200.02 39.8 200.31C42.61 200.35 45.35 200.09 48.01 199.58C62.72 196.72 73.15 183.53 73.15 168.54V107.29C63.21 107.29 56.59 102.57 56.59 92.79V49.94C56.59 48.55 57.1 47.35 58.11 46.34C59.12 45.33 60.32 44.82 61.71 44.82C63.1 44.82 64.3 45.33 65.31 46.34C66.33 47.36 66.83 48.56 66.83 49.94V83.26C66.83 84.65 67.34 85.85 68.35 86.86C69.36 87.88 70.56 88.38 71.95 88.38C73.34 88.38 74.54 87.88 75.55 86.86C76.56 85.85 77.07 84.65 77.07 83.26V49.94C77.07 48.55 77.58 47.35 78.59 46.34C79.6 45.33 80.8 44.82 82.19 44.82C83.58 44.82 84.78 45.33 85.79 46.34C86.8 47.36 87.31 48.56 87.31 49.94V83.26C87.31 84.65 87.82 85.85 88.83 86.86C89.84 87.88 91.04 88.38 92.43 88.38C93.82 88.38 95.02 87.88 96.03 86.86C97.04 85.85 97.55 84.65 97.55 83.26V49.94C97.55 48.55 98.06 47.35 99.07 46.34C100.08 45.33 101.28 44.82 102.67 44.82C104.06 44.82 105.26 45.33 106.27 46.34C107.28 47.36 107.79 48.56 107.79 49.94V92.79C107.79 100.87 102.84 107.29 93.33 107.29V169.11C93.33 185.91 106.41 200.12 123.2 200.78C123.73 200.8 124.26 200.81 124.79 200.81C135.96 200.81 146.06 196.22 153.32 188.84C155.6 186.6 157.62 184.08 159.31 181.34C161.86 177.22 163.14 172.43 163.14 167.59V136.93H151.5C150.81 136.93 150.2 136.68 149.7 136.17C149.19 135.66 148.94 135.06 148.94 134.37V70.29C148.94 63.24 151.45 57.21 156.47 52.19C161.49 47.17 167.52 44.66 174.57 44.66H178.25C179.64 44.66 180.84 45.17 181.85 46.18C182.86 47.2 183.37 48.4 183.37 49.78V174.25C183.37 188.42 194.47 200.39 208.64 200.79C209.23 200.81 209.82 200.81 210.41 200.8C232.39 200.46 249.79 182 249.79 160.02V84.36C249.85 39.08 213.81 1.46002 168.53 0.820021Z" fill="#6DD5BE"/>
</svg>
