<svg width="352" height="303" viewBox="0 0 352 303" fill="none" xmlns="http://www.w3.org/2000/svg">
<g clip-path="url(#clip0)">
<path opacity="0.18" d="M349.64 191.76C342.85 229.71 319.29 261.25 290.92 279.28C262.55 297.31 229.82 303.07 197.79 302.64C179.54 302.4 160.88 300.09 144.35 290.71C143.52 290.24 142.7 289.71 141.88 289.25C139.43 287.74 137.02 286.1 134.64 284.41C126.08 278.33 117.79 271.57 108.44 267.65C94.37 261.77 78.98 262.79 64.44 258.72C28.34 248.56 1.77 205.07 0.0900019 160.07C-1.59 115.07 19.2 71.07 49.67 45.31C78.34 21.07 115.87 10.62 150.5 15.32C167.27 17.6 180.2 9.69005 196.5 5.23005C215.39 0.0700459 234.98 -1.63995 254.17 1.77005C286.41 7.51005 317.58 29.04 333.88 63.25C343.88 84.25 347.88 108.71 350.27 132.85C351.34 144.18 351.34 176.07 349.64 191.76Z" fill="#6DD5BE"/>
<path d="M156.42 269.78C207.407 269.78 248.74 224.776 248.74 169.26C248.74 113.744 207.407 68.74 156.42 68.74C105.433 68.74 64.1 113.744 64.1 169.26C64.1 224.776 105.433 269.78 156.42 269.78Z" fill="url(#paint0_linear)"/>
<path d="M175.99 250.64C235.002 250.64 282.84 202.802 282.84 143.79C282.84 84.7783 235.002 36.9399 175.99 36.9399C116.978 36.9399 69.14 84.7783 69.14 143.79C69.14 202.802 116.978 250.64 175.99 250.64Z" fill="#6DD5BE"/>
<path d="M282.83 143.78C282.851 158.478 279.829 173.022 273.956 186.496C268.082 199.969 259.483 212.082 248.7 222.07C247.24 223.403 245.743 224.717 244.21 226.01C243.84 226.34 243.47 226.64 243.09 226.94C241.48 228.24 239.82 229.5 238.09 230.7C220.804 243.033 200.236 249.937 179.01 250.532C157.784 251.127 136.862 245.386 118.912 234.041C100.963 222.696 86.7993 206.262 78.2284 186.834C69.6576 167.406 67.068 145.866 70.7899 124.96C71.3799 121.6 72.1399 118.3 73.0399 115.05C73.5899 113.05 74.19 111.14 74.84 109.22C75.92 106.09 77.13 103 78.49 100C88.5156 77.7033 105.883 59.5178 127.694 48.4768C149.506 37.4358 174.444 34.2069 198.349 39.3284C222.253 44.45 243.679 57.6125 259.053 76.6205C274.427 95.6286 282.819 119.333 282.83 143.78Z" fill="url(#paint1_linear)"/>
<path d="M175.99 241.16C229.766 241.16 273.36 197.566 273.36 143.79C273.36 90.0141 229.766 46.42 175.99 46.42C122.214 46.42 78.62 90.0141 78.62 143.79C78.62 197.566 122.214 241.16 175.99 241.16Z" fill="url(#paint2_linear)"/>
<path d="M117.22 78.66C113.092 82.796 109.745 87.6439 107.34 92.97C105.23 97.97 104.34 103.33 102.5 108.41C100.66 113.49 98.03 118.21 96.61 123.41C94.82 129.97 95.14 136.91 96.09 143.64C99.6725 168.375 111.455 191.19 129.55 208.43C133.348 212.25 137.738 215.431 142.55 217.85C149.92 221.27 158.25 221.79 166.35 222.25C178.66 222.95 190.98 223.64 203.35 223.52C212.95 223.43 222.89 222.75 231.41 218.32C243.49 212.04 250.86 199.01 253.83 185.72C256.8 172.43 255.99 158.63 255.64 145.02C255.32 132.36 255.38 119.52 252.09 107.29C240.27 63.58 189.59 44.07 148.97 58.4C136.947 62.5747 126.071 69.5142 117.22 78.66Z" fill="#6DD5BE"/>
<path d="M117.22 78.66C113.092 82.796 109.745 87.6439 107.34 92.97C105.23 97.97 104.34 103.33 102.5 108.41C100.66 113.49 98.03 118.21 96.61 123.41C94.82 129.97 95.14 136.91 96.09 143.64C99.6725 168.375 111.455 191.19 129.55 208.43C133.348 212.25 137.738 215.431 142.55 217.85C149.92 221.27 158.25 221.79 166.35 222.25C178.66 222.95 190.98 223.64 203.35 223.52C212.95 223.43 222.89 222.75 231.41 218.32C243.49 212.04 250.86 199.01 253.83 185.72C256.8 172.43 255.99 158.63 255.64 145.02C255.32 132.36 255.38 119.52 252.09 107.29C240.27 63.58 189.59 44.07 148.97 58.4C136.947 62.5747 126.071 69.5142 117.22 78.66Z" fill="url(#paint3_linear)"/>
<path d="M116.05 169.8C112.884 169.758 109.746 169.201 106.76 168.15C94.8399 164.15 85.48 154.26 82.92 143.03C80.09 130.59 86.03 117.16 96.75 111.81C100.874 109.871 105.346 108.783 109.9 108.61C119.846 107.979 129.778 110.03 138.66 114.55L136.84 118.07C128.6 113.877 119.386 111.974 110.16 112.56C106.138 112.699 102.186 113.648 98.5399 115.35C89.5399 119.83 84.43 131.58 86.82 142.1C89.08 152 97.4099 160.72 108.04 164.32C111.57 165.51 116.74 166.57 121.35 164.88C125.08 163.5 128.09 160.45 130.35 157.94C139.342 147.679 145.167 135.033 147.12 121.53C147.76 117.02 147.96 112.33 148.12 107.8C148.241 102.568 148.679 97.3488 149.43 92.17C150.58 85.17 154.12 72.42 164.85 66.24C171.6 62.36 179.49 62 187.66 61.96C194.16 61.96 200.01 62.05 205.71 63.82C212.56 65.96 217.8 70.35 220.07 75.82L216.34 77.42C214.52 73.02 210.19 69.47 204.48 67.68C199.34 66.07 193.84 65.97 187.67 66C180.06 66 172.74 66.35 166.84 69.75C157.53 75.07 154.4 86.52 153.34 92.86C152.624 97.8808 152.206 102.94 152.09 108.01C151.89 112.64 151.68 117.42 151.01 122.13C148.964 136.401 142.827 149.774 133.34 160.63C130.82 163.49 127.34 166.99 122.78 168.63C120.624 169.416 118.345 169.812 116.05 169.8Z" fill="#6DD5BE"/>
<path d="M228.04 82.01C227.774 81.5715 227.398 81.2105 226.948 80.963C226.499 80.7156 225.993 80.5904 225.48 80.6C224.265 80.5945 223.055 80.7492 221.88 81.06L220.62 81.32C212.43 82.88 204.33 80.69 196.49 78.57C194.74 78.09 192.99 77.57 191.25 77.19C179.56 74.32 170.83 75.32 165.32 80.19L162.68 77.19C169.23 71.44 179.16 70.19 192.2 73.35C193.98 73.78 195.76 74.26 197.54 74.75C204.93 76.75 212.54 78.81 219.88 77.43C220.27 77.36 220.65 77.27 221.04 77.19C222.567 76.7893 224.142 76.6041 225.72 76.64C227.011 76.65 228.272 77.0329 229.35 77.7425C230.429 78.4521 231.28 79.4583 231.8 80.64L228.04 82.01Z" fill="#6DD5BE"/>
<path d="M164.75 90.84L162.56 87.49C170.79 82.11 181.47 79.71 194.32 80.34C201.52 80.8422 208.683 81.7772 215.77 83.14C219.13 83.72 222.6 84.32 226.02 84.8C228.31 85.13 230.7 85.37 232.45 84.44L234.34 87.97C231.53 89.47 228.41 89.18 225.46 88.76C221.99 88.27 218.46 87.67 215.1 87.08C208.161 85.7453 201.149 84.827 194.1 84.33C182.14 83.75 172.26 85.93 164.75 90.84Z" fill="#6DD5BE"/>
<path d="M126.34 180.99C124.84 181.062 123.348 180.738 122.014 180.05C120.68 179.362 119.55 178.334 118.74 177.07L122.19 175.07C123.33 177.01 126.38 177.41 128.56 176.65C131.28 175.7 133.56 173.36 135.56 171.3C140.2 166.6 144.99 161.73 147.81 155.78C151.39 148.21 151.48 139.78 151.58 130.85C151.65 124.47 151.72 117.85 153.17 111.53C154.39 106.24 156.45 102 159.31 98.92C166.43 91.27 177.93 90.71 188.16 90.77L233.16 91.0801V95.0801L188.16 94.77C178.36 94.7 168.28 95.18 162.27 101.64C159.642 104.725 157.86 108.44 157.1 112.42C155.75 118.34 155.68 124.72 155.61 130.89C155.51 139.89 155.41 149.13 151.45 157.49C148.35 164.05 143.08 169.4 138.45 174.11C136.23 176.37 133.45 179.17 129.86 180.43C128.725 180.806 127.536 180.995 126.34 180.99Z" fill="#6DD5BE"/>
<path d="M111.6 156.55C106.8 156.55 101.83 153.67 97.74 148.45C94.65 144.5 93.3299 140.9 93.6899 137.45C94.0199 134.29 95.7899 131.21 99.1099 128.05C101.213 125.965 103.672 124.271 106.37 123.05C111.92 120.67 117.87 121.26 123.62 121.83C128.25 122.29 132.62 122.72 136.76 121.7L137.76 125.59C132.96 126.77 128.03 126.28 123.26 125.81C117.78 125.26 112.6 124.75 107.99 126.73C105.726 127.769 103.667 129.205 101.91 130.97C99.31 133.45 97.91 135.72 97.71 137.89C97.46 140.28 98.5099 142.89 100.93 146.03C102.65 148.23 107.25 153.26 112.68 152.53L113.22 156.53C112.681 156.573 112.14 156.58 111.6 156.55Z" fill="#6DD5BE"/>
<path d="M121.74 154.16L114.74 150.78C112.74 149.78 107.97 147.47 107.66 142.97C107.46 139.97 109.29 137.19 112.79 134.97C121.55 129.56 132.85 130.35 141.11 130.97L140.83 134.97C130.83 134.27 121.98 134.05 114.9 138.42C114.1 138.92 111.52 140.68 111.66 142.7C111.8 144.72 114.31 146.11 116.49 147.18L123.49 150.57L121.74 154.16Z" fill="#6DD5BE"/>
<path d="M146.9 176.86L144.61 173.58C151.46 168.81 156.61 160.48 159.01 150.12C161.01 141.64 161.18 132.64 161.35 123.94L161.41 121.07C161.37 118.396 161.706 115.73 162.41 113.15C164.98 104.88 173.41 100.74 180.07 98.72C197.48 93.43 217.53 95.64 235.07 104.78C239.45 107.06 244.72 110.4 246.64 116.06C248.42 121.29 246.64 126.95 245.38 131.06C242.89 139.06 239.79 149.06 232.38 155.53C225.52 161.53 215.18 164.19 202.48 163.22C193.4 162.53 186.37 160.35 180.97 156.57C173.91 151.63 169.97 143.63 170.86 136.21L174.86 136.7C174.12 142.7 177.43 149.19 183.29 153.29C188.09 156.65 194.47 158.59 202.82 159.23C210.91 159.85 222.15 159.23 229.82 152.52C236.37 146.79 239.28 137.41 241.62 129.87C243.08 125.2 244.17 121.03 242.91 117.32C241.45 113.01 237 110.24 233.29 108.32C216.65 99.66 197.69 97.55 181.29 102.54C176.61 103.96 168.44 107.39 166.29 114.33C165.72 116.554 165.458 118.845 165.51 121.14L165.45 124C165.28 132.92 165.1 142.13 163.01 151C160.25 162.35 154.56 171.53 146.9 176.86Z" fill="#6DD5BE"/>
<path d="M203.21 149.35C196.61 149.35 191.21 147.77 187 144.62C181.78 140.7 178.87 134.45 176.53 129.43L180.16 127.74C182.42 132.6 184.98 138.1 189.4 141.43C193.82 144.76 200.27 146 208.4 145.02C225.33 143.02 229.93 133.72 230.94 130.93C231.977 128.294 232.012 125.37 231.04 122.71C229.81 119.71 226.85 117.2 222.04 115C209.989 109.58 196.396 108.65 183.72 112.38C180.96 113.21 177.01 114.65 174.59 117.51C172.73 119.71 171.73 123.41 173.52 125.95L170.25 128.26C167.25 124.03 168.64 118.35 171.53 114.93C174.64 111.25 179.33 109.53 182.53 108.55C196.132 104.546 210.719 105.543 223.65 111.36C229.46 114.01 233.08 117.22 234.72 121.18C236.096 124.752 236.096 128.708 234.72 132.28C231.51 141.19 221.86 147.43 208.9 148.99C207.012 149.224 205.112 149.344 203.21 149.35Z" fill="#6DD5BE"/>
<path d="M214.07 131.76C212.695 131.662 211.316 131.646 209.94 131.71C206.6 131.79 203.14 131.88 200 130.06C198.598 129.181 197.323 128.114 196.21 126.89C195.82 126.49 195.42 126.09 195.01 125.71C193.689 124.506 192.205 123.496 190.6 122.71L192.39 119.13C194.339 120.1 196.137 121.346 197.73 122.83C198.19 123.25 198.62 123.69 199.06 124.13C199.927 125.094 200.915 125.941 202 126.65C204.16 127.9 206.92 127.83 209.84 127.76C211.37 127.694 212.903 127.717 214.43 127.83L214.07 131.76Z" fill="#6DD5BE"/>
<path d="M132.46 195.77C119.01 195.77 105.39 188.77 98.61 177.07L102.07 175.07C110.41 189.48 130.28 195.89 145.47 189.07C148.927 187.395 152.244 185.445 155.39 183.24C159.88 180.24 164.52 177.24 169.89 175.62C176.41 173.7 183.17 174.21 189.7 174.69C193.687 175.089 197.697 175.202 201.7 175.03C207.324 174.608 212.801 173.032 217.791 170.402C222.78 167.771 227.174 164.142 230.7 159.74L233.84 162.22C229.967 167.071 225.135 171.07 219.646 173.97C214.157 176.869 208.13 178.605 201.94 179.07C197.757 179.258 193.566 179.144 189.4 178.73C182.94 178.25 176.84 177.8 171.02 179.51C166.23 180.92 162.02 183.69 157.6 186.63C154.274 188.955 150.766 191.008 147.11 192.77C142.492 194.79 137.5 195.813 132.46 195.77Z" fill="#6DD5BE"/>
<path d="M126.13 107.12C130.281 101.634 135.902 97.435 142.34 95.01" stroke="#6DD5BE" stroke-width="4" stroke-miterlimit="10"/>
<path d="M114.04 105.46L110.4 103.82C113.72 96.42 119.47 90.66 124.66 85.99C130.34 80.91 137.92 75.07 146.74 75.37L146.62 79.37C139.22 79.18 132.43 84.37 127.34 88.98C122.46 93.35 117.07 98.74 114.04 105.46Z" fill="#6DD5BE"/>
<path d="M231.77 164.43L229.09 161.43C239.448 152.069 247.285 140.253 251.88 127.07C252.518 125.473 252.899 123.786 253.01 122.07C252.873 119.629 252.153 117.256 250.91 115.15C248.139 109.781 244.411 104.962 239.91 100.93L242.58 97.9301C247.446 102.283 251.475 107.489 254.47 113.29C256.021 115.977 256.896 119 257.02 122.1C256.912 124.249 256.456 126.367 255.67 128.37C250.851 142.203 242.633 154.603 231.77 164.43Z" fill="#6DD5BE"/>
<path d="M137.6 207.41C135.293 207.432 133.012 206.915 130.94 205.9L132.71 202.31C137.78 204.81 143.58 202.56 149.71 200.17C152.382 199.066 155.121 198.13 157.91 197.37C164.62 195.7 171.52 196.44 178.19 197.15L179.38 197.28C193.68 198.8 208.52 199.2 220.13 191.92C228.93 186.4 234.4 177.5 240.2 168.09C244.14 161.68 248.2 155.09 253.46 149.53L256.36 152.28C251.36 157.5 247.44 163.95 243.6 170.18C237.82 179.58 231.85 189.29 222.25 195.31C209.62 203.23 193.98 202.85 178.96 201.26L177.76 201.13C171.44 200.45 164.9 199.75 158.87 201.25C156.248 201.973 153.673 202.858 151.16 203.9C146.69 205.64 142.13 207.41 137.6 207.41Z" fill="#6DD5BE"/>
<path d="M172.34 188.6L171.16 184.78C176.28 183.21 181.59 183.26 186.72 183.3C188.79 183.3 190.94 183.3 193 183.3C201.925 182.896 210.626 180.381 218.39 175.96L220.39 179.43C212.076 184.165 202.758 186.862 193.2 187.3C191.02 187.39 188.83 187.37 186.7 187.3C181.67 187.26 176.9 187.21 172.34 188.6Z" fill="#6DD5BE"/>
<path d="M189.68 168.07C185.168 168.033 180.743 166.834 176.829 164.588C172.916 162.343 169.648 159.127 167.34 155.25L170.81 153.25C172.977 156.907 176.157 159.858 179.965 161.747C183.773 163.635 188.047 164.379 192.27 163.89L192.79 167.89C191.759 168.021 190.72 168.082 189.68 168.07Z" fill="#6DD5BE"/>
<path d="M196.09 226.36C194.43 226.36 192.78 226.36 191.18 226.36C185.12 226.29 178.86 226.22 172.77 224.58C165.77 222.7 160.16 218.87 157.02 213.8L160.42 211.69C163.02 215.89 167.78 219.1 173.81 220.69C179.41 222.2 185.41 222.27 191.22 222.33C200.41 222.44 210.82 222.56 219.76 218.89C231.99 213.89 240.45 202.46 247.76 190.89C252.86 182.82 256.76 175.89 259.05 168.3C260.92 162.19 262.44 153.04 259.05 144.2C257.789 140.861 255.883 137.803 253.44 135.2L256.35 132.45C259.147 135.435 261.335 138.937 262.79 142.76C266.56 152.65 264.91 162.76 262.86 169.45C260.26 177.94 255.68 185.79 251.12 193.01C243.44 205.15 234.51 217.13 221.24 222.58C213.21 225.89 204.34 226.36 196.09 226.36Z" fill="#6DD5BE"/>
<path d="M191.84 212.66C182.28 212.66 174 210.95 166.78 207.5L168.51 203.9C179.16 208.98 192.51 209.99 209.27 206.97C216.89 205.6 226.27 203.12 231.36 196.12L234.6 198.47C228.7 206.62 218.34 209.4 209.98 210.9C203.998 212.027 197.927 212.616 191.84 212.66Z" fill="#6DD5BE"/>
<path d="M194.66 220.57H192.28C186.95 220.5 182.15 220.34 177.39 219.18C173.383 218.138 169.533 216.567 165.94 214.51C161.938 212.303 158.163 209.707 154.67 206.76L157.25 203.7C160.545 206.475 164.102 208.923 167.87 211.01C171.156 212.89 174.677 214.326 178.34 215.28C182.69 216.34 187.25 216.48 192.34 216.55C195.174 216.655 198.012 216.545 200.83 216.22C205.91 215.5 210.83 213.36 215.55 211.28C217.693 210.445 219.73 209.361 221.62 208.05L224.04 211.24C221.904 212.748 219.594 213.994 217.16 214.95C212.16 217.13 207.02 219.38 201.39 220.18C199.158 220.465 196.91 220.595 194.66 220.57Z" fill="#6DD5BE"/>
<path d="M183.82 232.43H183C168.554 232.049 154.74 226.422 144.14 216.6C142.4 214.98 140.14 212.46 140.56 209.28L144.56 209.79C144.42 210.79 145.17 212.06 146.9 213.68C156.776 222.84 169.654 228.085 183.12 228.43C185.68 228.49 189.32 228.32 191.41 226.26L194.22 229.11C191.28 231.97 187.04 232.43 183.82 232.43Z" fill="#6DD5BE"/>
<path d="M262.97 130.54L259.03 129.85C260.152 122.792 259.176 115.559 256.223 109.05C253.27 102.542 248.471 97.0442 242.42 93.24L244.5 89.83C251.23 94.0579 256.57 100.171 259.853 107.409C263.137 114.647 264.221 122.691 262.97 130.54Z" fill="#6DD5BE"/>
<path d="M108.34 160.36L107.64 156.42C118.64 154.42 127.04 145.48 135.38 135.67C136.368 134.647 137.177 133.463 137.77 132.17C138.121 131.028 138.313 129.844 138.34 128.65L140.98 90.83C141.43 84.47 141.98 77.25 145.55 71.14C150.43 62.88 160.55 57.73 173.21 57.01L173.44 61.01C168.07 61.32 154.94 63.11 148.99 73.19C145.86 78.49 145.39 85.19 144.99 91.12L142.34 128.93C142.298 130.511 142.025 132.078 141.53 133.58C140.778 135.31 139.733 136.897 138.44 138.27C129.6 148.64 120.66 158.14 108.34 160.36Z" fill="#6DD5BE"/>
<path d="M135.15 112.83C129.84 109.92 124.35 106.91 118.45 105.62C112.14 104.24 106.18 105.22 102.09 108.3L99.6799 105.1C104.68 101.32 111.85 100.1 119.31 101.71C125.77 103.12 131.52 106.28 137.08 109.33L135.15 112.83Z" fill="#6DD5BE"/>
<path d="M238.72 113.71C236.02 109.41 232.95 104.54 231.72 99.06C231.142 95.9846 230.878 92.8587 230.93 89.73C230.955 87.2382 230.795 84.7479 230.45 82.28C229.876 78.9135 228.6 75.7055 226.705 72.8645C224.809 70.0235 222.338 67.6131 219.45 65.79C214.14 62.5 207.18 61.05 198.73 61.49C191.47 61.87 181.16 63.74 173.19 70.49C165.99 76.64 162.41 86.2 164.3 94.28L160.41 95.19C158.15 85.55 162.15 74.66 170.59 67.45C179.41 59.92 190.65 57.85 198.52 57.45C207.79 56.97 215.52 58.62 221.52 62.35C224.895 64.4733 227.786 67.2826 230.005 70.5955C232.224 73.9084 233.721 77.6508 234.4 81.58C234.776 84.2297 234.953 86.9038 234.93 89.58C234.881 92.439 235.112 95.296 235.62 98.11C236.67 102.92 239.42 107.27 242.08 111.49L238.72 113.71Z" fill="#6DD5BE"/>
<path d="M241.11 102.46C239.55 98.57 240.52 94.6999 241.46 90.9499C242.086 88.8431 242.445 86.6662 242.53 84.47C242.424 81.9546 241.721 79.5005 240.48 77.3099C238.707 73.6391 235.889 70.5741 232.38 68.4999C230.711 67.5249 228.852 66.9187 226.929 66.7221C225.005 66.5254 223.062 66.7429 221.23 67.36C219.834 67.9405 218.494 68.6503 217.23 69.48L216.9 69.68C210.12 73.79 202.01 77.9099 193.3 77.3099L193.57 73.3099C201.17 73.8299 208.57 70.03 214.83 66.2499L215.16 66.05C216.636 65.0908 218.2 64.2738 219.83 63.61C222.208 62.7906 224.734 62.4916 227.237 62.7331C229.741 62.9747 232.163 63.7511 234.34 65.01C238.529 67.47 241.902 71.1075 244.04 75.47C245.563 78.2156 246.416 81.2822 246.53 84.4199C246.455 86.9572 246.055 89.4745 245.34 91.9099C244.52 95.1899 243.75 98.29 244.82 100.97L241.11 102.46Z" fill="#6DD5BE"/>
<path d="M233.84 199.07L231.68 195.7L239.99 190.37C244.83 187.26 250.32 183.74 253.25 178.55C256.55 172.69 256.64 164.78 253.52 154.39L253.36 153.86C251.62 148.06 249.44 140.86 253.11 135.09C254.425 133.224 256.036 131.586 257.88 130.24C258.44 129.78 259.01 129.32 259.55 128.84C261.08 127.49 262.86 125.42 262.7 123.27L266.7 122.98C266.92 125.98 265.37 128.98 262.22 131.83C261.63 132.35 261.02 132.83 260.41 133.34C258.91 134.427 257.59 135.743 256.5 137.24C253.81 141.44 255.5 147.17 257.2 152.7L257.36 153.24C260.82 164.73 260.61 173.65 256.74 180.51C253.33 186.57 247.39 190.38 242.16 193.74L233.84 199.07Z" fill="#6DD5BE"/>
<path d="M219.7 179.85L217.14 176.78C219.241 175.128 221.506 173.697 223.9 172.51L224.83 172C233.26 167.4 238.73 163.07 242.59 157.95C247.42 151.54 249.22 143.87 247.39 137.45L251.24 136.35C253.4 143.98 251.37 152.95 245.79 160.35C240.38 167.52 232.79 172.22 226.79 175.5L225.85 176.02C223.676 177.087 221.616 178.37 219.7 179.85Z" fill="#6DD5BE"/>
<path d="M125.91 203.32C124.235 203.33 122.562 203.193 120.91 202.91C114.45 201.8 107.08 197.34 105.17 189.91L109.05 188.91C110.51 194.62 116.4 198.08 121.59 198.98C127.64 199.98 133.89 198.59 139.78 196.98C149.26 194.45 161.51 190.67 172.06 183.8L174.24 187.16C163.24 194.33 150.58 198.24 140.8 200.85C135.964 202.311 130.959 203.141 125.91 203.32Z" fill="#6DD5BE"/>
<path d="M133.34 207.79C129.73 206.58 128.16 202.69 128.23 199.59C128.3 196.49 129.61 193.78 130.76 191.37L134.03 184.56C135.108 182.065 136.492 179.714 138.15 177.56C140.03 175.122 142.743 173.463 145.77 172.9L146.36 176.85C144.31 177.276 142.486 178.435 141.23 180.11C139.787 182.024 138.581 184.106 137.64 186.31L134.34 193.07C133.34 195.21 132.25 197.43 132.2 199.65C132.2 201.34 132.98 203.43 134.59 203.97L133.34 207.79Z" fill="#6DD5BE"/>
<path d="M156.22 213.34C153.62 205.2 145.38 200.11 138.49 196.57C137.49 196.04 136.42 195.52 135.37 195C128.25 191.44 120.9 187.76 115.93 181.27C114.666 179.784 113.848 177.971 113.57 176.04C113.421 174.825 113.668 173.594 114.275 172.531C114.883 171.467 115.817 170.629 116.94 170.14L118.34 173.88C118.052 174.073 117.825 174.344 117.686 174.661C117.546 174.977 117.499 175.327 117.55 175.67C117.77 176.85 118.309 177.946 119.11 178.84C123.51 184.59 130.45 188.07 137.11 191.42L140.34 193.07C147.91 196.95 157 202.63 160.05 212.17L156.22 213.34Z" fill="#6DD5BE"/>
<path d="M191.67 212.07H190.34C181.138 211.895 172.023 210.251 163.34 207.2L164.67 203.43C172.925 206.332 181.591 207.898 190.34 208.07C197.24 208.19 202 207.26 205.8 205.07C212.97 200.88 216.36 191.07 213.53 182.85C210.83 174.97 202.77 168.92 193.93 168.15L194.28 164.15C204.64 165.06 214.12 172.21 217.28 181.55C220.71 191.55 216.54 203.4 207.79 208.55C202.59 211.53 196.34 212.07 191.67 212.07Z" fill="#6DD5BE"/>
<path d="M166.04 152.27C164.27 143.54 162.84 133.62 168.45 126.34C170.793 123.493 173.755 121.219 177.11 119.69C195.11 110.58 218.38 113.29 233.77 126.29L231.19 129.34C216.99 117.34 195.49 114.85 178.92 123.26C176.101 124.524 173.605 126.412 171.62 128.78C167.04 134.72 168.36 143.61 169.96 151.48L166.04 152.27Z" fill="#6DD5BE"/>
<path d="M127.61 76.44C121.523 78.1934 115.457 80.07 109.41 82.07C109.198 82.0907 108.993 82.1558 108.808 82.2613C108.623 82.3668 108.463 82.5101 108.337 82.682C108.212 82.8539 108.124 83.0503 108.079 83.2585C108.035 83.4667 108.035 83.6819 108.08 83.89V92.89C116.625 90.0315 124.906 86.4381 132.83 82.15C132 81.01 131.93 79.51 131.62 78.15C131.31 76.79 130.54 75.27 129.15 75.01C128.422 74.9287 127.686 75.0462 127.02 75.35C125.27 75.9843 123.569 76.7464 121.93 77.63" fill="#6DD5BE"/>
<path d="M213.95 94.95C213.688 96.0499 213.779 97.2046 214.21 98.25C215.11 100.13 217.39 100.82 219.41 101.31C220.83 101.66 222.76 101.77 223.33 100.42C223.68 99.59 223.45 98.33 224.33 98.03C224.638 101.451 224.432 104.899 223.72 108.26C225.663 109.461 227.856 110.199 230.13 110.42C230.797 105.993 231.29 101.55 231.61 97.09L233.78 102.96C233.884 103.408 234.147 103.802 234.52 104.07C234.803 104.206 235.116 104.268 235.43 104.25C238.772 104.339 242.117 104.158 245.43 103.71C245.859 103.697 246.273 103.546 246.61 103.28C250.97 98.98 241.32 86.55 236.95 85.03C228.54 82.07 215.78 84.85 213.95 94.95Z" fill="#6DD5BE"/>
<path d="M213.95 94.95C213.688 96.0499 213.779 97.2046 214.21 98.25C215.11 100.13 217.39 100.82 219.41 101.31C220.83 101.66 222.76 101.77 223.33 100.42C223.68 99.59 223.45 98.33 224.33 98.03C224.638 101.451 224.432 104.899 223.72 108.26C225.663 109.461 227.856 110.199 230.13 110.42C230.797 105.993 231.29 101.55 231.61 97.09L233.78 102.96C233.884 103.408 234.147 103.802 234.52 104.07C234.803 104.206 235.116 104.268 235.43 104.25C238.772 104.339 242.117 104.158 245.43 103.71C245.859 103.697 246.273 103.546 246.61 103.28C250.97 98.98 241.32 86.55 236.95 85.03C228.54 82.07 215.78 84.85 213.95 94.95Z" fill="url(#paint4_linear)"/>
<path d="M152.54 177.24C153.122 176.289 153.401 175.183 153.34 174.07C153.05 172 151.09 170.66 149.34 169.57C148.09 168.81 146.34 168.12 145.34 169.23C144.75 169.91 144.59 171.23 143.69 171.23C144.433 167.873 145.677 164.647 147.38 161.66C145.888 159.928 144.021 158.56 141.92 157.66C139.973 161.66 138.153 165.747 136.46 169.92L136.18 163.67C136.22 163.479 136.222 163.282 136.185 163.091C136.148 162.9 136.072 162.718 135.963 162.556C135.854 162.395 135.713 162.257 135.549 162.151C135.385 162.045 135.202 161.973 135.01 161.94C131.842 160.84 128.592 159.991 125.29 159.4C124.872 159.278 124.427 159.296 124.02 159.45C118.57 162.22 124.02 176.99 127.69 179.78C134.73 185.07 147.72 186.31 152.54 177.24Z" fill="#6DD5BE"/>
<path d="M152.54 177.24C153.122 176.289 153.401 175.183 153.34 174.07C153.05 172 151.09 170.66 149.34 169.57C148.09 168.81 146.34 168.12 145.34 169.23C144.75 169.91 144.59 171.23 143.69 171.23C144.433 167.873 145.677 164.647 147.38 161.66C145.888 159.928 144.021 158.56 141.92 157.66C139.973 161.66 138.153 165.747 136.46 169.92L136.18 163.67C136.22 163.479 136.222 163.282 136.185 163.091C136.148 162.9 136.072 162.718 135.963 162.556C135.854 162.395 135.713 162.257 135.549 162.151C135.385 162.045 135.202 161.973 135.01 161.94C131.842 160.84 128.592 159.991 125.29 159.4C124.872 159.278 124.427 159.296 124.02 159.45C118.57 162.22 124.02 176.99 127.69 179.78C134.73 185.07 147.72 186.31 152.54 177.24Z" fill="url(#paint5_linear)"/>
<path d="M229.45 201.28C229.543 200.153 229.284 199.025 228.71 198.05C227.54 196.33 225.19 195.98 223.12 195.79C221.66 195.65 219.74 195.79 219.37 197.23C219.14 198.11 219.56 199.32 218.76 199.74C217.96 196.399 217.66 192.959 217.87 189.53C215.771 188.625 213.493 188.214 211.21 188.33C211.21 192.797 211.37 197.263 211.69 201.73L208.69 196.24C208.517 195.814 208.203 195.461 207.8 195.24C207.495 195.165 207.175 195.165 206.87 195.24C203.542 195.646 200.252 196.315 197.03 197.24C196.605 197.315 196.216 197.526 195.92 197.84C192.23 202.73 203.59 213.62 208.14 214.5C216.88 216.13 229.11 211.54 229.45 201.28Z" fill="#6DD5BE"/>
<path d="M229.45 201.28C229.543 200.153 229.284 199.025 228.71 198.05C227.54 196.33 225.19 195.98 223.12 195.79C221.66 195.65 219.74 195.79 219.37 197.23C219.14 198.11 219.56 199.32 218.76 199.74C217.96 196.399 217.66 192.959 217.87 189.53C215.771 188.625 213.493 188.214 211.21 188.33C211.21 192.797 211.37 197.263 211.69 201.73L208.69 196.24C208.517 195.814 208.203 195.461 207.8 195.24C207.495 195.165 207.175 195.165 206.87 195.24C203.542 195.646 200.252 196.315 197.03 197.24C196.605 197.315 196.216 197.526 195.92 197.84C192.23 202.73 203.59 213.62 208.14 214.5C216.88 216.13 229.11 211.54 229.45 201.28Z" fill="url(#paint6_linear)"/>
<path d="M255.12 143.33C254.638 142.307 253.848 141.461 252.86 140.91C250.99 140 248.78 140.91 246.86 141.76C245.53 142.37 243.95 143.48 244.34 144.89C244.58 145.76 245.56 146.6 245.08 147.37C242.705 144.884 240.716 142.056 239.18 138.98C236.913 139.252 234.737 140.039 232.82 141.28C235.073 145.14 237.453 148.927 239.96 152.64L234.61 149.39C234.246 149.112 233.798 148.967 233.34 148.98C233.036 149.054 232.754 149.202 232.52 149.41C229.841 151.428 227.327 153.655 225 156.07C224.669 156.349 224.437 156.728 224.34 157.15C223.61 163.22 238.9 166.94 243.27 165.41C251.71 162.48 259.98 152.37 255.12 143.33Z" fill="#6DD5BE"/>
<path d="M255.12 143.33C254.638 142.307 253.848 141.461 252.86 140.91C250.99 140 248.78 140.91 246.86 141.76C245.53 142.37 243.95 143.48 244.34 144.89C244.58 145.76 245.56 146.6 245.08 147.37C242.705 144.884 240.716 142.056 239.18 138.98C236.913 139.252 234.737 140.039 232.82 141.28C235.073 145.14 237.453 148.927 239.96 152.64L234.61 149.39C234.246 149.112 233.798 148.967 233.34 148.98C233.036 149.054 232.754 149.202 232.52 149.41C229.841 151.428 227.327 153.655 225 156.07C224.669 156.349 224.437 156.728 224.34 157.15C223.61 163.22 238.9 166.94 243.27 165.41C251.71 162.48 259.98 152.37 255.12 143.33Z" fill="url(#paint7_linear)"/>
<path d="M182.34 140.07C181.858 139.047 181.068 138.201 180.08 137.65C178.21 136.74 176 137.65 174.08 138.5C172.75 139.11 171.17 140.22 171.56 141.63C171.8 142.5 172.78 143.34 172.3 144.1C169.925 141.618 167.936 138.793 166.4 135.72C164.132 135.992 161.957 136.779 160.04 138.02C162.293 141.88 164.673 145.667 167.18 149.38L161.83 146.07C161.466 145.792 161.018 145.647 160.56 145.66C160.255 145.734 159.974 145.882 159.74 146.09C157.063 148.11 154.549 150.337 152.22 152.75C151.889 153.029 151.657 153.408 151.56 153.83C150.83 159.9 166.12 163.62 170.49 162.09C178.9 159.19 187.17 149.07 182.34 140.07Z" fill="#6DD5BE"/>
<path d="M182.34 140.07C181.858 139.047 181.068 138.201 180.08 137.65C178.21 136.74 176 137.65 174.08 138.5C172.75 139.11 171.17 140.22 171.56 141.63C171.8 142.5 172.78 143.34 172.3 144.1C169.925 141.618 167.936 138.793 166.4 135.72C164.132 135.992 161.957 136.779 160.04 138.02C162.293 141.88 164.673 145.667 167.18 149.38L161.83 146.07C161.466 145.792 161.018 145.647 160.56 145.66C160.255 145.734 159.974 145.882 159.74 146.09C157.063 148.11 154.549 150.337 152.22 152.75C151.889 153.029 151.657 153.408 151.56 153.83C150.83 159.9 166.12 163.62 170.49 162.09C178.9 159.19 187.17 149.07 182.34 140.07Z" fill="url(#paint8_linear)"/>
<path d="M112.9 121.24C114.63 122.8 117.18 122.89 119.51 122.85C123.99 122.77 128.463 122.53 132.93 122.13C133.396 122.061 133.87 122.078 134.33 122.18C135.51 122.54 136.05 123.96 137.14 124.55C138.85 125.46 141.01 123.69 141.14 121.76C141.27 119.83 140.14 118.05 138.96 116.54C134.61 111.14 126.96 105.76 119.65 106.37C114 106.84 107.82 116.65 112.9 121.24Z" fill="url(#paint9_linear)"/>
<path d="M118.41 120.3C119.138 121.161 120.117 121.773 121.21 122.05C123.21 122.45 125.21 121.05 126.77 119.7C127.9 118.77 129.14 117.29 128.4 116.03C127.94 115.25 126.78 114.69 127.05 113.82C129.983 115.614 132.629 117.838 134.9 120.42C137.024 119.571 138.926 118.247 140.46 116.55C137.287 113.397 134.013 110.35 130.64 107.41L136.64 109.18C137.065 109.357 137.539 109.382 137.98 109.25C138.253 109.096 138.486 108.88 138.66 108.62C140.732 105.982 142.591 103.183 144.22 100.25C144.467 99.8961 144.594 99.4716 144.58 99.04C143.72 93.04 127.99 93.32 124.16 95.92C116.79 100.91 111.39 112.8 118.41 120.3Z" fill="#6DD5BE"/>
<path d="M118.41 120.3C119.138 121.161 120.117 121.773 121.21 122.05C123.21 122.45 125.21 121.05 126.77 119.7C127.9 118.77 129.14 117.29 128.4 116.03C127.94 115.25 126.78 114.69 127.05 113.82C129.983 115.614 132.629 117.838 134.9 120.42C137.024 119.571 138.926 118.247 140.46 116.55C137.287 113.397 134.013 110.35 130.64 107.41L136.64 109.18C137.065 109.357 137.539 109.382 137.98 109.25C138.253 109.096 138.486 108.88 138.66 108.62C140.732 105.982 142.591 103.183 144.22 100.25C144.467 99.8961 144.594 99.4716 144.58 99.04C143.72 93.04 127.99 93.32 124.16 95.92C116.79 100.91 111.39 112.8 118.41 120.3Z" fill="url(#paint10_linear)"/>
<path d="M188.46 81.5801C188.338 83.1746 187.906 84.7302 187.19 86.16C186.31 87.6132 185.122 88.8557 183.71 89.8001C179.108 92.9468 173.665 94.6335 168.09 94.6401C165.53 94.7825 162.97 94.3626 160.59 93.41C159.413 92.9188 158.356 92.178 157.493 91.2389C156.63 90.2997 155.98 89.1844 155.59 87.9701C155.492 87.644 155.492 87.2961 155.59 86.9701C155.745 86.6019 156.006 86.2885 156.34 86.0701L163.04 81.41C163.526 81.1493 163.907 80.729 164.12 80.2201C164.213 79.7051 164.132 79.174 163.89 78.7101C162.61 75.3767 161.22 72.0634 159.72 68.77C159.32 67.89 158.93 66.7701 159.56 66.0301C159.879 65.7111 160.275 65.4803 160.71 65.3601C163.33 64.3601 166.17 63.45 168.83 64.27C172.05 65.27 173.98 68.51 176.83 70.27C178.365 71.222 180.134 71.7275 181.94 71.7301C183.33 71.7301 185.32 70.6701 186.62 71.1101C189.48 72.0701 188.72 79.2601 188.46 81.5801Z" fill="url(#paint11_linear)"/>
<path d="M187.85 64.57C187.368 63.5469 186.578 62.7006 185.59 62.15C183.72 61.24 181.51 62.15 179.59 62.99C178.26 63.61 176.68 64.71 177.07 66.13C177.32 66.99 178.29 67.84 177.81 68.6C175.438 66.1117 173.449 63.284 171.91 60.21C169.642 60.4855 167.466 61.2756 165.55 62.52C167.81 66.38 170.19 70.1633 172.69 73.87L167.34 70.63C166.98 70.3442 166.529 70.1986 166.07 70.22C165.768 70.2942 165.487 70.4381 165.25 70.64C162.571 72.661 160.056 74.8913 157.73 77.31C157.404 77.5891 157.173 77.9632 157.07 78.38C156.34 84.46 171.63 88.18 176 86.65C184.44 83.71 192.71 73.61 187.85 64.57Z" fill="#6DD5BE"/>
<path d="M187.85 64.57C187.368 63.5469 186.578 62.7006 185.59 62.15C183.72 61.24 181.51 62.15 179.59 62.99C178.26 63.61 176.68 64.71 177.07 66.13C177.32 66.99 178.29 67.84 177.81 68.6C175.438 66.1117 173.449 63.284 171.91 60.21C169.642 60.4855 167.466 61.2756 165.55 62.52C167.81 66.38 170.19 70.1633 172.69 73.87L167.34 70.63C166.98 70.3442 166.529 70.1986 166.07 70.22C165.768 70.2942 165.487 70.4381 165.25 70.64C162.571 72.661 160.056 74.8913 157.73 77.31C157.404 77.5891 157.173 77.9632 157.07 78.38C156.34 84.46 171.63 88.18 176 86.65C184.44 83.71 192.71 73.61 187.85 64.57Z" fill="url(#paint12_linear)"/>
<path d="M207.04 114.36C209.724 114.36 211.9 112.184 211.9 109.5C211.9 106.816 209.724 104.64 207.04 104.64C204.356 104.64 202.18 106.816 202.18 109.5C202.18 112.184 204.356 114.36 207.04 114.36Z" fill="url(#paint13_linear)"/>
<path d="M178.05 109.5C180.734 109.5 182.91 107.324 182.91 104.64C182.91 101.956 180.734 99.78 178.05 99.78C175.366 99.78 173.19 101.956 173.19 104.64C173.19 107.324 175.366 109.5 178.05 109.5Z" fill="url(#paint14_linear)"/>
<path d="M131.83 145.41C134.514 145.41 136.69 143.234 136.69 140.55C136.69 137.866 134.514 135.69 131.83 135.69C129.146 135.69 126.97 137.866 126.97 140.55C126.97 143.234 129.146 145.41 131.83 145.41Z" fill="url(#paint15_linear)"/>
<path d="M200.32 161.57C203.004 161.57 205.18 159.394 205.18 156.71C205.18 154.026 203.004 151.85 200.32 151.85C197.636 151.85 195.46 154.026 195.46 156.71C195.46 159.394 197.636 161.57 200.32 161.57Z" fill="url(#paint16_linear)"/>
<path d="M233.77 138.96C236.454 138.96 238.63 136.784 238.63 134.1C238.63 131.416 236.454 129.24 233.77 129.24C231.086 129.24 228.91 131.416 228.91 134.1C228.91 136.784 231.086 138.96 233.77 138.96Z" fill="url(#paint17_linear)"/>
<path d="M173.33 196.41C176.014 196.41 178.19 194.234 178.19 191.55C178.19 188.866 176.014 186.69 173.33 186.69C170.646 186.69 168.47 188.866 168.47 191.55C168.47 194.234 170.646 196.41 173.33 196.41Z" fill="url(#paint18_linear)"/>
<path d="M111.02 136.04C113.704 136.04 115.88 133.864 115.88 131.18C115.88 128.496 113.704 126.32 111.02 126.32C108.336 126.32 106.16 128.496 106.16 131.18C106.16 133.864 108.336 136.04 111.02 136.04Z" fill="url(#paint19_linear)"/>
<path d="M245.12 194.25C247.904 194.579 250.721 194.521 253.49 194.08L252.49 176.56C252.545 175.705 252.273 174.862 251.73 174.2C251.673 174.136 251.604 174.084 251.527 174.048C251.449 174.012 251.365 173.992 251.28 173.99C251.142 174.015 251.014 174.077 250.91 174.17C248.65 175.84 244.77 178.48 244.91 181.51C245.01 185.75 244.9 190 245.12 194.25Z" fill="#6DD5BE"/>
<path d="M97.34 141.54C96.8677 141.51 96.4 141.648 96.02 141.93C95.7513 142.225 95.5771 142.595 95.52 142.99C94.1499 148.695 94.1705 154.645 95.58 160.34C102.697 157.884 110.194 156.716 117.72 156.89C119.064 157.07 120.432 156.836 121.64 156.22C122.448 155.596 123.059 154.752 123.4 153.79C124.4 151.48 125.47 147.79 124.53 145.47C120.98 147.56 116.53 144.13 112.8 143.14C107.761 141.805 102.545 141.265 97.34 141.54Z" fill="#6DD5BE"/>
<path d="M196.74 112.31L190.74 111.94C189.859 111.82 188.963 111.888 188.11 112.14C187.147 112.595 186.312 113.283 185.68 114.14L176.52 124.78C175.3 126.19 174.09 127.61 173.02 129.13C172.798 129.372 172.634 129.662 172.543 129.978C172.451 130.294 172.433 130.626 172.49 130.95C173.31 133.33 180.84 134.14 182.97 134.51C185.3 134.92 188.25 135.51 190.41 134.18C193.05 132.53 193.26 128.74 193.83 126.01C194.837 121.45 195.807 116.883 196.74 112.31Z" fill="#6DD5BE"/>
<path d="M193.51 66.77C191.506 64.6646 190.071 62.0835 189.34 59.27L195.88 54.19C196.113 53.9642 196.41 53.8143 196.73 53.76C197.037 53.7642 197.337 53.8505 197.6 54.01L217.5 64.2C217.82 64.36 218.16 64.55 218.25 64.89C218.269 65.0922 218.239 65.2959 218.162 65.484C218.086 65.672 217.965 65.8388 217.81 65.97C214.185 69.815 209.622 72.6512 204.57 74.2C201.99 74.98 201.31 73.45 199.49 71.8C197.67 70.15 195.34 68.65 193.51 66.77Z" fill="#6DD5BE"/>
<path d="M156 195.18C156.262 194.874 156.611 194.654 157 194.55C157.441 194.505 157.884 194.607 158.26 194.84L166.47 198.7C169.21 200 172.07 201.38 173.88 203.8C166.783 209.651 159.284 214.997 151.44 219.8C150.729 220.317 149.894 220.638 149.02 220.73C148.362 220.691 147.719 220.517 147.13 220.22C145.27 219.43 139.85 217.97 138.96 216.04C137.83 213.56 141.11 210.94 142.55 209.31C146.843 204.403 151.327 199.693 156 195.18Z" fill="#6DD5BE"/>
<path d="M91.98 171.68C90.59 179.81 94.44 187.87 98.71 194.93C106.581 192.162 114.238 188.82 121.62 184.93C124.18 183.59 117.62 174.09 114.9 173.1C112.96 172.43 92.2 170.35 91.98 171.68Z" fill="#6DD5BE"/>
<path d="M180.91 170.32C180.519 170.453 180.173 170.692 179.91 171.01C179.48 171.69 179.91 172.57 180.37 173.24C182.259 176.005 184.543 178.478 187.15 180.58C187.797 181.208 188.627 181.615 189.52 181.74C190.265 181.71 190.99 181.493 191.63 181.11C196.811 178.529 201.734 175.458 206.33 171.94C210.68 168.61 214.84 166.08 210.41 160.83C206.8 156.55 202.08 160.4 197.99 162.31C192.34 164.98 186.6 167.62 180.91 170.32Z" fill="#6DD5BE"/>
<path d="M127.61 76.44C121.523 78.1934 115.457 80.07 109.41 82.07C109.198 82.0907 108.993 82.1558 108.808 82.2613C108.623 82.3668 108.463 82.5101 108.337 82.682C108.212 82.8539 108.124 83.0503 108.079 83.2585C108.035 83.4667 108.035 83.6819 108.08 83.89V92.89C116.625 90.0315 124.906 86.4381 132.83 82.15C132 81.01 131.93 79.51 131.62 78.15C131.31 76.79 130.54 75.27 129.15 75.01C128.422 74.9287 127.686 75.0462 127.02 75.35C125.27 75.9843 123.569 76.7464 121.93 77.63" fill="url(#paint20_linear)"/>
<path d="M245.12 194.25C247.904 194.579 250.721 194.521 253.49 194.08L252.49 176.56C252.545 175.705 252.273 174.862 251.73 174.2C251.673 174.136 251.604 174.084 251.527 174.048C251.449 174.012 251.365 173.992 251.28 173.99C251.142 174.015 251.014 174.077 250.91 174.17C248.65 175.84 244.77 178.48 244.91 181.51C245.01 185.75 244.9 190 245.12 194.25Z" fill="url(#paint21_linear)"/>
<path d="M97.34 141.54C96.8677 141.51 96.4 141.648 96.02 141.93C95.7513 142.225 95.5771 142.595 95.52 142.99C94.1499 148.695 94.1705 154.645 95.58 160.34C102.697 157.884 110.194 156.716 117.72 156.89C119.064 157.07 120.432 156.836 121.64 156.22C122.448 155.596 123.059 154.752 123.4 153.79C124.4 151.48 125.47 147.79 124.53 145.47C120.98 147.56 116.53 144.13 112.8 143.14C107.761 141.805 102.545 141.265 97.34 141.54Z" fill="url(#paint22_linear)"/>
<path d="M196.74 112.31L190.74 111.94C189.859 111.82 188.963 111.888 188.11 112.14C187.147 112.595 186.312 113.283 185.68 114.14L176.52 124.78C175.3 126.19 174.09 127.61 173.02 129.13C172.798 129.372 172.634 129.662 172.543 129.978C172.451 130.294 172.433 130.626 172.49 130.95C173.31 133.33 180.84 134.14 182.97 134.51C185.3 134.92 188.25 135.51 190.41 134.18C193.05 132.53 193.26 128.74 193.83 126.01C194.837 121.45 195.807 116.883 196.74 112.31Z" fill="url(#paint23_linear)"/>
<path d="M193.51 66.77C191.506 64.6646 190.071 62.0835 189.34 59.27L195.88 54.19C196.113 53.9642 196.41 53.8143 196.73 53.76C197.037 53.7642 197.337 53.8505 197.6 54.01L217.5 64.2C217.82 64.36 218.16 64.55 218.25 64.89C218.269 65.0922 218.239 65.2959 218.162 65.484C218.086 65.672 217.965 65.8388 217.81 65.97C214.185 69.815 209.622 72.6512 204.57 74.2C201.99 74.98 201.31 73.45 199.49 71.8C197.67 70.15 195.34 68.65 193.51 66.77Z" fill="url(#paint24_linear)"/>
<path d="M156 195.18C156.262 194.874 156.611 194.654 157 194.55C157.441 194.505 157.884 194.607 158.26 194.84L166.47 198.7C169.21 200 172.07 201.38 173.88 203.8C166.783 209.651 159.284 214.997 151.44 219.8C150.729 220.317 149.894 220.638 149.02 220.73C148.362 220.691 147.719 220.517 147.13 220.22C145.27 219.43 139.85 217.97 138.96 216.04C137.83 213.56 141.11 210.94 142.55 209.31C146.843 204.403 151.327 199.693 156 195.18Z" fill="url(#paint25_linear)"/>
<path d="M91.98 171.68C90.59 179.81 94.44 187.87 98.71 194.93C106.581 192.162 114.238 188.82 121.62 184.93C124.18 183.59 117.62 174.09 114.9 173.1C112.96 172.43 92.2 170.35 91.98 171.68Z" fill="url(#paint26_linear)"/>
<path d="M180.91 170.32C180.519 170.453 180.173 170.692 179.91 171.01C179.48 171.69 179.91 172.57 180.37 173.24C182.259 176.005 184.543 178.478 187.15 180.58C187.797 181.208 188.627 181.615 189.52 181.74C190.265 181.71 190.99 181.493 191.63 181.11C196.811 178.529 201.734 175.458 206.33 171.94C210.68 168.61 214.84 166.08 210.41 160.83C206.8 156.55 202.08 160.4 197.99 162.31C192.34 164.98 186.6 167.62 180.91 170.32Z" fill="url(#paint27_linear)"/>
<path d="M263.28 232.5L260.08 236.94L244.21 226L74.84 109.22C75.92 106.09 77.13 103 78.49 100L248.7 222.07L263.28 232.5Z" fill="url(#paint28_linear)"/>
<path d="M259.79 237.92L256.79 242.48L238.14 230.69L70.79 124.96C71.38 121.6 72.14 118.3 73.04 115.05L243.09 226.93L259.79 237.92Z" fill="url(#paint29_linear)"/>
<path d="M56.77 81.33L264.71 230.43L261.51 234.87L50.2 89.17L56.77 81.33Z" fill="#6DD5BE"/>
<path d="M47.48 95.21L261.23 235.84L258.21 240.41L41.23 103.3L47.48 95.21Z" fill="#6DD5BE"/>
<path d="M53.11 85.7L262.26 233.83L261.51 234.87L50.2 89.17L53.11 85.7Z" fill="url(#paint30_linear)"/>
<path d="M44.13 100L258.96 239.37L258.21 240.41L41.23 103.47L44.13 100Z" fill="url(#paint31_linear)"/>
</g>
<defs>
<linearGradient id="paint0_linear" x1="284.94" y1="-144.14" x2="82.82" y2="348.74" gradientUnits="userSpaceOnUse">
<stop offset="0.01"/>
<stop offset="0.13" stop-opacity="0.69"/>
<stop offset="1" stop-opacity="0"/>
</linearGradient>
<linearGradient id="paint1_linear" x1="47945.3" y1="-38418.4" x2="35679.5" y2="66955.7" gradientUnits="userSpaceOnUse">
<stop offset="0.01"/>
<stop offset="0.13" stop-opacity="0.69"/>
<stop offset="1" stop-opacity="0"/>
</linearGradient>
<linearGradient id="paint2_linear" x1="41164.9" y1="-30471.3" x2="30970.2" y2="57072.1" gradientUnits="userSpaceOnUse">
<stop offset="0.01"/>
<stop offset="0.13" stop-opacity="0.69"/>
<stop offset="1" stop-opacity="0"/>
</linearGradient>
<linearGradient id="paint3_linear" x1="39542.9" y1="-3900.44" x2="22962.7" y2="43742.5" gradientUnits="userSpaceOnUse">
<stop offset="0.01"/>
<stop offset="0.13" stop-opacity="0.69"/>
<stop offset="1" stop-opacity="0"/>
</linearGradient>
<linearGradient id="paint4_linear" x1="7792.14" y1="2817" x2="8942.1" y2="2817" gradientUnits="userSpaceOnUse">
<stop offset="0.01"/>
<stop offset="0.13" stop-opacity="0.69"/>
<stop offset="1" stop-opacity="0"/>
</linearGradient>
<linearGradient id="paint5_linear" x1="8471.83" y1="-105672" x2="7450.18" y2="-105998" gradientUnits="userSpaceOnUse">
<stop offset="0.01"/>
<stop offset="0.13" stop-opacity="0.69"/>
<stop offset="1" stop-opacity="0"/>
</linearGradient>
<linearGradient id="paint6_linear" x1="-8907.45" y1="-106355" x2="-10057" y2="-106186" gradientUnits="userSpaceOnUse">
<stop offset="0.01"/>
<stop offset="0.13" stop-opacity="0.69"/>
<stop offset="1" stop-opacity="0"/>
</linearGradient>
<linearGradient id="paint7_linear" x1="-31493.7" y1="-100677" x2="-32349.3" y2="-99996.2" gradientUnits="userSpaceOnUse">
<stop offset="0.01"/>
<stop offset="0.13" stop-opacity="0.69"/>
<stop offset="1" stop-opacity="0"/>
</linearGradient>
<linearGradient id="paint8_linear" x1="-33488.5" y1="-100428" x2="-34343.7" y2="-99748" gradientUnits="userSpaceOnUse">
<stop offset="0.01"/>
<stop offset="0.13" stop-opacity="0.69"/>
<stop offset="1" stop-opacity="0"/>
</linearGradient>
<linearGradient id="paint9_linear" x1="3945.57" y1="2043.06" x2="4109.03" y2="2679.67" gradientUnits="userSpaceOnUse">
<stop offset="0.01"/>
<stop offset="0.13" stop-opacity="0.69"/>
<stop offset="1" stop-opacity="0"/>
</linearGradient>
<linearGradient id="paint10_linear" x1="49470.4" y1="-25893.4" x2="50065.6" y2="-26694.5" gradientUnits="userSpaceOnUse">
<stop offset="0.01"/>
<stop offset="0.13" stop-opacity="0.69"/>
<stop offset="1" stop-opacity="0"/>
</linearGradient>
<linearGradient id="paint11_linear" x1="6310.77" y1="3461.37" x2="6043.63" y2="1529.36" gradientUnits="userSpaceOnUse">
<stop offset="0.01"/>
<stop offset="0.13" stop-opacity="0.69"/>
<stop offset="1" stop-opacity="0"/>
</linearGradient>
<linearGradient id="paint12_linear" x1="-33232.9" y1="-102784" x2="-34088.5" y2="-102104" gradientUnits="userSpaceOnUse">
<stop offset="0.01"/>
<stop offset="0.13" stop-opacity="0.69"/>
<stop offset="1" stop-opacity="0"/>
</linearGradient>
<linearGradient id="paint13_linear" x1="2167.37" y1="1168.98" x2="2261.85" y2="1168.98" gradientUnits="userSpaceOnUse">
<stop offset="0.01"/>
<stop offset="0.13" stop-opacity="0.69"/>
<stop offset="1" stop-opacity="0"/>
</linearGradient>
<linearGradient id="paint14_linear" x1="1856.6" y1="1116.88" x2="1951.08" y2="1116.88" gradientUnits="userSpaceOnUse">
<stop offset="0.01"/>
<stop offset="0.13" stop-opacity="0.69"/>
<stop offset="1" stop-opacity="0"/>
</linearGradient>
<linearGradient id="paint15_linear" x1="1361.12" y1="1501.84" x2="1455.6" y2="1501.84" gradientUnits="userSpaceOnUse">
<stop offset="0.01"/>
<stop offset="0.13" stop-opacity="0.69"/>
<stop offset="1" stop-opacity="0"/>
</linearGradient>
<linearGradient id="paint16_linear" x1="2095.33" y1="1675.07" x2="2189.81" y2="1675.07" gradientUnits="userSpaceOnUse">
<stop offset="0.01"/>
<stop offset="0.13" stop-opacity="0.69"/>
<stop offset="1" stop-opacity="0"/>
</linearGradient>
<linearGradient id="paint17_linear" x1="2453.92" y1="1432.69" x2="2548.39" y2="1432.69" gradientUnits="userSpaceOnUse">
<stop offset="0.01"/>
<stop offset="0.13" stop-opacity="0.69"/>
<stop offset="1" stop-opacity="0"/>
</linearGradient>
<linearGradient id="paint18_linear" x1="1806" y1="2048.56" x2="1900.48" y2="2048.56" gradientUnits="userSpaceOnUse">
<stop offset="0.01"/>
<stop offset="0.13" stop-opacity="0.69"/>
<stop offset="1" stop-opacity="0"/>
</linearGradient>
<linearGradient id="paint19_linear" x1="1138.03" y1="1401.39" x2="1232.51" y2="1401.39" gradientUnits="userSpaceOnUse">
<stop offset="0.01"/>
<stop offset="0.13" stop-opacity="0.69"/>
<stop offset="1" stop-opacity="0"/>
</linearGradient>
<linearGradient id="paint20_linear" x1="108.08" y1="83.92" x2="132.83" y2="83.92" gradientUnits="userSpaceOnUse">
<stop offset="0.01" stop-color="white"/>
<stop offset="0.13" stop-color="white" stop-opacity="0.69"/>
<stop offset="1" stop-color="white" stop-opacity="0"/>
</linearGradient>
<linearGradient id="paint21_linear" x1="2429.54" y1="4066.38" x2="2503.7" y2="4066.38" gradientUnits="userSpaceOnUse">
<stop offset="0.01" stop-color="white"/>
<stop offset="0.13" stop-color="white" stop-opacity="0.69"/>
<stop offset="1" stop-color="white" stop-opacity="0"/>
</linearGradient>
<linearGradient id="paint22_linear" x1="3259.45" y1="3100.78" x2="4182.86" y2="3100.78" gradientUnits="userSpaceOnUse">
<stop offset="0.01" stop-color="white"/>
<stop offset="0.13" stop-color="white" stop-opacity="0.69"/>
<stop offset="1" stop-color="white" stop-opacity="0"/>
</linearGradient>
<linearGradient id="paint23_linear" x1="4595.09" y1="3103.19" x2="5184.44" y2="3103.19" gradientUnits="userSpaceOnUse">
<stop offset="0.01" stop-color="white"/>
<stop offset="0.13" stop-color="white" stop-opacity="0.69"/>
<stop offset="1" stop-color="white" stop-opacity="0"/>
</linearGradient>
<linearGradient id="paint24_linear" x1="5942.39" y1="1499.44" x2="6778.91" y2="1499.44" gradientUnits="userSpaceOnUse">
<stop offset="0.01" stop-color="white"/>
<stop offset="0.13" stop-color="white" stop-opacity="0.69"/>
<stop offset="1" stop-color="white" stop-opacity="0"/>
</linearGradient>
<linearGradient id="paint25_linear" x1="5353.95" y1="5787.28" x2="6589.56" y2="5787.28" gradientUnits="userSpaceOnUse">
<stop offset="0.01" stop-color="white"/>
<stop offset="0.13" stop-color="white" stop-opacity="0.69"/>
<stop offset="1" stop-color="white" stop-opacity="0"/>
</linearGradient>
<linearGradient id="paint26_linear" x1="3183.93" y1="4648.23" x2="4114.81" y2="4648.23" gradientUnits="userSpaceOnUse">
<stop offset="0.01" stop-color="white"/>
<stop offset="0.13" stop-color="white" stop-opacity="0.69"/>
<stop offset="1" stop-color="white" stop-opacity="0"/>
</linearGradient>
<linearGradient id="paint27_linear" x1="6350.17" y1="4186.51" x2="7411.04" y2="4186.51" gradientUnits="userSpaceOnUse">
<stop offset="0.01" stop-color="white"/>
<stop offset="0.13" stop-color="white" stop-opacity="0.69"/>
<stop offset="1" stop-color="white" stop-opacity="0"/>
</linearGradient>
<linearGradient id="paint28_linear" x1="15998" y1="23982.3" x2="51507.7" y2="23982.3" gradientUnits="userSpaceOnUse">
<stop offset="0.01"/>
<stop offset="0.13" stop-opacity="0.69"/>
<stop offset="1" stop-opacity="0"/>
</linearGradient>
<linearGradient id="paint29_linear" x1="15275.8" y1="23650.1" x2="50996.8" y2="23650.1" gradientUnits="userSpaceOnUse">
<stop offset="0.01"/>
<stop offset="0.13" stop-opacity="0.69"/>
<stop offset="1" stop-opacity="0"/>
</linearGradient>
<linearGradient id="paint30_linear" x1="33689.3" y1="22949" x2="34981.8" y2="16650.6" gradientUnits="userSpaceOnUse">
<stop offset="0.01"/>
<stop offset="0.13" stop-opacity="0.69"/>
<stop offset="1" stop-opacity="0"/>
</linearGradient>
<linearGradient id="paint31_linear" x1="33192.8" y1="23125.8" x2="34182.5" y2="17863.8" gradientUnits="userSpaceOnUse">
<stop offset="0.01"/>
<stop offset="0.13" stop-opacity="0.69"/>
<stop offset="1" stop-opacity="0"/>
</linearGradient>
<clipPath id="clip0">
<rect width="351.03" height="302.66" fill="white"/>
</clipPath>
</defs>
</svg>
