<svg width="512" height="512" viewBox="0 0 512 512" fill="none" xmlns="http://www.w3.org/2000/svg">
<path d="M442 392.5H442.5V392V72C442.5 58.6655 438.586 48.5169 431.268 41.707C423.955 34.9026 413.316 31.5 400 31.5H112C98.6841 31.5 88.9033 34.9033 82.4594 41.7298C76.0209 48.5506 73 58.6984 73 72V403V404.225L73.8573 403.35C78.9211 398.178 82.5646 395.496 86.8488 394.081C91.1564 392.658 96.1568 392.5 104 392.5H442ZM448.5 408V407.5H448H104C81.6679 407.5 63.5 425.668 63.5 448C63.5 470.332 81.6679 488.5 104 488.5H448H448.5V488V472V471.5H448H104C91.0441 471.5 80.5 460.956 80.5 448C80.5 435.044 91.0441 424.5 104 424.5H448H448.5V424V408ZM448.5 440V439.5H448H104C99.3075 439.5 95.5 443.316 95.5 448C95.5 452.684 99.3075 456.5 104 456.5H448H448.5V456V440ZM112 8.5H400C435.012 8.5 463.5 36.9881 463.5 72V496C463.5 498.115 462.757 501.034 461.469 503.418C460.163 505.837 458.415 507.5 456.5 507.5H104C73.4473 507.5 48.5 478.649 48.5 448V72C48.5 36.9881 76.9881 8.5 112 8.5Z" fill="white"/>
<path d="M442 392.5H442.5V392V72C442.5 58.6655 438.586 48.5169 431.268 41.707C423.955 34.9026 413.316 31.5 400 31.5H112C98.6841 31.5 88.9033 34.9033 82.4594 41.7298C76.0209 48.5506 73 58.6984 73 72V403V404.225L73.8573 403.35C78.9211 398.178 82.5646 395.496 86.8488 394.081C91.1564 392.658 96.1568 392.5 104 392.5H442ZM448.5 408V407.5H448H104C81.6679 407.5 63.5 425.668 63.5 448C63.5 470.332 81.6679 488.5 104 488.5H448H448.5V488V472V471.5H448H104C91.0441 471.5 80.5 460.956 80.5 448C80.5 435.044 91.0441 424.5 104 424.5H448H448.5V424V408ZM448.5 440V439.5H448H104C99.3075 439.5 95.5 443.316 95.5 448C95.5 452.684 99.3075 456.5 104 456.5H448H448.5V456V440ZM112 8.5H400C435.012 8.5 463.5 36.9881 463.5 72V496C463.5 498.115 462.757 501.034 461.469 503.418C460.163 505.837 458.415 507.5 456.5 507.5H104C73.4473 507.5 48.5 478.649 48.5 448V72C48.5 36.9881 76.9881 8.5 112 8.5Z" fill="url(#paint0_linear)"/>
<path d="M442 392.5H442.5V392V72C442.5 58.6655 438.586 48.5169 431.268 41.707C423.955 34.9026 413.316 31.5 400 31.5H112C98.6841 31.5 88.9033 34.9033 82.4594 41.7298C76.0209 48.5506 73 58.6984 73 72V403V404.225L73.8573 403.35C78.9211 398.178 82.5646 395.496 86.8488 394.081C91.1564 392.658 96.1568 392.5 104 392.5H442ZM448.5 408V407.5H448H104C81.6679 407.5 63.5 425.668 63.5 448C63.5 470.332 81.6679 488.5 104 488.5H448H448.5V488V472V471.5H448H104C91.0441 471.5 80.5 460.956 80.5 448C80.5 435.044 91.0441 424.5 104 424.5H448H448.5V424V408ZM448.5 440V439.5H448H104C99.3075 439.5 95.5 443.316 95.5 448C95.5 452.684 99.3075 456.5 104 456.5H448H448.5V456V440ZM112 8.5H400C435.012 8.5 463.5 36.9881 463.5 72V496C463.5 498.115 462.757 501.034 461.469 503.418C460.163 505.837 458.415 507.5 456.5 507.5H104C73.4473 507.5 48.5 478.649 48.5 448V72C48.5 36.9881 76.9881 8.5 112 8.5Z" stroke="white"/>
<path d="M168.5 215.56V215.112L168.055 215.063C132.353 211.099 104.5 180.742 104.5 144C104.5 104.58 136.572 72.5 176 72.5C182.313 72.5 188.502 73.3735 194.518 74.9869L194.879 75.0836L195.074 74.7655C207.66 54.2579 230.223 40.5 256 40.5C281.777 40.5 304.34 54.2579 316.926 74.7655L317.121 75.0836L317.481 74.9869C323.498 73.3735 329.686 72.5 336 72.5C375.428 72.5 407.5 104.58 407.5 144C407.5 180.742 379.647 211.099 343.945 215.063L343.5 215.112V215.56V320C343.5 324.14 340.148 327.5 336 327.5H176C171.852 327.5 168.5 324.14 168.5 320V215.56ZM183.5 312V312.5H184H328H328.5V312V296V295.5H328H184H183.5V296V312ZM188.21 89.4306L188.387 88.9007L187.841 88.7832C183.977 87.9523 180.022 87.5 176 87.5C144.81 87.5 123 112.887 123 144C123 175.113 144.81 200.5 176 200.5C180.148 200.5 183.5 203.86 183.5 208V280V280.5H184H328H328.5V280V208C328.5 203.86 331.852 200.5 336 200.5C367.148 200.5 392.5 175.156 392.5 144C392.5 112.844 367.148 87.5 336 87.5C331.978 87.5 328.023 87.9523 324.159 88.7832L323.613 88.9007L323.79 89.4306C326.115 96.3843 327.443 103.785 327.498 111.5H312.498C312.228 80.5731 286.981 55.5 256 55.5C225.019 55.5 199.772 80.5731 199.502 111.5H184.502C184.557 103.785 185.885 96.3843 188.21 89.4306Z" fill="white"/>
<path d="M168.5 215.56V215.112L168.055 215.063C132.353 211.099 104.5 180.742 104.5 144C104.5 104.58 136.572 72.5 176 72.5C182.313 72.5 188.502 73.3735 194.518 74.9869L194.879 75.0836L195.074 74.7655C207.66 54.2579 230.223 40.5 256 40.5C281.777 40.5 304.34 54.2579 316.926 74.7655L317.121 75.0836L317.481 74.9869C323.498 73.3735 329.686 72.5 336 72.5C375.428 72.5 407.5 104.58 407.5 144C407.5 180.742 379.647 211.099 343.945 215.063L343.5 215.112V215.56V320C343.5 324.14 340.148 327.5 336 327.5H176C171.852 327.5 168.5 324.14 168.5 320V215.56ZM183.5 312V312.5H184H328H328.5V312V296V295.5H328H184H183.5V296V312ZM188.21 89.4306L188.387 88.9007L187.841 88.7832C183.977 87.9523 180.022 87.5 176 87.5C144.81 87.5 123 112.887 123 144C123 175.113 144.81 200.5 176 200.5C180.148 200.5 183.5 203.86 183.5 208V280V280.5H184H328H328.5V280V208C328.5 203.86 331.852 200.5 336 200.5C367.148 200.5 392.5 175.156 392.5 144C392.5 112.844 367.148 87.5 336 87.5C331.978 87.5 328.023 87.9523 324.159 88.7832L323.613 88.9007L323.79 89.4306C326.115 96.3843 327.443 103.785 327.498 111.5H312.498C312.228 80.5731 286.981 55.5 256 55.5C225.019 55.5 199.772 80.5731 199.502 111.5H184.502C184.557 103.785 185.885 96.3843 188.21 89.4306Z" fill="url(#paint1_linear)"/>
<path d="M168.5 215.56V215.112L168.055 215.063C132.353 211.099 104.5 180.742 104.5 144C104.5 104.58 136.572 72.5 176 72.5C182.313 72.5 188.502 73.3735 194.518 74.9869L194.879 75.0836L195.074 74.7655C207.66 54.2579 230.223 40.5 256 40.5C281.777 40.5 304.34 54.2579 316.926 74.7655L317.121 75.0836L317.481 74.9869C323.498 73.3735 329.686 72.5 336 72.5C375.428 72.5 407.5 104.58 407.5 144C407.5 180.742 379.647 211.099 343.945 215.063L343.5 215.112V215.56V320C343.5 324.14 340.148 327.5 336 327.5H176C171.852 327.5 168.5 324.14 168.5 320V215.56ZM183.5 312V312.5H184H328H328.5V312V296V295.5H328H184H183.5V296V312ZM188.21 89.4306L188.387 88.9007L187.841 88.7832C183.977 87.9523 180.022 87.5 176 87.5C144.81 87.5 123 112.887 123 144C123 175.113 144.81 200.5 176 200.5C180.148 200.5 183.5 203.86 183.5 208V280V280.5H184H328H328.5V280V208C328.5 203.86 331.852 200.5 336 200.5C367.148 200.5 392.5 175.156 392.5 144C392.5 112.844 367.148 87.5 336 87.5C331.978 87.5 328.023 87.9523 324.159 88.7832L323.613 88.9007L323.79 89.4306C326.115 96.3843 327.443 103.785 327.498 111.5H312.498C312.228 80.5731 286.981 55.5 256 55.5C225.019 55.5 199.772 80.5731 199.502 111.5H184.502C184.557 103.785 185.885 96.3843 188.21 89.4306Z" stroke="white"/>
<path d="M360.495 144.5H375.497C375.23 165.884 357.884 183.23 336.5 183.497V168.495C349.612 168.231 360.231 157.612 360.495 144.5Z" fill="white"/>
<path d="M360.495 144.5H375.497C375.23 165.884 357.884 183.23 336.5 183.497V168.495C349.612 168.231 360.231 157.612 360.495 144.5Z" fill="url(#paint2_linear)"/>
<path d="M360.495 144.5H375.497C375.23 165.884 357.884 183.23 336.5 183.497V168.495C349.612 168.231 360.231 157.612 360.495 144.5Z" stroke="white"/>
<path d="M152.5 344.5H359.5V359.5H152.5V344.5Z" fill="white"/>
<path d="M152.5 344.5H359.5V359.5H152.5V344.5Z" fill="url(#paint3_linear)"/>
<path d="M152.5 344.5H359.5V359.5H152.5V344.5Z" stroke="white"/>
<defs>
<linearGradient id="paint0_linear" x1="256" y1="8" x2="256" y2="504" gradientUnits="userSpaceOnUse">
<stop stop-color="white"/>
<stop offset="1" stop-color="white" stop-opacity="0"/>
</linearGradient>
<linearGradient id="paint1_linear" x1="256" y1="40" x2="256" y2="328" gradientUnits="userSpaceOnUse">
<stop stop-color="white"/>
<stop offset="1" stop-color="white" stop-opacity="0"/>
</linearGradient>
<linearGradient id="paint2_linear" x1="356" y1="144" x2="356" y2="184" gradientUnits="userSpaceOnUse">
<stop stop-color="white"/>
<stop offset="1" stop-color="white" stop-opacity="0"/>
</linearGradient>
<linearGradient id="paint3_linear" x1="256" y1="344" x2="256" y2="360" gradientUnits="userSpaceOnUse">
<stop stop-color="white"/>
<stop offset="1" stop-color="white" stop-opacity="0"/>
</linearGradient>
</defs>
</svg>
