<svg width="152" height="689" viewBox="0 0 152 689" fill="none" xmlns="http://www.w3.org/2000/svg">
<path d="M75.77 417.52C117.34 417.52 151.03 384.97 151.03 344.82C151.03 304.67 117.33 272.12 75.77 272.12" fill="white"/>
<path d="M75.77 417.52C77.79 417.52 79.79 417.44 81.77 417.29" stroke="black" stroke-miterlimit="10"/>
<path d="M93.23 415.55C126.38 407.94 151.03 379.16 151.03 344.82C151.03 308.53 123.5 278.45 87.51 273" stroke="black" stroke-miterlimit="10" stroke-dasharray="11.6 11.6"/>
<path d="M81.77 272.35C79.79 272.2 77.79 272.12 75.77 272.12" stroke="black" stroke-miterlimit="10"/>
<path d="M75.77 64.6799C34.2 64.6799 0.51 97.2299 0.51 137.38C0.51 177.53 34.21 210.08 75.77 210.08" fill="white"/>
<path d="M75.77 64.6799C73.75 64.6799 71.75 64.7599 69.77 64.9099" stroke="black" stroke-miterlimit="10"/>
<path d="M58.31 66.6399C25.16 74.2499 0.51 103.03 0.51 137.37C0.51 173.66 28.04 203.74 64.03 209.19" stroke="black" stroke-miterlimit="10" stroke-dasharray="11.6 11.6"/>
<path d="M69.77 209.84C71.75 209.99 73.75 210.07 75.77 210.07" stroke="black" stroke-miterlimit="10"/>
<path d="M75.76 479.87C34.19 479.87 0.5 512.42 0.5 552.57C0.5 592.72 34.2 625.27 75.76 625.27" fill="white"/>
<path d="M75.76 479.87C73.74 479.87 71.74 479.95 69.76 480.1" stroke="black" stroke-miterlimit="10"/>
<path d="M58.3 481.83C25.15 489.44 0.5 518.22 0.5 552.56C0.5 588.85 28.03 618.93 64.02 624.38" stroke="black" stroke-miterlimit="10" stroke-dasharray="11.6 11.6"/>
<path d="M69.76 625.03C71.74 625.18 73.74 625.26 75.76 625.26" stroke="black" stroke-miterlimit="10"/>
<g filter="url(#filter0_d)">
<path d="M75.45 612.8C108.808 612.8 135.85 585.758 135.85 552.4C135.85 519.042 108.808 492 75.45 492C42.092 492 15.05 519.042 15.05 552.4C15.05 585.758 42.092 612.8 75.45 612.8Z" fill="white"/>
</g>
<g filter="url(#filter1_d)">
<path d="M75.45 197.8C108.808 197.8 135.85 170.758 135.85 137.4C135.85 104.042 108.808 77 75.45 77C42.092 77 15.05 104.042 15.05 137.4C15.05 170.758 42.092 197.8 75.45 197.8Z" fill="white"/>
</g>
<g filter="url(#filter2_d)">
<path d="M75.45 404.8C108.808 404.8 135.85 377.758 135.85 344.4C135.85 311.042 108.808 284 75.45 284C42.092 284 15.05 311.042 15.05 344.4C15.05 377.758 42.092 404.8 75.45 404.8Z" fill="white"/>
</g>
<path d="M75.76 688.63V682.63" stroke="black" stroke-miterlimit="10"/>
<path d="M75.76 672.33V636.28" stroke="black" stroke-miterlimit="10" stroke-dasharray="10.3 10.3"/>
<path d="M75.76 631.13V625.13" stroke="black" stroke-miterlimit="10"/>
<path d="M75.21 272.22V266.22" stroke="black" stroke-miterlimit="10"/>
<path d="M75.21 255.92V219.86" stroke="black" stroke-miterlimit="10" stroke-dasharray="10.3 10.3"/>
<path d="M75.21 214.71V208.71" stroke="black" stroke-miterlimit="10"/>
<path d="M75.84 480.3V474.3" stroke="black" stroke-miterlimit="10"/>
<path d="M75.84 464V427.94" stroke="black" stroke-miterlimit="10" stroke-dasharray="10.3 10.3"/>
<path d="M75.84 422.79V416.79" stroke="black" stroke-miterlimit="10"/>
<path d="M75.21 63.51V57.51" stroke="black" stroke-miterlimit="10"/>
<path d="M75.21 47.1999V11.1499" stroke="black" stroke-miterlimit="10" stroke-dasharray="10.3 10.3"/>
<path d="M75.21 6V0" stroke="black" stroke-miterlimit="10"/>
<path d="M40.39 166.85L39.62 163.83C38.26 163.25 36.87 162.76 35.46 162.34L35.36 163.74L34.97 162.19C33.22 161.69 32.02 161.47 32.02 161.47C32.02 161.47 33.63 167.6 37.01 172.29L40.95 172.98L37.89 173.42C38.32 173.93 38.77 174.42 39.26 174.87C44.18 179.44 49.66 181.53 51.5 179.55C53.34 177.57 50.84 172.26 45.92 167.69C44.39 166.27 42.48 165.14 40.56 164.24L40.39 166.85Z" fill="#F2F2F2"/>
<path d="M47.68 163.57L48.59 160.59C47.72 159.39 46.79 158.25 45.8 157.16L44.99 158.31L45.45 156.78C44.21 155.44 43.3 154.64 43.3 154.64C43.3 154.64 41.51 160.72 41.98 166.48L45 169.11L42.15 167.91C42.25 168.57 42.39 169.22 42.57 169.86C44.42 176.31 48.03 180.94 50.63 180.19C53.23 179.44 53.84 173.61 51.99 167.16C51.42 165.16 50.36 163.2 49.18 161.44L47.68 163.57Z" fill="#F2F2F2"/>
<path d="M92.74 114.01H92.26V100.92C92.26 96.7301 88.87 93.3401 84.68 93.3401H56.94C52.75 93.3401 49.36 96.7301 49.36 100.92V172.76C49.36 176.95 52.75 180.34 56.94 180.34H84.68C88.87 180.34 92.26 176.95 92.26 172.76V123.34H92.74V114.01Z" fill="#E6E6E6"/>
<path d="M84.99 95.3101H81.37C81.93 96.6901 81.27 98.2501 79.9 98.8201C79.58 98.9501 79.23 99.0201 78.88 99.0201H62.98C61.49 99.0201 60.29 97.8201 60.29 96.3301C60.29 95.9801 60.36 95.6401 60.49 95.3101H57.11C53.98 95.3101 51.45 97.8401 51.45 100.97V172.7C51.45 175.83 53.98 178.36 57.11 178.36H84.99C88.12 178.36 90.65 175.83 90.65 172.7V100.97C90.65 97.8401 88.11 95.3101 84.99 95.3101Z" fill="white"/>
<path d="M67.5 123.88C67.5 122.86 68.04 121.92 68.93 121.41C67.56 120.62 65.82 121.09 65.03 122.45C64.24 123.82 64.71 125.56 66.07 126.35C66.95 126.86 68.04 126.86 68.93 126.35C68.04 125.85 67.5 124.9 67.5 123.88Z" fill="#CCCCCC"/>
<path d="M71.09 123.88C71.09 122.86 71.63 121.92 72.52 121.41C71.15 120.62 69.41 121.09 68.62 122.45C67.83 123.82 68.3 125.56 69.66 126.35C70.54 126.86 71.63 126.86 72.52 126.35C71.63 125.85 71.09 124.9 71.09 123.88Z" fill="#CCCCCC"/>
<path d="M74.6 126.74C76.1795 126.74 77.46 125.46 77.46 123.88C77.46 122.3 76.1795 121.02 74.6 121.02C73.0205 121.02 71.74 122.3 71.74 123.88C71.74 125.46 73.0205 126.74 74.6 126.74Z" fill="#00BFA6"/>
<path d="M79.37 132.8H62.72C62.39 132.8 62.12 132.53 62.12 132.2V115.55C62.12 115.22 62.39 114.95 62.72 114.95H79.37C79.7 114.95 79.97 115.22 79.97 115.55V132.2C79.97 132.53 79.7 132.8 79.37 132.8ZM62.72 115.2C62.52 115.2 62.36 115.36 62.36 115.56V132.21C62.36 132.41 62.52 132.57 62.72 132.57H79.37C79.57 132.57 79.73 132.41 79.73 132.21V115.56C79.73 115.36 79.57 115.2 79.37 115.2H62.72Z" fill="#CCCCCC"/>
<path d="M83.09 145.56H57.56V145.8H83.09V145.56Z" fill="#CCCCCC"/>
<path d="M58.36 144.07C58.8074 144.07 59.17 143.708 59.17 143.26C59.17 142.813 58.8074 142.45 58.36 142.45C57.9126 142.45 57.55 142.813 57.55 143.26C57.55 143.708 57.9126 144.07 58.36 144.07Z" fill="#00BFA6"/>
<path d="M83.09 153.62H57.56V153.86H83.09V153.62Z" fill="#CCCCCC"/>
<path d="M58.36 152.14C58.8074 152.14 59.17 151.777 59.17 151.33C59.17 150.883 58.8074 150.52 58.36 150.52C57.9126 150.52 57.55 150.883 57.55 151.33C57.55 151.777 57.9126 152.14 58.36 152.14Z" fill="#00BFA6"/>
<path d="M82.62 162.8H74.55C74.26 162.8 74.02 162.56 74.02 162.27V159.44C74.02 159.15 74.26 158.91 74.55 158.91H82.62C82.91 158.91 83.15 159.15 83.15 159.44V162.27C83.14 162.57 82.91 162.8 82.62 162.8Z" fill="#00BFA6"/>
<path d="M60.99 144.07C61.4374 144.07 61.8 143.708 61.8 143.26C61.8 142.813 61.4374 142.45 60.99 142.45C60.5427 142.45 60.18 142.813 60.18 143.26C60.18 143.708 60.5427 144.07 60.99 144.07Z" fill="#00BFA6"/>
<path d="M63.62 144.07C64.0673 144.07 64.43 143.708 64.43 143.26C64.43 142.813 64.0673 142.45 63.62 142.45C63.1726 142.45 62.81 142.813 62.81 143.26C62.81 143.708 63.1726 144.07 63.62 144.07Z" fill="#00BFA6"/>
<path d="M60.99 152.14C61.4374 152.14 61.8 151.777 61.8 151.33C61.8 150.883 61.4374 150.52 60.99 150.52C60.5427 150.52 60.18 150.883 60.18 151.33C60.18 151.777 60.5427 152.14 60.99 152.14Z" fill="#00BFA6"/>
<path d="M63.62 152.14C64.0673 152.14 64.43 151.777 64.43 151.33C64.43 150.883 64.0673 150.52 63.62 150.52C63.1726 150.52 62.81 150.883 62.81 151.33C62.81 151.777 63.1726 152.14 63.62 152.14Z" fill="#00BFA6"/>
<path d="M118.71 180.6H34.84C34.66 180.6 34.52 180.54 34.52 180.46C34.52 180.38 34.67 180.32 34.84 180.32H118.71C118.89 180.32 119.03 180.38 119.03 180.46C119.03 180.54 118.89 180.6 118.71 180.6Z" fill="#3F3D56"/>
<path d="M97.99 150.51C98.05 150.54 98.1 150.57 98.15 150.6L103.39 148.36L103.58 146.98L105.67 146.97L105.55 150.14L98.63 151.97C98.62 152.02 98.6 152.07 98.58 152.11C98.3 152.71 97.59 152.97 96.99 152.69C96.39 152.41 96.13 151.7 96.41 151.1C96.69 150.5 97.39 150.24 97.99 150.51Z" fill="#FFB8B8"/>
<path d="M106.43 179.19H105L104.32 173.67H106.43V179.19Z" fill="#FFB8B8"/>
<path d="M103.98 178.79H106.74V180.53H102.24C102.24 179.56 103.02 178.79 103.98 178.79Z" fill="#2F2E41"/>
<path d="M112 178.79L110.58 178.93L109.36 173.5L111.46 173.29L112 178.79Z" fill="#FFB8B8"/>
<path d="M109.52 178.62L112.27 178.35L112.44 180.08L107.96 180.52C107.86 179.57 108.56 178.72 109.52 178.62Z" fill="#2F2E41"/>
<path d="M106.83 141.13C108.415 141.13 109.7 139.845 109.7 138.26C109.7 136.675 108.415 135.39 106.83 135.39C105.245 135.39 103.96 136.675 103.96 138.26C103.96 139.845 105.245 141.13 106.83 141.13Z" fill="#FFB8B8"/>
<path d="M104.68 178.08C104.43 178.08 104.21 177.9 104.16 177.65C103.42 173.54 101 160.08 100.94 159.71C100.94 159.7 100.94 159.69 100.94 159.68V158.68C100.94 158.64 100.95 158.61 100.97 158.58L101.29 158.13C101.32 158.09 101.37 158.06 101.42 158.06C103.24 157.97 109.22 157.72 109.51 158.08C109.8 158.44 109.7 159.54 109.67 159.76V159.78L112.35 176.95C112.39 177.23 112.2 177.5 111.92 177.55L110.24 177.83C109.98 177.87 109.73 177.72 109.65 177.47C109.13 175.81 107.39 170.24 106.79 168.08C106.78 168.05 106.75 168.03 106.72 168.04C106.69 168.05 106.68 168.07 106.68 168.1C106.71 170.16 106.78 175.4 106.81 177.22V177.42C106.81 177.69 106.6 177.92 106.33 177.95L104.71 178.1C104.71 178.08 104.7 178.08 104.68 178.08Z" fill="#2F2E41"/>
<path d="M105.01 142.26C104.51 142.56 104.21 143.1 104.04 143.66C103.72 144.69 103.53 145.76 103.47 146.83L103.29 150.05L101.04 158.6C102.99 160.25 104.11 159.87 106.74 158.53C109.36 157.18 109.66 158.98 109.66 158.98L110.18 151.71L110.93 143.76C110.76 143.56 110.57 143.37 110.36 143.21C108.96 142.12 107.13 141.73 105.4 142.16L105.01 142.26Z" fill="#00BFA6"/>
<path d="M104.28 152.24C104.34 152.26 104.4 152.29 104.46 152.32L109.64 149.73L109.73 148.33L111.87 148.18L111.98 151.38L105.06 153.67C104.91 154.33 104.25 154.74 103.59 154.59C102.93 154.44 102.52 153.78 102.67 153.12C102.82 152.46 103.48 152.05 104.14 152.2C104.18 152.2 104.23 152.22 104.28 152.24Z" fill="#FFB8B8"/>
<path d="M110.89 143.79C112.16 144.24 112.39 149.11 112.39 149.11C110.89 148.29 109.09 149.63 109.09 149.63C109.09 149.63 108.72 148.36 108.27 146.71C107.99 145.77 108.22 144.75 108.87 144.01C108.87 144.02 109.62 143.34 110.89 143.79Z" fill="#00BFA6"/>
<path d="M109.4 139.02C109.04 138.73 108.55 139.25 108.55 139.25L108.26 136.68C108.26 136.68 106.47 136.89 105.33 136.61C104.19 136.32 104.01 137.65 104.01 137.65C103.95 137.12 103.94 136.58 103.97 136.04C104.04 135.4 104.97 134.75 106.62 134.32C108.26 133.89 109.12 135.75 109.12 135.75C110.27 136.32 109.76 139.3 109.4 139.02Z" fill="#2F2E41"/>
<path opacity="0.24" d="M125.01 371.18C119.3 376.58 111.37 379.51 103.7 380.43C92.86 381.73 81.9 379.89 71 380.46C64.2 380.82 57.44 382.11 50.63 382.29C43.82 382.47 36.74 381.42 30.96 377.5C28.76 375.99 26.82 374.15 25.19 372.04C25.75 371.9 26.31 371.79 26.88 371.72C38.31 370.17 49.88 369.99 61.42 369.81L92.91 369.31C96.4 369.25 99.91 369.2 103.38 369.54C107.83 369.97 112.2 371.03 116.65 371.43C119.47 371.66 122.23 371.25 125.01 371.18Z" fill="#6DD5BE"/>
<path d="M105.17 371.84C83.88 370.66 62.54 370.64 41.25 371.78C37.65 371.97 33.99 372.21 30.63 373.51C32.28 375.02 34.73 375.14 36.97 375.17C53.34 375.43 69.72 375.51 86.1 375.39C87.06 375.39 88.39 374.96 88.2 374.02C88.14 373.74 87.93 373.48 87.95 373.2C87.98 372.67 88.65 372.48 89.19 372.46C90.61 372.39 92.04 372.46 93.44 372.69C93.95 372.77 94.49 372.9 94.83 373.29C95.09 373.6 95.18 374.01 95.37 374.36C96 375.51 97.58 375.76 98.87 375.51C100.17 375.26 101.38 374.64 102.69 374.58C103.85 374.52 104.98 374.89 106.11 375.16C109.8 376.01 113.65 375.7 117.43 375.38C121.35 375.05 121.43 372.34 117.52 372.13C113.42 371.9 109.28 372.07 105.17 371.84Z" fill="url(#paint0_linear)"/>
<path d="M119.75 343.78L117.98 334.13H120.41C120.41 334.13 120.97 341.85 121.23 343.94L119.75 343.78Z" fill="#F5C7C8"/>
<path d="M121.11 343.25C121.11 343.25 121.45 344.75 121.25 345.59C121.05 346.43 120.22 347.41 119.75 347.46C119.28 347.51 118.99 347.29 119.03 346.97C119.07 346.65 120.27 345.51 120.08 345.15C119.89 344.79 119.42 345.89 119.26 345.62C119.1 345.35 119.17 344.94 119.58 344.42C119.99 343.9 119.58 343.17 119.58 343.17C119.58 343.17 120.82 342.63 121.11 343.25Z" fill="#F5C7C8"/>
<path d="M116.38 314.13C116.89 313.76 117.91 313.88 118.42 314.09C119.16 314.39 119.73 315.03 119.94 315.8C120.03 316.16 120.06 316.53 120.02 316.9C119.95 317.71 119.6 318.53 118.94 319.01C117.56 320.02 116.71 319.08 116.31 317.83C116.05 317.12 115.97 316.36 116.07 315.61C116.14 315.04 115.88 314.6 116.32 314.19L116.38 314.13Z" fill="#606161"/>
<path d="M116.38 314.13C116.89 313.76 117.91 313.88 118.42 314.09C119.16 314.39 119.73 315.03 119.94 315.8C120.03 316.16 120.06 316.53 120.02 316.9C119.95 317.71 119.6 318.53 118.94 319.01C117.56 320.02 116.71 319.08 116.31 317.83C116.05 317.12 115.97 316.36 116.07 315.61C116.14 315.04 115.88 314.6 116.32 314.19L116.38 314.13Z" fill="url(#paint1_linear)"/>
<path d="M113.49 321.2C115.6 321.2 117.31 319.069 117.31 316.44C117.31 313.811 115.6 311.68 113.49 311.68C111.38 311.68 109.67 313.811 109.67 316.44C109.67 319.069 111.38 321.2 113.49 321.2Z" fill="#606161"/>
<path d="M101.38 329.58C101.38 329.58 100.68 328.34 100.38 328.16C100.08 327.98 99.54 327.47 99.38 327.58C99.1 327.79 100.31 328.87 99.23 328.79C99.06 328.78 98.19 328.79 97.77 329.18C97.45 329.49 97.43 330 97.74 330.32C97.76 330.34 97.78 330.36 97.81 330.38C98.09 330.57 99.07 330.66 99.6 330.65C100.13 330.63 100.75 330.71 101.1 330.93" fill="#F5C7C8"/>
<path d="M108.86 324.33C108.86 324.33 108.36 325.9 108.31 326.76C108.26 327.61 107.86 331.19 107.73 331.36C107.6 331.54 101.18 329.35 101.18 329.35C101.18 329.35 100.79 329.9 101.1 330.92C101.1 330.92 105.86 335.23 108.75 335.4C111.63 335.57 111.26 328.74 111.26 328.74" fill="#F5C7C8"/>
<path d="M114.5 369.28L113.97 370.48C114.28 370.37 115.78 371.58 116.46 371.58C116.9 371.56 117.33 371.41 117.68 371.13L117.26 368.96L116.5 358.21L112.43 358.8L114.5 369.28Z" fill="#F5C7C8"/>
<path d="M106.66 369.19L105.88 369.92C106.21 369.9 107.36 371.44 108.02 371.61C108.46 371.7 108.91 371.66 109.32 371.48L109.45 369.27L110.27 359.32L106.26 359.71L106.66 369.19Z" fill="#F5C7C8"/>
<path d="M114.99 319.62L115.15 323.08C114.78 323.62 114.15 323.91 113.5 323.85C111.83 323.66 111.9 323.17 111.9 323.17C111.9 323.17 111.9 320.67 111.83 320.11" fill="#F5C7C8"/>
<path d="M114.59 320.74L114.98 320.04L111.84 320.39C111.86 320.6 111.88 321.1 111.89 321.63C112.88 321.93 113.96 321.57 114.59 320.74Z" fill="#DBB4AF"/>
<path d="M117.46 344.66C117.46 344.66 117.96 354.18 118.63 361.88C118.63 361.88 109.43 363.21 105.67 361.73C105.67 361.73 106.48 346.38 106.65 344.18L117.46 344.66Z" fill="#606161"/>
<path d="M117.46 344.66C117.46 344.66 117.96 354.18 118.63 361.88C118.63 361.88 109.43 363.21 105.67 361.73C105.67 361.73 106.48 346.38 106.65 344.18L117.46 344.66Z" fill="url(#paint2_linear)"/>
<path d="M117.46 324.13C117.46 324.13 117.44 323.45 115.09 323.43C113.37 323.41 112.77 323.27 111.55 323.51C109.32 323.93 109.08 324.07 108.74 324.36C107.93 325.05 106.57 343.74 106.57 343.74C106.57 343.74 105.2 345.98 112.28 346.7C114.9 346.97 117.43 345.15 117.43 345.15L117.46 324.13Z" fill="#6DD5BE"/>
<path d="M116.29 314.02C116.29 314.02 116.15 318.45 114.86 319.97C113.5 321.57 112.73 321.77 111.08 321.11C109.68 320.55 109.51 316.72 109.46 315.61C109.34 312.74 113.74 310.27 116.29 314.02Z" fill="#F5C7C8"/>
<path d="M117.31 327.17L117.42 345.14L115.79 346.08L115.5 330.2L117.31 327.17Z" fill="url(#paint3_linear)"/>
<path d="M115.94 322.66L115.97 323.47C115.97 323.6 115.9 323.72 115.78 323.78C115.78 323.78 114.51 324.21 112.31 324.33L110.69 323.92C110.57 323.87 110.49 323.76 110.48 323.63L110.46 323.23C110.45 323.05 110.58 322.89 110.76 322.87L115.54 322.33C115.73 322.3 115.9 322.44 115.92 322.62C115.94 322.63 115.94 322.65 115.94 322.66Z" fill="#6DD5BE"/>
<path d="M115.94 322.66L115.97 323.47C115.97 323.6 115.9 323.72 115.78 323.78C115.78 323.78 114.51 324.21 112.31 324.33L110.69 323.92C110.57 323.87 110.49 323.76 110.48 323.63L110.46 323.23C110.45 323.05 110.58 322.89 110.76 322.87L115.54 322.33C115.73 322.3 115.9 322.44 115.92 322.62C115.94 322.63 115.94 322.65 115.94 322.66Z" fill="url(#paint4_linear)"/>
<path d="M115.78 316.83C115.78 316.83 115.85 316.16 116.51 316.45C117.17 316.74 116.55 317.89 116.29 318.22C116.03 318.54 115.54 318.44 115.54 318.44" fill="#F5C7C8"/>
<path d="M116.82 313.75L117.08 314.8H116.65L116.29 313.2L116.82 313.75Z" fill="#4EAE93"/>
<path d="M117.37 323.95C117.37 323.95 118.34 324.86 120.12 329.14C120.85 330.89 121.46 334.14 121.46 334.14C121.46 334.14 118.97 335.42 117.51 335.42C116.85 331.62 115.28 330.14 114.99 328.39C114.69 326.63 116.48 323.61 117.37 323.95Z" fill="#6DD5BE"/>
<path d="M104.66 370.13C103.94 370.33 103.31 370.76 102.85 371.35C102.67 371.58 102.56 371.86 102.53 372.16C102.51 372.46 102.65 372.75 102.91 372.9C103.08 372.98 103.27 373.01 103.46 373.01C105.22 373.08 106.99 373.05 108.74 372.92C108.89 372.93 109.04 372.87 109.14 372.76C109.19 372.67 109.2 372.56 109.19 372.46L109.14 371.36C109.15 371.24 109.12 371.11 109.05 371.01C108.85 370.77 108.47 370.97 108.17 370.95C107.55 370.92 107.39 370.15 106.89 369.94C106.3 369.69 105.25 369.95 104.66 370.13Z" fill="#6DD5BE"/>
<path d="M113.25 370.07C112.53 370.27 111.9 370.7 111.44 371.29C111.26 371.52 111.15 371.8 111.12 372.1C111.1 372.4 111.24 372.68 111.5 372.84C111.67 372.92 111.86 372.96 112.05 372.95C113.81 373.02 115.58 372.99 117.33 372.86C117.53 372.91 117.73 372.78 117.78 372.58C117.79 372.52 117.79 372.46 117.78 372.4L117.73 371.29C117.74 371.17 117.71 371.04 117.64 370.94C117.44 370.7 117.06 370.9 116.75 370.88C116.13 370.85 115.98 370.08 115.47 369.86C114.88 369.62 113.82 369.89 113.25 370.07Z" fill="#6DD5BE"/>
<path d="M104.66 370.13C103.94 370.33 103.31 370.76 102.85 371.35C102.67 371.58 102.56 371.86 102.53 372.16C102.51 372.46 102.65 372.75 102.91 372.9C103.08 372.98 103.27 373.01 103.46 373.01C105.22 373.08 106.99 373.05 108.74 372.92C108.89 372.93 109.04 372.87 109.14 372.76C109.19 372.67 109.2 372.56 109.19 372.46L109.14 371.36C109.15 371.24 109.12 371.11 109.05 371.01C108.85 370.77 108.47 370.97 108.17 370.95C107.55 370.92 107.39 370.15 106.89 369.94C106.3 369.69 105.25 369.95 104.66 370.13Z" fill="url(#paint5_linear)"/>
<path d="M113.25 370.07C112.53 370.27 111.9 370.7 111.44 371.29C111.26 371.52 111.15 371.8 111.12 372.1C111.1 372.4 111.24 372.68 111.5 372.84C111.67 372.92 111.86 372.96 112.05 372.95C113.81 373.02 115.58 372.99 117.33 372.86C117.53 372.91 117.73 372.78 117.78 372.58C117.79 372.52 117.79 372.46 117.78 372.4L117.73 371.29C117.74 371.17 117.71 371.04 117.64 370.94C117.44 370.7 117.06 370.9 116.75 370.88C116.13 370.85 115.98 370.08 115.47 369.86C114.88 369.62 113.82 369.89 113.25 370.07Z" fill="url(#paint6_linear)"/>
<path d="M109.56 312.99C109.49 313.11 109.43 313.24 109.36 313.38C109.19 313.74 109.1 314.14 109.12 314.53C109.12 314.69 109.44 315.48 109.41 315.55C109.83 314.7 110.46 313.97 111.24 313.43C111.53 314.09 112.24 314.45 112.89 314.76C113.54 315.07 114.25 315.45 114.5 316.13C114.68 316.6 114.61 317.16 114.91 317.55C115.66 317.45 115.82 316.24 116.56 316.11C116.69 316.09 116.83 316.11 116.97 316.07C117.31 315.97 117.55 315.66 117.56 315.3C117.68 313.74 115.78 312.29 114.52 311.77C113.34 311.27 112 311.27 110.82 311.77C110.28 312.02 109.83 312.45 109.56 312.99Z" fill="#606161"/>
<path d="M109.56 312.99C109.49 313.11 109.43 313.24 109.36 313.38C109.19 313.74 109.1 314.14 109.12 314.53C109.12 314.69 109.44 315.48 109.41 315.55C109.83 314.7 110.46 313.97 111.24 313.43C111.53 314.09 112.24 314.45 112.89 314.76C113.54 315.07 114.25 315.45 114.5 316.13C114.68 316.6 114.61 317.16 114.91 317.55C115.66 317.45 115.82 316.24 116.56 316.11C116.69 316.09 116.83 316.11 116.97 316.07C117.31 315.97 117.55 315.66 117.56 315.3C117.68 313.74 115.78 312.29 114.52 311.77C113.34 311.27 112 311.27 110.82 311.77C110.28 312.02 109.83 312.45 109.56 312.99Z" fill="url(#paint7_linear)"/>
<path d="M39 305.63H76.9C78.72 305.63 80.19 307.1 80.19 308.92V370.33C80.19 372.15 78.72 373.62 76.9 373.62H39C37.18 373.62 35.71 372.15 35.71 370.33V308.92C35.7 307.1 37.18 305.63 39 305.63Z" fill="#6DD5BE"/>
<path d="M40.26 305.63H78.16C79.98 305.63 81.45 307.1 81.45 308.92V370.33C81.45 372.15 79.98 373.62 78.16 373.62H40.26C38.44 373.62 36.97 372.15 36.97 370.33V308.92C36.96 307.1 38.44 305.63 40.26 305.63Z" fill="#6DD5BE"/>
<path d="M40.26 305.63H78.16C79.98 305.63 81.45 307.1 81.45 308.92V370.33C81.45 372.15 79.98 373.62 78.16 373.62H40.26C38.44 373.62 36.97 372.15 36.97 370.33V308.92C36.96 307.1 38.44 305.63 40.26 305.63Z" fill="url(#paint8_linear)"/>
<path d="M40.36 344.74L41.52 308.93L75.19 309.64C75.19 309.64 70.79 346.81 73.9 356.41C77.01 366 77.53 369.6 77.53 369.6L41.14 370.63L40.36 344.74Z" fill="url(#paint9_linear)"/>
<path d="M83.59 366.43L46.78 366.82C46.78 366.82 43 344.83 42.34 337.46C41.69 330.36 41.55 308.93 41.55 308.93H76.7C76.7 308.93 76.79 329.7 77.41 336.58C78.09 344.17 83.59 366.43 83.59 366.43Z" fill="white"/>
<path d="M100.02 308.54L97.52 302.85L97.31 302.37C97.3 302.35 97.29 302.34 97.27 302.33C97.23 302.29 97.15 302.28 97.11 302.33C97.1 302.34 97.09 302.35 97.08 302.37L94.37 308.54C94.31 308.67 94.29 308.81 94.29 308.95V368.5H100.1V308.95C100.1 308.81 100.07 308.67 100.02 308.54ZM100.05 368.47H94.32V367.21H100.05V368.47Z" fill="#6DD5BE"/>
<path d="M101.18 309.99V368.24H97.62V309.98C97.62 309.84 97.63 309.7 97.67 309.57L99.33 303.4C99.33 303.39 99.33 303.37 99.34 303.36C99.38 303.3 99.44 303.32 99.46 303.4L99.59 303.88L101.12 309.57C101.16 309.71 101.18 309.85 101.18 309.99Z" fill="url(#paint10_linear)"/>
<path d="M95.54 368.47H99.1V372.76C99.1 373.32 98.82 373.78 98.47 373.78H96.16C95.81 373.78 95.54 373.32 95.54 372.76V368.47Z" fill="url(#paint11_linear)"/>
<path d="M100.1 308.95C98.27 309.84 96.12 309.84 94.29 308.95L96 305.21L97.3 302.38L98.42 305.01L100.1 308.95Z" fill="url(#paint12_linear)"/>
<path d="M98.42 305C97.67 305.35 96.81 305.43 96.01 305.21L97.31 302.38L98.42 305Z" fill="#6DD5BE"/>
<path d="M98.42 305C97.6 305.41 96.56 305.34 95.87 305.18L97.17 302.13L98.42 305Z" fill="url(#paint13_linear)"/>
<path d="M45.55 316.18H62.9C63.22 316.18 63.48 316.44 63.48 316.76C63.48 317.08 63.22 317.34 62.9 317.34H45.55C45.23 317.34 44.97 317.08 44.97 316.76C44.96 316.44 45.22 316.18 45.55 316.18Z" fill="#6DD5BE"/>
<path d="M45.55 318.19H62.9C63.22 318.19 63.48 318.45 63.48 318.77C63.48 319.09 63.22 319.35 62.9 319.35H45.55C45.23 319.35 44.97 319.09 44.97 318.77C44.96 318.45 45.22 318.19 45.55 318.19Z" fill="#6DD5BE"/>
<path d="M45.55 320.2H62.9C63.22 320.2 63.48 320.46 63.48 320.78C63.48 321.1 63.22 321.36 62.9 321.36H45.55C45.23 321.36 44.97 321.1 44.97 320.78C44.96 320.46 45.22 320.2 45.55 320.2Z" fill="#6DD5BE"/>
<path d="M51.5 322.21H63C63.26 322.21 63.48 322.42 63.48 322.69V322.9C63.48 323.16 63.27 323.38 63 323.38H51.5C51.24 323.38 51.02 323.17 51.02 322.9V322.69C51.02 322.42 51.24 322.21 51.5 322.21Z" fill="#6DD5BE"/>
<path d="M45.74 328.91H63.09C63.41 328.91 63.67 329.17 63.67 329.49C63.67 329.81 63.41 330.07 63.09 330.07H45.74C45.42 330.07 45.16 329.81 45.16 329.49C45.16 329.17 45.42 328.91 45.74 328.91Z" fill="#6DD5BE"/>
<path d="M45.74 330.91H63.09C63.41 330.91 63.67 331.17 63.67 331.49C63.67 331.81 63.41 332.07 63.09 332.07H45.74C45.42 332.07 45.16 331.81 45.16 331.49C45.16 331.18 45.42 330.91 45.74 330.91Z" fill="#6DD5BE"/>
<path d="M45.74 332.92H63.09C63.41 332.92 63.67 333.18 63.67 333.5C63.67 333.82 63.41 334.08 63.09 334.08H45.74C45.42 334.08 45.16 333.82 45.16 333.5C45.16 333.18 45.42 332.92 45.74 332.92Z" fill="#6DD5BE"/>
<path d="M51.7 334.93H63.2C63.46 334.93 63.68 335.14 63.68 335.41V335.62C63.68 335.88 63.47 336.1 63.2 336.1H51.7C51.44 336.1 51.22 335.89 51.22 335.62V335.41C51.22 335.14 51.43 334.93 51.7 334.93Z" fill="#6DD5BE"/>
<path d="M64.41 342.21H47.06C46.73 342.2 46.45 341.95 46.4 341.63C46.35 341.36 46.53 341.1 46.8 341.06C46.83 341.05 46.87 341.05 46.9 341.05H64.25C64.58 341.06 64.86 341.3 64.91 341.63C64.96 341.9 64.77 342.16 64.5 342.21C64.48 342.21 64.45 342.21 64.41 342.21Z" fill="#6DD5BE"/>
<path d="M64.68 344.22H47.33C46.99 344.21 46.71 343.96 46.66 343.63C46.61 343.36 46.8 343.1 47.07 343.06C47.1 343.05 47.13 343.05 47.17 343.05H64.53C64.86 343.06 65.14 343.3 65.19 343.63C65.24 343.9 65.06 344.16 64.79 344.21C64.75 344.21 64.72 344.22 64.68 344.22Z" fill="#6DD5BE"/>
<path d="M64.95 346.22H47.6C47.27 346.21 46.99 345.97 46.94 345.64C46.89 345.37 47.08 345.11 47.35 345.06C47.38 345.05 47.42 345.05 47.45 345.05H64.8C65.13 345.06 65.41 345.31 65.46 345.63C65.51 345.9 65.32 346.16 65.05 346.2C65.02 346.22 64.98 346.22 64.95 346.22Z" fill="#6DD5BE"/>
<path d="M65.32 348.22H53.82C53.55 348.21 53.32 348.01 53.28 347.74L53.25 347.53C53.21 347.31 53.37 347.09 53.59 347.06C53.61 347.06 53.64 347.05 53.66 347.05H65.16C65.43 347.06 65.66 347.26 65.7 347.53L65.73 347.74C65.77 347.96 65.61 348.18 65.39 348.21C65.37 348.22 65.35 348.22 65.32 348.22Z" fill="#6DD5BE"/>
<path d="M66.52 354.96H49.17C48.83 354.95 48.54 354.7 48.48 354.37C48.42 354.12 48.57 353.86 48.82 353.79C48.86 353.78 48.9 353.77 48.95 353.78H66.3C66.64 353.79 66.93 354.04 66.99 354.37C67.06 354.62 66.9 354.88 66.65 354.94C66.61 354.96 66.57 354.96 66.52 354.96Z" fill="#6DD5BE"/>
<path d="M66.91 356.99H49.55C49.21 356.98 48.92 356.73 48.86 356.4C48.8 356.15 48.95 355.89 49.2 355.83C49.24 355.82 49.29 355.81 49.33 355.82H66.69C67.03 355.83 67.32 356.08 67.38 356.41C67.45 356.66 67.3 356.92 67.04 356.99C66.99 356.98 66.95 356.99 66.91 356.99Z" fill="#6DD5BE"/>
<path d="M67.29 359.02H49.94C49.6 359.01 49.31 358.76 49.25 358.43C49.19 358.17 49.35 357.92 49.6 357.86C49.64 357.85 49.68 357.85 49.72 357.85H67.08C67.42 357.87 67.71 358.11 67.77 358.44C67.83 358.7 67.67 358.95 67.41 359.01C67.37 359.02 67.33 359.02 67.29 359.02Z" fill="#6DD5BE"/>
<path d="M67.78 361.05H56.28C56 361.04 55.77 360.84 55.71 360.57L55.67 360.36C55.62 360.15 55.74 359.94 55.95 359.89C55.99 359.88 56.02 359.88 56.06 359.88H67.56C67.84 359.9 68.07 360.09 68.13 360.36L68.17 360.57C68.22 360.78 68.1 360.99 67.89 361.04C67.85 361.05 67.82 361.05 67.78 361.05Z" fill="#6DD5BE"/>
<path d="M71.67 324.72H68.21C66.83 324.72 65.71 323.6 65.71 322.22V318.48C65.71 317.1 66.83 315.98 68.21 315.98H71.67C73.05 315.98 74.17 317.1 74.17 318.48V322.23C74.17 323.6 73.05 324.72 71.67 324.72ZM68.21 316.66C67.21 316.66 66.4 317.47 66.4 318.47V322.22C66.4 323.22 67.21 324.03 68.21 324.03H71.67C72.67 324.03 73.48 323.22 73.48 322.22V318.48C73.48 317.48 72.67 316.67 71.67 316.67L68.21 316.66Z" fill="#6DD5BE"/>
<path d="M72.58 337.59H69.13C67.79 337.59 66.69 336.54 66.63 335.2L66.47 331.53C66.41 330.15 67.47 328.98 68.85 328.92C68.89 328.92 68.93 328.92 68.96 328.92H72.41C73.74 328.93 74.84 329.98 74.89 331.31L75.06 334.98C75.12 336.36 74.06 337.53 72.68 337.59C72.65 337.59 72.61 337.59 72.58 337.59ZM68.96 329.61C67.96 329.61 67.15 330.42 67.15 331.42C67.15 331.45 67.15 331.48 67.15 331.5L67.32 335.17C67.36 336.14 68.16 336.9 69.13 336.9H72.58C73.58 336.9 74.39 336.09 74.39 335.09C74.39 335.06 74.39 335.03 74.39 335.01L74.22 331.34C74.18 330.37 73.38 329.61 72.41 329.61H68.96Z" fill="#6DD5BE"/>
<path d="M70.22 349.5C68.92 349.5 67.83 348.5 67.73 347.2L67.44 343.54C67.33 342.16 68.36 340.96 69.74 340.85C69.78 340.85 69.81 340.84 69.85 340.84L73.3 340.72C74.63 340.68 75.76 341.69 75.88 343.01L76.17 346.67C76.28 348.05 75.25 349.26 73.87 349.36C73.83 349.36 73.8 349.36 73.76 349.37L70.31 349.49L70.22 349.5ZM73.39 341.4H73.32L69.87 341.52C68.87 341.56 68.09 342.4 68.12 343.4C68.12 343.43 68.12 343.45 68.12 343.48L68.41 347.14C68.49 348.1 69.31 348.84 70.28 348.81L73.73 348.69C74.73 348.66 75.51 347.82 75.48 346.82C75.48 346.79 75.48 346.76 75.48 346.74L75.19 343.08C75.12 342.13 74.33 341.4 73.39 341.4Z" fill="#6DD5BE"/>
<path d="M72.93 361.64C71.7 361.64 70.66 360.75 70.46 359.54L69.88 355.97C69.66 354.61 70.58 353.32 71.95 353.1C72.05 353.08 72.16 353.07 72.26 353.07L75.68 352.95C76.94 352.92 78.02 353.81 78.24 355.05L78.82 358.62C79.04 359.98 78.11 361.27 76.75 361.49C76.65 361.51 76.54 361.52 76.44 361.52L73.02 361.64H72.93ZM75.78 353.64H75.72L72.3 353.76C71.3 353.8 70.52 354.64 70.56 355.64C70.56 355.71 70.57 355.79 70.58 355.86L71.16 359.43C71.32 360.33 72.11 360.97 73.02 360.95L76.44 360.83C77.44 360.8 78.22 359.96 78.19 358.96C78.19 358.88 78.18 358.81 78.17 358.73L77.59 355.16C77.43 354.28 76.67 353.63 75.78 353.64Z" fill="#6DD5BE"/>
<path d="M51.4 307.57H68.18C68.86 307.57 69.41 308.12 69.41 308.8V310.72C69.41 311.4 68.86 311.95 68.18 311.95H51.4C50.72 311.95 50.17 311.4 50.17 310.72V308.8C50.17 308.12 50.72 307.57 51.4 307.57Z" fill="#6DD5BE"/>
<path d="M51.4 307.57H68.18C68.86 307.57 69.41 308.12 69.41 308.8V310.72C69.41 311.4 68.86 311.95 68.18 311.95H51.4C50.72 311.95 50.17 311.4 50.17 310.72V308.8C50.17 308.12 50.72 307.57 51.4 307.57Z" fill="url(#paint14_linear)"/>
<path d="M70.08 323.14L67.06 320.12C66.66 319.72 66.66 319.06 67.06 318.66C67.46 318.26 68.12 318.26 68.52 318.66L69.96 320.1L74.8 314.5C75.17 314.07 75.83 314.02 76.26 314.39C76.69 314.76 76.74 315.42 76.37 315.85L70.08 323.14Z" fill="#6DD5BE"/>
<path d="M71.5 335.7L68.48 332.68C68.08 332.28 68.08 331.62 68.48 331.22C68.88 330.82 69.54 330.82 69.94 331.22L71.38 332.66L76.22 327.06C76.59 326.63 77.25 326.58 77.68 326.95C78.11 327.32 78.16 327.98 77.79 328.41L71.5 335.7Z" fill="#6DD5BE"/>
<path d="M72.54 347.68L69.52 344.65C69.12 344.25 69.12 343.59 69.52 343.19C69.92 342.79 70.58 342.79 70.98 343.19L72.42 344.63L77.26 339.03C77.63 338.6 78.29 338.55 78.72 338.92C79.15 339.29 79.2 339.95 78.83 340.38L72.54 347.68Z" fill="#6DD5BE"/>
<path d="M75.22 359.73L72.2 356.71C71.8 356.31 71.8 355.65 72.2 355.25C72.6 354.85 73.26 354.85 73.66 355.25L75.1 356.69L79.94 351.09C80.31 350.66 80.97 350.61 81.4 350.98C81.83 351.35 81.88 352.01 81.51 352.44L75.22 359.73Z" fill="#6DD5BE"/>
<path d="M100.06 367.21H94.33V368.47H100.06V367.21Z" fill="#6DD5BE"/>
<path d="M100.06 367.21H94.33V368.47H100.06V367.21Z" fill="url(#paint15_linear)"/>
<path d="M100.1 368.51V372.77C100.1 373.33 99.65 373.79 99.08 373.79H99.07H95.31C94.75 373.79 94.29 373.34 94.29 372.77V368.51H100.1Z" fill="#6DD5BE"/>
<path d="M100.1 368.51V372.77C100.1 373.33 99.65 373.79 99.08 373.79H99.07H95.31C94.75 373.79 94.29 373.34 94.29 372.77V368.51H100.1Z" fill="url(#paint16_linear)"/>
<path d="M66.55 532.68C65.21 532.92 63.83 533.45 63 534.53C62.54 535.2 62.2 535.94 62 536.73C60.37 542.04 59.53 547.56 58.71 553.05C58.61 553.72 58.53 554.48 58.96 554.99C59.29 555.31 59.7 555.53 60.15 555.62C61.84 556.08 63.59 556.31 65.34 556.3C65.91 556.25 66.48 556.32 67.01 556.53C67.35 556.72 67.65 556.97 67.9 557.27C69.29 558.7 70.77 560.11 72.56 561.01C75.48 562.49 78.89 562.5 82.17 562.48L93.15 562.4C94.28 562.4 95.55 562.32 96.29 561.46C97.36 560.22 96.57 558.35 95.97 556.83C94.15 552.2 94.57 546.94 92.91 542.25C94.23 542.23 95.26 543.3 96.22 544.19C97.73 545.58 99.48 546.69 101.38 547.46C102.22 545.52 103.18 543.62 104.25 541.79C104.79 540.85 105.39 539.82 105.21 538.75C105.04 537.74 104.21 536.96 103.44 536.3C101.74 534.81 100.04 533.33 98.28 531.9C96.94 530.83 95.52 529.75 93.84 529.35C92.87 529.17 91.89 529.1 90.9 529.15C84.09 529.24 77.72 529.69 71.27 531.96C69.77 532.5 68.11 532.39 66.55 532.68Z" fill="#6DD5BE"/>
<path d="M66.55 532.68C65.21 532.92 63.83 533.45 63 534.53C62.54 535.2 62.2 535.94 62 536.73C60.37 542.04 59.53 547.56 58.71 553.05C58.61 553.72 58.53 554.48 58.96 554.99C59.29 555.31 59.7 555.53 60.15 555.62C61.84 556.08 63.59 556.31 65.34 556.3C65.91 556.25 66.48 556.32 67.01 556.53C67.35 556.72 67.65 556.97 67.9 557.27C69.29 558.7 70.77 560.11 72.56 561.01C75.48 562.49 78.89 562.5 82.17 562.48L93.15 562.4C94.28 562.4 95.55 562.32 96.29 561.46C97.36 560.22 96.57 558.35 95.97 556.83C94.15 552.2 94.57 546.94 92.91 542.25C94.23 542.23 95.26 543.3 96.22 544.19C97.73 545.58 99.48 546.69 101.38 547.46C102.22 545.52 103.18 543.62 104.25 541.79C104.79 540.85 105.39 539.82 105.21 538.75C105.04 537.74 104.21 536.96 103.44 536.3C101.74 534.81 100.04 533.33 98.28 531.9C96.94 530.83 95.52 529.75 93.84 529.35C92.87 529.17 91.89 529.1 90.9 529.15C84.09 529.24 77.72 529.69 71.27 531.96C69.77 532.5 68.11 532.39 66.55 532.68Z" fill="url(#paint17_linear)"/>
<path d="M86.49 551.64C86.36 550.13 86.1 548.64 85.71 547.18C85.25 545.14 84.88 543.03 85.24 540.98C85.59 538.92 86.8 536.9 88.73 536.09C90.12 535.5 91.7 535.6 93.21 535.71C93.48 535.7 93.74 535.79 93.94 535.97C94.04 536.11 94.1 536.27 94.11 536.44C95.3 543.19 95.24 550.11 93.92 556.84C93.89 557.17 93.75 557.47 93.53 557.71C93.29 557.87 93.01 557.96 92.73 557.96C91.41 558.09 86.43 558.97 85.64 557.71C85.25 557.08 85.84 555.92 86 555.32C86.35 554.13 86.52 552.88 86.49 551.64Z" fill="url(#paint18_linear)"/>
<path d="M96.42 534.43C95.66 534.63 94.96 535.01 94.38 535.53C93.68 536.25 93.42 537.27 93.19 538.25L91.22 546.49C90.8 548.04 90.52 549.64 90.4 551.24C90.26 554.41 91.31 557.5 92.35 560.49C93.09 562.61 93.84 564.72 94.59 566.83L118.99 568.07C119.29 564.25 120.38 560.55 121.26 556.83C122.14 553.11 122.81 549.25 122.28 545.46C121.75 541.67 119.83 537.91 116.55 535.96C111.12 532.73 102.26 532.56 96.42 534.43Z" fill="#6DD5BE"/>
<path d="M105.23 537.31C105.2 537.71 105.23 538.12 105.32 538.51C105.41 538.91 105.67 539.24 106.04 539.43C106.55 539.65 107.13 539.43 107.64 539.19C109.25 538.44 110.91 537.43 111.55 535.78C111.84 534.84 111.94 533.86 111.84 532.88C111.76 531.09 111.56 529.21 110.77 527.59C110.66 527.32 110.48 527.08 110.25 526.89C109.63 526.46 108.78 526.86 108.2 527.34C106.87 528.44 105.93 529.93 105.5 531.6C105.07 533.4 105.28 535.47 105.23 537.31Z" fill="#F7BC9F"/>
<path d="M105.23 537.31C105.2 537.71 105.23 538.12 105.32 538.51C105.41 538.91 105.67 539.24 106.04 539.43C106.55 539.65 107.13 539.43 107.64 539.19C109.25 538.44 110.91 537.43 111.55 535.78C111.84 534.84 111.94 533.86 111.84 532.88C111.76 531.09 111.56 529.21 110.77 527.59C110.66 527.32 110.48 527.08 110.25 526.89C109.63 526.46 108.78 526.86 108.2 527.34C106.87 528.44 105.93 529.93 105.5 531.6C105.07 533.4 105.28 535.47 105.23 537.31Z" fill="url(#paint19_linear)"/>
<path d="M71.24 539.99C71.02 540.07 70.81 540.2 70.65 540.37C70.55 540.51 70.47 540.67 70.42 540.83C70.18 541.73 69.99 542.64 69.85 543.57C69.27 546.45 67.83 549.09 67.01 551.92C66.9 552.22 66.86 552.55 66.9 552.87C66.94 553.2 67.19 553.46 67.52 553.53C67.94 553.57 68.25 553.17 68.48 552.81C69.49 551.2 70.65 549.68 71.94 548.28C72.07 549.54 71.88 550.81 71.39 551.97C71.22 552.31 71.1 552.67 71.03 553.04C71.02 553.61 71.19 554.17 71.51 554.64C71.62 554.86 71.76 555.05 71.93 555.22C72.17 555.4 72.43 555.53 72.72 555.61C74.59 556.33 76.55 556.82 78.54 557.07C73.52 556.97 68.51 556.76 63.49 556.45C63.37 556.45 63.26 556.42 63.16 556.36C63.06 556.25 63.01 556.1 63.03 555.94C63.09 554.9 63.33 553.88 63.75 552.93C64.96 549.66 66.22 546.39 67.69 543.23C68.51 541.49 69.48 539.68 71.14 538.71C71.7 538.4 72.3 538.15 72.91 537.96L75.59 537.01C75.99 538.72 72.34 539.53 71.24 539.99Z" fill="url(#paint20_linear)"/>
<path d="M124.31 574C124.31 575.68 123.59 577.31 122.28 578.86C116.7 578.61 111.11 578.3 105.58 578.65C97.07 579.19 89.03 582.59 80.91 584.92C69.55 588.14 57.66 589.04 45.94 587.56C41.7 587.02 37.42 586.13 33.71 584.02C30 581.91 27.04 578.61 24.52 575.13C22.1 571.87 20.12 568.3 18.64 564.52C28.64 559.24 46.7 555.72 67.34 555.72C98.81 555.7 124.31 563.89 124.31 574Z" fill="#6DD5BE"/>
<path d="M124.31 574C124.31 575.68 123.59 577.31 122.28 578.86C116.7 578.61 111.11 578.3 105.58 578.65C97.07 579.19 89.03 582.59 80.91 584.92C69.55 588.14 57.66 589.04 45.94 587.56C41.7 587.02 37.42 586.13 33.71 584.02C30 581.91 27.04 578.61 24.52 575.13C22.1 571.87 20.12 568.3 18.64 564.52C28.64 559.24 46.7 555.72 67.34 555.72C98.81 555.7 124.31 563.89 124.31 574Z" fill="url(#paint21_linear)"/>
<path d="M97.64 567.31C97.47 566.76 97.4 566.19 97.43 565.62C96.17 566.47 94.85 567.34 93.35 567.57C91.85 567.81 90.1 567.21 89.47 565.84C88.96 564.72 89.29 563.42 89.3 562.18C89.31 561.15 89.08 560.13 88.64 559.19C88.47 558.75 88.17 558.37 87.78 558.09C87.48 557.93 87.15 557.82 86.81 557.77C80.49 556.58 74.01 556.51 67.66 557.58C67.48 557.59 67.31 557.68 67.2 557.82C67.12 557.98 67.35 558.21 67.47 558.08C64.39 558.6 61.25 558.66 58.15 558.27C58.42 557.62 59.09 557.24 59.73 556.96C62.57 555.72 65.73 555.45 68.83 555.34C79.85 554.92 90.88 556.21 101.51 559.17C103.87 559.83 106.38 560.56 108.39 562.01C109.37 562.73 111.68 564.58 111.49 566.02C111.24 567.84 107.45 567.09 106.12 567.13C105.35 567.15 97.75 567.65 97.64 567.31Z" fill="url(#paint22_linear)"/>
<path d="M98.34 557.93C97.94 559.72 97.52 561.54 96.47 563.03C96.41 560.55 96.33 557.96 95.17 555.76C95.02 555.51 94.9 555.25 94.81 554.98C94.76 554.73 94.74 554.47 94.75 554.21C94.8 551.72 95.12 549.24 95.71 546.83C96.05 545.21 96.66 543.66 97.52 542.24C98.33 543.3 99.16 544.35 100 545.39L101.55 540.29L103.24 544.36C104.07 544.3 104.47 543.29 104.51 542.46C104.56 541.64 104.51 540.69 105.08 540.09C105.65 539.49 106.67 539.53 107.52 539.64C107.92 539.62 108.25 539.92 108.27 540.32C108.27 540.38 108.27 540.44 108.26 540.5C108.46 542.97 108.58 545.44 108.62 547.92L113.35 544.29C111.92 545.62 110.46 546.95 109.05 548.3C108.2 549.07 107.42 549.91 106.72 550.83C106.1 551.72 105.59 552.68 105.2 553.7C104.39 555.71 103.87 557.83 103.66 559.98C103.55 561.05 103.42 562.34 102.47 562.89C101.37 560.74 100.65 558.42 100.34 556.03C100.29 555.61 100.08 553.88 99.18 554.63C98.87 554.89 98.85 555.7 98.76 556.1L98.34 557.93Z" fill="url(#paint23_linear)"/>
<path d="M84.25 579.14C87.0059 579.14 89.24 578.602 89.24 577.94C89.24 577.277 87.0059 576.74 84.25 576.74C81.4941 576.74 79.26 577.277 79.26 577.94C79.26 578.602 81.4941 579.14 84.25 579.14Z" fill="url(#paint24_linear)"/>
<path d="M31.69 566.65C34.4459 566.65 36.68 566.113 36.68 565.45C36.68 564.787 34.4459 564.25 31.69 564.25C28.9341 564.25 26.7 564.787 26.7 565.45C26.7 566.113 28.9341 566.65 31.69 566.65Z" fill="url(#paint25_linear)"/>
<path d="M40.35 566.11C42.03 565.58 43.74 565.14 45.47 564.8C47.97 564.38 50.5 564.25 53.03 564.41C55.63 564.55 58.21 564.88 60.76 565.4C62.22 565.65 63.64 566.09 65 566.7C66.36 567.32 67.5 568.33 68.28 569.6C69.21 571.04 69.13 572.9 68.09 574.26C67.08 575.58 65.67 576.54 64.07 576.98C62.48 577.42 60.84 577.66 59.19 577.7C52.86 578.06 46.24 577.86 40.56 575.02C39.51 574.54 38.56 573.88 37.73 573.07C36.44 571.81 35.98 569.94 36.52 568.23C37.02 566.67 39.02 566.5 40.35 566.11Z" fill="url(#paint26_linear)"/>
<path d="M96.3 526.5C96.62 529.4 97.33 532.29 97.19 535.2C97.03 538.66 95.67 541.98 95.56 545.44C95.47 548.49 96.34 551.49 98.05 554.01C98.13 551.63 98.44 549.26 98.97 546.94C99.06 547.31 99.25 547.65 99.51 547.93C99.73 546.8 99.85 545.66 99.89 544.52C99.91 544.76 100.02 544.99 100.21 545.14C100.52 541.34 101.32 537.62 101.83 533.82C102.34 530.02 102.55 526.15 101.66 522.44C101.25 520.73 100.53 518.97 99.06 518.02C96.2 516.18 96.17 525.19 96.3 526.5Z" fill="#734A39"/>
<path d="M96.3 526.5C96.62 529.4 97.33 532.29 97.19 535.2C97.03 538.66 95.67 541.98 95.56 545.44C95.47 548.49 96.34 551.49 98.05 554.01C98.13 551.63 98.44 549.26 98.97 546.94C99.06 547.31 99.25 547.65 99.51 547.93C99.73 546.8 99.85 545.66 99.89 544.52C99.91 544.76 100.02 544.99 100.21 545.14C100.52 541.34 101.32 537.62 101.83 533.82C102.34 530.02 102.55 526.15 101.66 522.44C101.25 520.73 100.53 518.97 99.06 518.02C96.2 516.18 96.17 525.19 96.3 526.5Z" fill="url(#paint27_linear)"/>
<path d="M93.72 533.36C92.91 533.96 92.3 534.78 91.97 535.72C91.85 536.14 91.77 536.58 91.72 537.01L91.42 539.32C91.29 539.88 91.33 540.46 91.55 540.99C91.93 541.71 92.85 541.92 93.64 541.8C94.43 541.69 95.16 541.31 95.92 541.08C96.47 540.97 97.01 540.81 97.53 540.59C97.92 540.36 98.29 540.08 98.6 539.76C100.54 537.95 102.48 536.01 103.51 533.57C103.58 533.42 103.63 533.26 103.64 533.09C103.63 532.87 103.54 532.66 103.4 532.49C102.79 531.7 101.7 531.5 100.71 531.42C99.71 531.34 98.71 531.31 97.71 531.34C96.41 531.4 94.73 532.56 93.72 533.36Z" fill="#6DD5BE"/>
<path d="M97.12 538.11C95.59 539.11 93.73 539.58 92.38 540.79C92.24 540.89 92.16 541.04 92.15 541.21C92.17 541.31 92.23 541.39 92.3 541.45C92.73 541.75 93.28 541.82 93.77 541.62C94.25 541.42 94.73 541.26 95.23 541.13C95.66 541.06 96.11 541.13 96.55 541.04C97.36 540.9 98.02 540.32 98.63 539.78C99.86 538.71 101.03 537.57 102.12 536.35C102.23 536.24 102.31 536.11 102.34 535.96C102.35 535.82 102.31 535.68 102.25 535.56C102.14 535.23 101.95 534.94 101.72 534.69C101.44 534.5 101.27 534.63 100.92 534.72C100.51 534.77 100.13 534.99 99.89 535.33C99.03 536.38 98.25 537.37 97.12 538.11Z" fill="url(#paint28_linear)"/>
<path d="M95.48 538.47C94.51 539.14 93.62 540.01 92.47 540.29C92.37 540.33 92.25 540.31 92.15 540.25C92.1 540.19 92.07 540.12 92.07 540.04C91.99 539.71 92.02 539.36 92.15 539.05C92.37 538.65 92.87 538.51 93.3 538.37C95.09 537.81 96.65 536.66 98.17 535.52C98.91 534.96 99.64 534.32 100.43 533.84C100.87 534.82 99.45 535.79 98.83 536.32C97.82 537.19 96.58 537.7 95.48 538.47Z" fill="url(#paint29_linear)"/>
<path d="M96.62 536.15C96.27 536.4 95.88 536.58 95.47 536.68C95.14 536.73 94.81 536.68 94.48 536.72C93.82 536.84 93.21 537.13 92.69 537.55C92.51 537.7 92.28 537.79 92.04 537.8C91.81 537.78 91.59 537.5 91.72 537.3C91.56 538.17 91.46 539.05 91.41 539.93C91.23 538.97 91.45 537.97 91.68 537.02C91.79 536.38 92.01 535.77 92.31 535.19C92.55 534.82 92.83 534.48 93.14 534.18C93.68 533.59 94.28 533.05 94.93 532.59C96.52 531.6 98.44 531.27 100.28 531.67C101.83 531.97 100.19 533.46 99.56 533.95C98.58 534.69 97.67 535.48 96.62 536.15Z" fill="url(#paint30_linear)"/>
<path d="M81.53 540.35C81.26 540.59 80.94 540.77 80.59 540.87C80.25 540.94 79.91 540.94 79.57 540.85C79.27 540.79 78.98 540.69 78.7 540.56C77.76 540.1 76.91 539.45 76.22 538.66C75.38 537.78 74.64 536.81 74.02 535.76C73.82 535.38 73.59 535.02 73.34 534.69C73 534.31 72.62 533.97 72.21 533.68C71.31 532.96 70.5 532.15 69.77 531.26C68.17 529.3 67.03 527 66.43 524.54C66.33 523.92 66.27 523.3 66.27 522.68C66.18 521.45 66.19 520.21 66.29 518.98C66.32 518.22 66.49 517.47 66.78 516.77C67.19 516.03 67.73 515.36 68.37 514.81C68.84 514.31 69.41 513.91 70.04 513.63C70.51 513.48 71.01 513.4 71.5 513.39C72.22 513.36 72.93 513.35 73.65 513.39C74.02 513.4 74.39 513.45 74.74 513.55C75.11 513.69 75.44 513.9 75.73 514.17C77.26 515.5 77.97 517.7 78.51 519.66L79.23 519.15C79.31 519.08 79.42 519.03 79.53 519.02C79.68 519.03 79.82 519.1 79.92 519.21C80.78 519.97 81.5 521.07 81.29 522.19C81.14 523.05 80.49 523.73 80.28 524.57C80.19 525 80.16 525.43 80.19 525.86C80.25 528.18 80.33 530.61 81.53 532.6C81.91 533.23 82.39 533.8 82.72 534.46C83.7 536.46 83.21 538.88 81.53 540.35Z" fill="#F7BC9F"/>
<path d="M78.77 537.04C78.75 537.23 78.78 537.42 78.85 537.59C79.11 538.57 79.06 539.61 78.71 540.56C77.77 540.1 76.92 539.45 76.23 538.66C75.39 537.78 74.65 536.81 74.03 535.76C73.83 535.38 73.6 535.02 73.35 534.69C73.01 534.31 72.63 533.97 72.22 533.68C71.32 532.96 70.51 532.15 69.78 531.26C69.77 530.95 69.83 530.64 69.95 530.35C72.82 530.75 75.72 530.77 78.59 530.4C78.83 530.34 79.08 530.36 79.31 530.45C79.42 530.51 79.51 530.58 79.59 530.67L80.94 532C81.13 532.17 81.29 532.37 81.43 532.58C81.85 533.33 81.48 534.29 80.91 534.92C80.34 535.55 79.58 535.99 79.02 536.64C78.9 536.75 78.81 536.89 78.77 537.04Z" fill="url(#paint31_linear)"/>
<path d="M71.06 538.34C72.45 537.73 74.22 537.93 75.29 536.85C75.35 536.8 75.4 536.72 75.41 536.64C75.41 536.43 75.13 536.36 74.92 536.38C74.25 536.48 73.58 536.51 72.9 536.46C72.22 536.41 71.6 536.02 71.26 535.43C70.97 534.84 71.11 534.14 71.11 533.48C71.11 532.82 70.86 532.05 70.22 531.88C69.8 531.82 69.38 531.94 69.06 532.22C67.95 533.04 67.44 534.48 67.37 535.87C67.27 537.02 67.56 538.18 68.18 539.15C68.58 539.72 68.86 539.99 69.44 539.51C69.91 539.05 70.46 538.65 71.06 538.34Z" fill="#F7BC9F"/>
<path d="M71.06 538.34C72.45 537.73 74.22 537.93 75.29 536.85C75.35 536.8 75.4 536.72 75.41 536.64C75.41 536.43 75.13 536.36 74.92 536.38C74.25 536.48 73.58 536.51 72.9 536.46C72.22 536.41 71.6 536.02 71.26 535.43C70.97 534.84 71.11 534.14 71.11 533.48C71.11 532.82 70.86 532.05 70.22 531.88C69.8 531.82 69.38 531.94 69.06 532.22C67.95 533.04 67.44 534.48 67.37 535.87C67.27 537.02 67.56 538.18 68.18 539.15C68.58 539.72 68.86 539.99 69.44 539.51C69.91 539.05 70.46 538.65 71.06 538.34Z" fill="url(#paint32_linear)"/>
<path d="M81.02 530.02C81.2 530.21 81.34 530.43 81.45 530.67C81.67 531.03 81.8 531.45 81.81 531.88C81.78 532.14 81.7 532.39 81.56 532.62C80.95 533.77 79.82 534.55 78.69 535.2C78.22 535.47 77.73 535.71 77.22 535.92C76.68 536.12 76.12 536.28 75.56 536.4C74.47 536.69 73.36 536.84 72.23 536.86C72.08 536.87 71.92 536.84 71.78 536.78C71.57 536.66 71.42 536.45 71.39 536.21C71.36 535.97 71.39 535.72 71.48 535.49C71.66 535.02 71.92 534.58 72.26 534.21C73.71 532.5 75.82 531.49 77.94 530.75C78.35 530.62 78.75 530.46 79.14 530.26C79.73 529.95 80.37 529.42 81.02 530.02Z" fill="#6DD5BE"/>
<path d="M81.02 530.02C81.2 530.21 81.34 530.43 81.45 530.67C81.67 531.03 81.8 531.45 81.81 531.88C81.78 532.14 81.7 532.39 81.56 532.62C80.95 533.77 79.82 534.55 78.69 535.2C78.22 535.47 77.73 535.71 77.22 535.92C76.68 536.12 76.12 536.28 75.56 536.4C74.47 536.69 73.36 536.84 72.23 536.86C72.08 536.87 71.92 536.84 71.78 536.78C71.57 536.66 71.42 536.45 71.39 536.21C71.36 535.97 71.39 535.72 71.48 535.49C71.66 535.02 71.92 534.58 72.26 534.21C73.71 532.5 75.82 531.49 77.94 530.75C78.35 530.62 78.75 530.46 79.14 530.26C79.73 529.95 80.37 529.42 81.02 530.02Z" fill="url(#paint33_linear)"/>
<path d="M80.76 529.04C80.94 529.23 81.09 529.45 81.19 529.69C81.41 530.05 81.52 530.47 81.53 530.89C81.5 531.15 81.42 531.41 81.28 531.63C80.67 532.78 79.54 533.56 78.41 534.21C77.94 534.49 77.45 534.73 76.94 534.93C76.4 535.13 75.84 535.29 75.28 535.41C74.19 535.7 73.07 535.85 71.95 535.87C71.8 535.88 71.64 535.85 71.5 535.79C71.29 535.68 71.14 535.47 71.11 535.23C71.08 534.99 71.11 534.74 71.2 534.51C71.38 534.04 71.64 533.61 71.98 533.23C73.43 531.52 75.54 530.51 77.66 529.77C78.07 529.64 78.47 529.48 78.85 529.28C79.47 528.97 80.12 528.44 80.76 529.04Z" fill="url(#paint34_linear)"/>
<path d="M79.59 528.33C79.87 528.36 80.14 528.45 80.38 528.59C80.96 528.99 80.98 529.86 80.72 530.51C80.29 531.39 79.63 532.14 78.8 532.66C77.11 533.86 75.17 534.68 73.13 535.06C72.41 535.21 71.67 535.25 70.94 535.18C70.86 535.18 70.78 535.15 70.72 535.1C70.65 535.03 70.62 534.93 70.63 534.83C70.56 533.18 71.18 531.57 72.36 530.4C73.48 529.29 74.93 528.56 76.49 528.35C77.52 528.18 78.57 528.17 79.59 528.33Z" fill="#6DD5BE"/>
<path d="M79.59 528.33C79.87 528.36 80.14 528.45 80.38 528.59C80.96 528.99 80.98 529.86 80.72 530.51C80.29 531.39 79.63 532.14 78.8 532.66C77.11 533.86 75.17 534.68 73.13 535.06C72.41 535.21 71.67 535.25 70.94 535.18C70.86 535.18 70.78 535.15 70.72 535.1C70.65 535.03 70.62 534.93 70.63 534.83C70.56 533.18 71.18 531.57 72.36 530.4C73.48 529.29 74.93 528.56 76.49 528.35C77.52 528.18 78.57 528.17 79.59 528.33Z" fill="url(#paint35_linear)"/>
<path d="M73.04 529.58C72.84 529.3 72.84 528.92 73.04 528.64C73.24 528.36 73.5 528.15 73.81 528.01C74.38 527.71 75 527.5 75.63 527.39C76.05 527.3 76.48 527.31 76.9 527.41C77.32 527.51 77.67 527.8 77.85 528.19" fill="white"/>
<path d="M97.89 528.28C97.92 529.61 98.08 530.93 98.36 532.22C98.66 533.41 99.2 534.6 100.18 535.34C101.43 536.29 103.23 536.33 104.64 535.66C106.04 534.93 107.14 533.72 107.73 532.25C108.31 530.79 108.64 529.24 108.71 527.67C108.87 525.4 108.76 523.04 107.8 520.97C106.84 518.9 104.88 517.19 102.6 517.05C100.57 516.93 97.68 517.51 97.46 519.92C97.2 522.62 97.73 525.57 97.89 528.28Z" fill="#F7BC9F"/>
<path d="M101.63 530.82C101.8 530.8 101.97 530.83 102.12 530.92C102.19 530.98 102.25 531.06 102.29 531.15C102.46 531.52 102.46 531.94 102.29 532.3C102.28 532.33 102.25 532.36 102.22 532.38C102.2 532.39 102.17 532.39 102.14 532.38C101.47 532.1 100.6 531.77 100.05 531.31C99.69 530.99 100.05 530.95 100.35 530.92C100.79 530.85 101.21 530.83 101.63 530.82Z" fill="white"/>
<path d="M90.38 545.15C90.2 542.91 91.13 540.75 92.04 538.7C92.07 538.61 92.12 538.53 92.18 538.45C92.28 538.33 92.4 538.24 92.54 538.16C93.16 537.77 93.75 537.33 94.33 536.89C95.16 536.27 96.05 535.58 96.34 534.58C96 534.53 95.65 534.63 95.38 534.85C94.1 535.61 92.75 536.24 91.35 536.73C91.53 536.16 91.86 535.65 92.31 535.25C92.4 535.16 92.51 535.09 92.63 535.04C92.79 534.99 92.97 534.97 93.14 534.98C93.97 534.96 94.79 534.78 95.55 534.45C95.76 534.36 96.01 534.15 95.91 533.94C95.85 533.8 95.66 533.77 95.51 533.75L94.23 533.65L95.45 532.74C95.61 532.62 95.79 532.38 95.63 532.24C94.79 532.14 93.94 532.11 93.09 532.16C92.79 532.2 92.48 532.2 92.18 532.16C91.91 532.11 91.67 531.98 91.41 531.92C90.6 531.73 89.79 532.15 89.11 532.62C88.45 533.07 87.83 533.58 87.25 534.13C86.94 534.4 86.69 534.72 86.5 535.08C86.31 535.59 86.23 536.14 86.28 536.69L86.34 541.63C86.36 543.42 86.4 545.31 87.18 546.93C89.13 550.99 88.48 555.45 89.57 559.83C90.06 561.81 90.64 563.83 91.9 565.43C92.13 565.76 92.44 566.03 92.8 566.2C93.28 566.34 93.79 566.3 94.23 566.06C95.54 565.46 96.34 564.04 96.49 562.61C96.65 561.18 96.26 559.74 95.72 558.41C94.81 556.2 93.48 554.19 92.37 552.08C91.24 549.93 90.57 547.57 90.38 545.15Z" fill="#F7BC9F"/>
<path d="M106.89 545.51C106.87 541.83 106.49 538.17 105.74 534.57C105.69 534.22 105.57 533.88 105.38 533.58C105.16 533.33 104.89 533.12 104.59 532.97C103.39 532.27 102.16 531.56 100.81 531.26C100 531.08 99.17 531.05 98.36 530.88C98.11 530.81 97.84 530.79 97.58 530.82C97.21 530.96 96.91 531.23 96.73 531.58C97.11 531.87 97.45 532.25 97.83 532.55C97.25 532.4 96.64 532.34 96.04 532.38C95.94 532.69 96.26 532.96 96.54 533.12C97 533.38 97.48 533.61 97.97 533.82C98.47 533.99 98.94 534.22 99.37 534.51C100.05 535.03 100.39 535.86 100.71 536.66L102.4 540.88C102.54 541.19 102.65 541.52 102.71 541.86C102.77 542.39 102.74 542.93 102.64 543.45C102.5 544.52 102.45 545.6 102.5 546.67C102.71 552.01 99.72 556.99 100.57 562.26C100.77 563.5 101.1 564.77 101.9 565.72C102.13 566.04 102.47 566.26 102.85 566.34C103.12 566.36 103.39 566.3 103.62 566.18C104.8 565.63 105.49 564.39 106.02 563.2C108.58 557.42 106.91 551.82 106.89 545.51Z" fill="#F7BC9F"/>
<path d="M98.34 513.81C98.5 513.63 98.68 513.47 98.87 513.33C99.63 512.87 100.49 512.58 101.38 512.5C102.21 512.37 103.05 512.3 103.89 512.25C105.65 512.05 107.44 512.41 108.99 513.27C110.97 514.21 113.05 515.42 114.22 517.31C115.52 519.42 116.13 521.89 115.95 524.37C115.89 525.19 115.74 526.04 115.95 526.84C116.22 527.91 117.1 528.81 117.1 529.91C117.1 530.52 116.83 531.1 116.77 531.7C116.59 533.35 117.9 534.74 118.58 536.25C119.13 537.46 119.28 538.82 119.02 540.12C118.71 539.44 117.69 539.4 117.07 539.82C116.45 540.23 116.12 540.97 115.73 541.61C115.14 542.6 114.22 543.32 113.64 544.29C113.02 545.33 112.54 546.39 111.78 547.36C111.01 548.36 110.15 549.28 109.22 550.13C108.77 550.54 106.31 551.96 106.22 552.42C106.54 550.67 106.78 548.91 107.06 547.15C107.29 545.74 107.95 544.44 108.16 543.04C108.34 541.89 107.98 540.69 108.3 539.57C108.57 538.62 109.31 537.78 109.17 536.79C109.06 536.35 108.91 535.91 108.73 535.49C108.33 534.11 109.17 532.71 109.49 531.31C109.56 531.06 109.57 530.79 109.52 530.54C109.37 530.16 109.12 529.83 108.8 529.58C107.26 528.06 106.88 525.93 105.83 524.13C105.68 523.86 104.11 521.98 104.15 521.88L103.87 522.6C103.11 521.72 102.27 520.81 101.15 520.48C100.45 520.32 99.73 520.26 99.02 520.3C98.39 520.3 97.76 520.26 97.14 520.19C96.86 520.18 96.58 520.11 96.33 519.98C95.76 519.65 95.63 518.86 95.78 518.21C96 517.33 96.6 516.6 97.41 516.21C97.53 516.17 97.63 516.09 97.7 515.99C97.73 515.87 97.73 515.75 97.7 515.63C97.64 514.96 97.87 514.29 98.34 513.81Z" fill="#734A39"/>
<path d="M66.3 532.78C66.71 532.26 67.32 531.95 67.85 531.56C68.52 531.08 69.1 530.46 69.86 530.13C70.43 529.93 71.02 529.83 71.62 529.84C72.63 529.81 73.65 529.86 74.65 529.99C74.67 530.37 74.37 530.69 73.99 530.71C73.96 530.71 73.94 530.71 73.91 530.71L74.27 531.24C73.36 531.91 72.07 531.42 70.96 531.64C70.03 531.84 69.28 532.52 68.99 533.43C70.57 533.41 72.16 533.41 73.74 533.43C73.8 533.88 73.26 534.15 72.8 534.21C72.02 534.33 71.22 534.31 70.46 534.51C69.7 534.71 68.94 535.2 68.74 535.94C68.47 536.92 69.19 537.88 69.4 538.87C69.51 539.54 69.48 540.23 69.31 540.89C69.02 542.24 68.63 543.57 68.16 544.87C67.01 548.21 65.75 551.52 64.38 554.77C64.09 555.45 63.77 556.17 63.14 556.56C62.58 556.87 61.94 556.98 61.31 556.89C60.49 556.87 59.71 556.57 59.08 556.04C58.24 555.25 58.07 553.94 58.34 552.82C58.61 551.7 59.24 550.71 59.81 549.71C60.76 548.06 61.6 546.33 62.59 544.69C63.43 543.33 64.85 542.01 65.27 540.44C65.65 538.97 65.46 537.22 65.54 535.71C65.61 534.76 65.63 533.62 66.3 532.78Z" fill="#F7BC9F"/>
<path d="M63.14 514.81C62.56 515.56 62.31 516.52 62.48 517.46C62.65 518.38 62.96 519.28 63.4 520.1C64.07 521.48 64.86 522.89 66.18 523.65C66.92 522.19 66.23 520.38 66.71 518.81C66.73 518.7 66.79 518.59 66.87 518.52C66.97 518.46 67.08 518.43 67.19 518.43C68.94 518.29 70.89 518.49 72.26 517.39C72.91 517.69 73.6 517.89 74.3 518C75.02 518.1 75.75 517.9 76.3 517.43C78.02 518.2 79.09 519.94 79.01 521.82C79.13 520.76 79.19 519.7 79.18 518.63L79.9 519.07C79.9 517.43 79.75 515.78 79.42 514.17C79.31 513.41 79.05 512.68 78.65 512.02C77.93 510.97 76.64 510.44 75.38 510.23C72.14 509.75 68.92 511.01 65.88 512.28C65.13 512.59 64.34 512.94 63.9 513.63C63.39 514.41 63.49 515.42 63.61 516.36" fill="#F05A20"/>
<path d="M79.6 520.64C79.6 520.56 79.64 520.45 79.72 520.45C79.76 520.46 79.79 520.47 79.82 520.5C80.25 520.82 80.57 521.26 80.74 521.76C80.81 522.1 80.75 522.46 80.56 522.75C80.42 522.97 80.05 523.34 79.76 523.33C79.47 523.32 79.32 522.89 79.4 522.61C79.48 522.33 79.8 522.14 79.83 521.83C79.88 521.46 79.59 521.06 79.6 520.64Z" fill="url(#paint36_linear)"/>
<path d="M72.41 524.21C72.42 524.9 72.5 525.59 72.67 526.26C72.69 526.46 72.86 526.6 73.06 526.58C73.07 526.58 73.08 526.58 73.09 526.58C73.33 526.59 73.57 526.57 73.81 526.54C74.06 526.54 74.29 526.42 74.44 526.22C74.12 525.9 73.58 525.88 73.25 525.57C73.05 525.33 72.9 525.05 72.83 524.75C72.71 524.41 72.56 524.09 72.38 523.78L72.47 524.73" fill="url(#paint37_linear)"/>
<path d="M40.99 563.86C42.67 563.33 44.38 562.89 46.11 562.55C48.6 562.13 51.14 562 53.66 562.16C56.25 562.29 58.83 562.63 61.37 563.15C62.83 563.4 64.25 563.84 65.61 564.45C66.97 565.07 68.11 566.08 68.9 567.35C69.83 568.79 69.75 570.65 68.7 572.01C67.75 573.36 66.25 574.24 64.68 574.73C63.09 575.17 61.45 575.41 59.8 575.45C53.47 575.81 46.85 575.61 41.17 572.77C40.12 572.29 39.17 571.63 38.35 570.82C37.06 569.57 36.59 567.69 37.14 565.98C37.64 564.41 39.63 564.24 40.99 563.86Z" fill="white"/>
<path opacity="0.18" d="M45.26 565.58C46.35 565.24 47.46 564.95 48.59 564.73C50.21 564.46 51.86 564.37 53.5 564.47C55.19 564.56 56.86 564.78 58.52 565.11C59.47 565.28 60.39 565.56 61.27 565.96C62.16 566.36 62.91 567.01 63.42 567.84C63.71 568.32 63.86 568.88 63.83 569.44C63.78 569.96 63.6 570.45 63.29 570.87C62.64 571.73 61.72 572.35 60.68 572.64C59.65 572.92 58.58 573.07 57.51 573.1C53.39 573.33 49.1 573.2 45.41 571.36C44.73 571.05 44.11 570.62 43.58 570.1C42.74 569.28 42.44 568.06 42.79 566.95C43.09 565.94 44.39 565.83 45.26 565.58Z" fill="#6DD5BE"/>
<path d="M82.99 578.4C84.796 578.4 86.26 577.952 86.26 577.4C86.26 576.848 84.796 576.4 82.99 576.4C81.184 576.4 79.72 576.848 79.72 577.4C79.72 577.952 81.184 578.4 82.99 578.4Z" fill="white"/>
<path d="M78.38 567.81L79.72 577.4H86.26L87.14 567.81H78.38Z" fill="white"/>
<path d="M79.25 571.07L80.04 577.12C80.04 577.12 82.99 578.91 85.7 577.12L86.24 571.06C86.24 571.06 85.46 569.84 82.43 569.99C79.42 570.13 79.25 571.07 79.25 571.07Z" fill="#6DD5BE"/>
<path d="M82.76 569.14C85.179 569.14 87.14 568.545 87.14 567.81C87.14 567.075 85.179 566.48 82.76 566.48C80.341 566.48 78.38 567.075 78.38 567.81C78.38 568.545 80.341 569.14 82.76 569.14Z" fill="white"/>
<path d="M82.76 572.13C84.693 572.13 86.26 571.655 86.26 571.07C86.26 570.484 84.693 570.01 82.76 570.01C80.827 570.01 79.26 570.484 79.26 571.07C79.26 571.655 80.827 572.13 82.76 572.13Z" fill="url(#paint38_linear)"/>
<path d="M30.43 565.93C32.236 565.93 33.7 565.482 33.7 564.93C33.7 564.378 32.236 563.93 30.43 563.93C28.624 563.93 27.16 564.378 27.16 564.93C27.16 565.482 28.624 565.93 30.43 565.93Z" fill="white"/>
<path d="M25.82 555.35L27.15 564.93H33.7L34.58 555.35H25.82Z" fill="white"/>
<path d="M26.7 558.61L27.5 564.66C27.5 564.66 30.45 566.45 33.16 564.66L33.7 558.61C33.7 558.61 32.92 557.39 29.9 557.54C26.88 557.69 26.7 558.61 26.7 558.61Z" fill="#6DD5BE"/>
<path d="M30.2 556.68C32.619 556.68 34.58 556.085 34.58 555.35C34.58 554.615 32.619 554.02 30.2 554.02C27.781 554.02 25.82 554.615 25.82 555.35C25.82 556.085 27.781 556.68 30.2 556.68Z" fill="white"/>
<path d="M30.2 559.67C32.133 559.67 33.7 559.195 33.7 558.61C33.7 558.024 32.133 557.55 30.2 557.55C28.267 557.55 26.7 558.024 26.7 558.61C26.7 559.195 28.267 559.67 30.2 559.67Z" fill="url(#paint39_linear)"/>
<path d="M108.76 527.51C108.86 527.41 108.97 527.33 109.1 527.26C109.31 527.19 109.54 527.17 109.77 527.2C109.86 527.2 109.95 527.22 110.04 527.26C110.1 527.31 110.15 527.38 110.18 527.46C110.5 528.22 110.5 529.08 110.18 529.84C110.04 530.27 109.78 530.64 109.42 530.91C109.05 531.18 108.56 531.22 108.16 531C107.64 530.66 107.39 529.65 107.5 529.06C107.59 528.47 108.33 527.9 108.76 527.51Z" fill="#F7BC9F"/>
<path d="M103.63 566.19C103.63 566.19 113.51 564.02 115.15 561.13C116.8 558.25 119.15 549.5 119.15 549.5L117.21 542.71L114.95 544.25L107.34 553C107.34 553.01 108.48 563.32 103.63 566.19Z" fill="#6DD5BE"/>
<path d="M119.51 551.08C117.87 551.88 116.74 553.43 115.84 555C114.94 556.58 114.18 558.27 112.97 559.66C112.27 560.46 111.45 561.13 110.75 561.92C109.86 562.93 109.11 564.18 107.83 564.6C106.8 564.96 105.53 564.69 104.72 565.42C107.26 565.38 109.76 564.82 112.08 563.78C112.41 563.6 112.78 563.49 113.15 563.49C113.44 563.53 113.71 563.63 113.96 563.78C114.92 564.28 116.96 566.01 117.72 564.73C118.33 563.71 118.26 561.4 118.55 560.19C118.74 559.46 120.55 551.08 119.51 551.08Z" fill="url(#paint40_linear)"/>
<defs>
<filter id="filter0_d" x="11.05" y="492" width="128.8" height="128.8" filterUnits="userSpaceOnUse" color-interpolation-filters="sRGB">
<feFlood flood-opacity="0" result="BackgroundImageFix"/>
<feColorMatrix in="SourceAlpha" type="matrix" values="0 0 0 0 0 0 0 0 0 0 0 0 0 0 0 0 0 0 127 0"/>
<feOffset dy="4"/>
<feGaussianBlur stdDeviation="2"/>
<feColorMatrix type="matrix" values="0 0 0 0 0 0 0 0 0 0 0 0 0 0 0 0 0 0 0.25 0"/>
<feBlend mode="normal" in2="BackgroundImageFix" result="effect1_dropShadow"/>
<feBlend mode="normal" in="SourceGraphic" in2="effect1_dropShadow" result="shape"/>
</filter>
<filter id="filter1_d" x="11.05" y="77" width="128.8" height="128.8" filterUnits="userSpaceOnUse" color-interpolation-filters="sRGB">
<feFlood flood-opacity="0" result="BackgroundImageFix"/>
<feColorMatrix in="SourceAlpha" type="matrix" values="0 0 0 0 0 0 0 0 0 0 0 0 0 0 0 0 0 0 127 0"/>
<feOffset dy="4"/>
<feGaussianBlur stdDeviation="2"/>
<feColorMatrix type="matrix" values="0 0 0 0 0 0 0 0 0 0 0 0 0 0 0 0 0 0 0.25 0"/>
<feBlend mode="normal" in2="BackgroundImageFix" result="effect1_dropShadow"/>
<feBlend mode="normal" in="SourceGraphic" in2="effect1_dropShadow" result="shape"/>
</filter>
<filter id="filter2_d" x="11.05" y="284" width="128.8" height="128.8" filterUnits="userSpaceOnUse" color-interpolation-filters="sRGB">
<feFlood flood-opacity="0" result="BackgroundImageFix"/>
<feColorMatrix in="SourceAlpha" type="matrix" values="0 0 0 0 0 0 0 0 0 0 0 0 0 0 0 0 0 0 127 0"/>
<feOffset dy="4"/>
<feGaussianBlur stdDeviation="2"/>
<feColorMatrix type="matrix" values="0 0 0 0 0 0 0 0 0 0 0 0 0 0 0 0 0 0 0.25 0"/>
<feBlend mode="normal" in2="BackgroundImageFix" result="effect1_dropShadow"/>
<feBlend mode="normal" in="SourceGraphic" in2="effect1_dropShadow" result="shape"/>
</filter>
<linearGradient id="paint0_linear" x1="74.8082" y1="392.015" x2="79.469" y2="271.051" gradientUnits="userSpaceOnUse">
<stop stop-color="#010101" stop-opacity="0"/>
<stop offset="0.95" stop-color="#010101"/>
</linearGradient>
<linearGradient id="paint1_linear" x1="119.354" y1="316.767" x2="115.534" y2="316.541" gradientUnits="userSpaceOnUse">
<stop stop-color="#010101" stop-opacity="0"/>
<stop offset="0.95" stop-color="#010101"/>
</linearGradient>
<linearGradient id="paint2_linear" x1="114.088" y1="353.577" x2="97.9636" y2="352.217" gradientUnits="userSpaceOnUse">
<stop stop-color="#010101" stop-opacity="0"/>
<stop offset="0.95" stop-color="#010101"/>
</linearGradient>
<linearGradient id="paint3_linear" x1="112.553" y1="341.028" x2="142.471" y2="310.722" gradientUnits="userSpaceOnUse">
<stop stop-color="#010101" stop-opacity="0"/>
<stop offset="0.95" stop-color="#010101"/>
</linearGradient>
<linearGradient id="paint4_linear" x1="112.379" y1="323.795" x2="128.844" y2="315.005" gradientUnits="userSpaceOnUse">
<stop stop-color="#010101" stop-opacity="0"/>
<stop offset="0.95" stop-color="#010101"/>
</linearGradient>
<linearGradient id="paint5_linear" x1="106.831" y1="375.499" x2="102.945" y2="360.927" gradientUnits="userSpaceOnUse">
<stop stop-color="#010101" stop-opacity="0"/>
<stop offset="0.95" stop-color="#010101"/>
</linearGradient>
<linearGradient id="paint6_linear" x1="114.859" y1="373.358" x2="110.973" y2="358.786" gradientUnits="userSpaceOnUse">
<stop stop-color="#010101" stop-opacity="0"/>
<stop offset="0.95" stop-color="#010101"/>
</linearGradient>
<linearGradient id="paint7_linear" x1="115.862" y1="313.235" x2="110.098" y2="316.018" gradientUnits="userSpaceOnUse">
<stop stop-color="#010101" stop-opacity="0"/>
<stop offset="0.95" stop-color="#010101"/>
</linearGradient>
<linearGradient id="paint8_linear" x1="55.6451" y1="282.746" x2="62.6395" y2="394.386" gradientUnits="userSpaceOnUse">
<stop stop-color="white" stop-opacity="0"/>
<stop offset="0.14" stop-color="white" stop-opacity="0.22"/>
<stop offset="0.3" stop-color="white" stop-opacity="0.45"/>
<stop offset="0.45" stop-color="white" stop-opacity="0.65"/>
<stop offset="0.6" stop-color="white" stop-opacity="0.8"/>
<stop offset="0.73" stop-color="white" stop-opacity="0.91"/>
<stop offset="0.85" stop-color="white" stop-opacity="0.98"/>
<stop offset="0.94" stop-color="white"/>
</linearGradient>
<linearGradient id="paint9_linear" x1="32.2112" y1="369.383" x2="128.31" y2="263.44" gradientUnits="userSpaceOnUse">
<stop stop-color="#010101" stop-opacity="0"/>
<stop offset="0.95" stop-color="#010101"/>
</linearGradient>
<linearGradient id="paint10_linear" x1="126.291" y1="325.361" x2="-49.2777" y2="395.768" gradientUnits="userSpaceOnUse">
<stop stop-color="white" stop-opacity="0"/>
<stop offset="0.14" stop-color="white" stop-opacity="0.22"/>
<stop offset="0.3" stop-color="white" stop-opacity="0.45"/>
<stop offset="0.45" stop-color="white" stop-opacity="0.65"/>
<stop offset="0.6" stop-color="white" stop-opacity="0.8"/>
<stop offset="0.73" stop-color="white" stop-opacity="0.91"/>
<stop offset="0.85" stop-color="white" stop-opacity="0.98"/>
<stop offset="0.94" stop-color="white"/>
</linearGradient>
<linearGradient id="paint11_linear" x1="102.747" y1="368.841" x2="68.6655" y2="382.508" gradientUnits="userSpaceOnUse">
<stop stop-color="white" stop-opacity="0"/>
<stop offset="0.14" stop-color="white" stop-opacity="0.22"/>
<stop offset="0.3" stop-color="white" stop-opacity="0.45"/>
<stop offset="0.45" stop-color="white" stop-opacity="0.65"/>
<stop offset="0.6" stop-color="white" stop-opacity="0.8"/>
<stop offset="0.73" stop-color="white" stop-opacity="0.91"/>
<stop offset="0.85" stop-color="white" stop-opacity="0.98"/>
<stop offset="0.94" stop-color="white"/>
</linearGradient>
<linearGradient id="paint12_linear" x1="97.408" y1="305.124" x2="96.8905" y2="314.45" gradientUnits="userSpaceOnUse">
<stop stop-color="white" stop-opacity="0"/>
<stop offset="0.14" stop-color="white" stop-opacity="0.22"/>
<stop offset="0.3" stop-color="white" stop-opacity="0.45"/>
<stop offset="0.45" stop-color="white" stop-opacity="0.65"/>
<stop offset="0.6" stop-color="white" stop-opacity="0.8"/>
<stop offset="0.73" stop-color="white" stop-opacity="0.91"/>
<stop offset="0.85" stop-color="white" stop-opacity="0.98"/>
<stop offset="0.94" stop-color="white"/>
</linearGradient>
<linearGradient id="paint13_linear" x1="96.6571" y1="306.312" x2="99.8936" y2="298.115" gradientUnits="userSpaceOnUse">
<stop stop-color="#010101" stop-opacity="0"/>
<stop offset="0.95" stop-color="#010101"/>
</linearGradient>
<linearGradient id="paint14_linear" x1="59.8488" y1="312.578" x2="59.7189" y2="306.233" gradientUnits="userSpaceOnUse">
<stop stop-color="white" stop-opacity="0"/>
<stop offset="0.14" stop-color="white" stop-opacity="0.22"/>
<stop offset="0.3" stop-color="white" stop-opacity="0.45"/>
<stop offset="0.45" stop-color="white" stop-opacity="0.65"/>
<stop offset="0.6" stop-color="white" stop-opacity="0.8"/>
<stop offset="0.73" stop-color="white" stop-opacity="0.91"/>
<stop offset="0.85" stop-color="white" stop-opacity="0.98"/>
<stop offset="0.94" stop-color="white"/>
</linearGradient>
<linearGradient id="paint15_linear" x1="97.1316" y1="366.247" x2="97.5212" y2="376.996" gradientUnits="userSpaceOnUse">
<stop stop-color="#010101" stop-opacity="0"/>
<stop offset="0.95" stop-color="#010101"/>
</linearGradient>
<linearGradient id="paint16_linear" x1="97.1841" y1="373.033" x2="97.2501" y2="359.111" gradientUnits="userSpaceOnUse">
<stop stop-color="#010101" stop-opacity="0"/>
<stop offset="0.95" stop-color="#010101"/>
</linearGradient>
<linearGradient id="paint17_linear" x1="131.739" y1="558.392" x2="68.751" y2="541.408" gradientUnits="userSpaceOnUse">
<stop offset="0.01"/>
<stop offset="0.13" stop-opacity="0.69"/>
<stop offset="1" stop-opacity="0"/>
</linearGradient>
<linearGradient id="paint18_linear" x1="104.758" y1="548.888" x2="82.321" y2="546.007" gradientUnits="userSpaceOnUse">
<stop offset="0.01"/>
<stop offset="0.13" stop-opacity="0.69"/>
<stop offset="1" stop-opacity="0"/>
</linearGradient>
<linearGradient id="paint19_linear" x1="108.978" y1="521.826" x2="108.466" y2="536.13" gradientUnits="userSpaceOnUse">
<stop offset="0.01"/>
<stop offset="0.13" stop-opacity="0.69"/>
<stop offset="1" stop-opacity="0"/>
</linearGradient>
<linearGradient id="paint20_linear" x1="49.4123" y1="556.268" x2="76.2749" y2="547.314" gradientUnits="userSpaceOnUse">
<stop offset="0.01"/>
<stop offset="0.13" stop-opacity="0.69"/>
<stop offset="1" stop-opacity="0"/>
</linearGradient>
<linearGradient id="paint21_linear" x1="71.0138" y1="604.044" x2="71.6301" y2="558.037" gradientUnits="userSpaceOnUse">
<stop offset="0.01"/>
<stop offset="0.13" stop-opacity="0.69"/>
<stop offset="1" stop-opacity="0"/>
</linearGradient>
<linearGradient id="paint22_linear" x1="106.714" y1="540.082" x2="71.9291" y2="575.282" gradientUnits="userSpaceOnUse">
<stop offset="0.01"/>
<stop offset="0.13" stop-opacity="0.69"/>
<stop offset="1" stop-opacity="0"/>
</linearGradient>
<linearGradient id="paint23_linear" x1="117.307" y1="567.595" x2="91.0964" y2="538.092" gradientUnits="userSpaceOnUse">
<stop offset="0.01"/>
<stop offset="0.13" stop-opacity="0.69"/>
<stop offset="1" stop-opacity="0"/>
</linearGradient>
<linearGradient id="paint24_linear" x1="79.2568" y1="577.944" x2="89.2394" y2="577.944" gradientUnits="userSpaceOnUse">
<stop offset="0.01"/>
<stop offset="0.13" stop-opacity="0.69"/>
<stop offset="1" stop-opacity="0"/>
</linearGradient>
<linearGradient id="paint25_linear" x1="26.6961" y1="565.454" x2="36.6787" y2="565.454" gradientUnits="userSpaceOnUse">
<stop offset="0.01"/>
<stop offset="0.13" stop-opacity="0.69"/>
<stop offset="1" stop-opacity="0"/>
</linearGradient>
<linearGradient id="paint26_linear" x1="36.2881" y1="571.078" x2="68.923" y2="571.078" gradientUnits="userSpaceOnUse">
<stop offset="0.01"/>
<stop offset="0.13" stop-opacity="0.69"/>
<stop offset="1" stop-opacity="0"/>
</linearGradient>
<linearGradient id="paint27_linear" x1="103.987" y1="534.82" x2="90.2495" y2="537.343" gradientUnits="userSpaceOnUse">
<stop offset="0.01"/>
<stop offset="0.13" stop-opacity="0.69"/>
<stop offset="1" stop-opacity="0"/>
</linearGradient>
<linearGradient id="paint28_linear" x1="92.1417" y1="538.168" x2="102.333" y2="538.168" gradientUnits="userSpaceOnUse">
<stop offset="0.01"/>
<stop offset="0.13" stop-opacity="0.69"/>
<stop offset="1" stop-opacity="0"/>
</linearGradient>
<linearGradient id="paint29_linear" x1="92.0342" y1="537.074" x2="100.525" y2="537.074" gradientUnits="userSpaceOnUse">
<stop offset="0.01" stop-color="white"/>
<stop offset="0.13" stop-color="white" stop-opacity="0.69"/>
<stop offset="1" stop-color="white" stop-opacity="0"/>
</linearGradient>
<linearGradient id="paint30_linear" x1="98.9344" y1="542.482" x2="94.2011" y2="531.435" gradientUnits="userSpaceOnUse">
<stop offset="0.01"/>
<stop offset="0.13" stop-opacity="0.69"/>
<stop offset="1" stop-opacity="0"/>
</linearGradient>
<linearGradient id="paint31_linear" x1="69.266" y1="549.998" x2="76.1957" y2="530.786" gradientUnits="userSpaceOnUse">
<stop offset="0.01"/>
<stop offset="0.13" stop-opacity="0.69"/>
<stop offset="1" stop-opacity="0"/>
</linearGradient>
<linearGradient id="paint32_linear" x1="67.343" y1="535.814" x2="75.4086" y2="535.814" gradientUnits="userSpaceOnUse">
<stop offset="0.01"/>
<stop offset="0.13" stop-opacity="0.69"/>
<stop offset="1" stop-opacity="0"/>
</linearGradient>
<linearGradient id="paint33_linear" x1="71.3632" y1="533.3" x2="81.7924" y2="533.3" gradientUnits="userSpaceOnUse">
<stop offset="0.01"/>
<stop offset="0.13" stop-opacity="0.69"/>
<stop offset="1" stop-opacity="0"/>
</linearGradient>
<linearGradient id="paint34_linear" x1="71.0993" y1="532.322" x2="81.5285" y2="532.322" gradientUnits="userSpaceOnUse">
<stop offset="0.01"/>
<stop offset="0.13" stop-opacity="0.69"/>
<stop offset="1" stop-opacity="0"/>
</linearGradient>
<linearGradient id="paint35_linear" x1="70.6227" y1="531.721" x2="80.881" y2="531.721" gradientUnits="userSpaceOnUse">
<stop offset="0.01" stop-color="white"/>
<stop offset="0.13" stop-color="white" stop-opacity="0.69"/>
<stop offset="1" stop-color="white" stop-opacity="0"/>
</linearGradient>
<linearGradient id="paint36_linear" x1="77.888" y1="521.727" x2="80.3316" y2="521.945" gradientUnits="userSpaceOnUse">
<stop offset="0.01"/>
<stop offset="0.13" stop-opacity="0.69"/>
<stop offset="1" stop-opacity="0"/>
</linearGradient>
<linearGradient id="paint37_linear" x1="72.3629" y1="525.179" x2="74.4232" y2="525.179" gradientUnits="userSpaceOnUse">
<stop offset="0.01"/>
<stop offset="0.13" stop-opacity="0.69"/>
<stop offset="1" stop-opacity="0"/>
</linearGradient>
<linearGradient id="paint38_linear" x1="79.2532" y1="571.065" x2="86.2618" y2="571.065" gradientUnits="userSpaceOnUse">
<stop offset="0.01" stop-color="white"/>
<stop offset="0.13" stop-color="white" stop-opacity="0.69"/>
<stop offset="1" stop-color="white" stop-opacity="0"/>
</linearGradient>
<linearGradient id="paint39_linear" x1="26.6961" y1="558.606" x2="33.7047" y2="558.606" gradientUnits="userSpaceOnUse">
<stop offset="0.01" stop-color="white"/>
<stop offset="0.13" stop-color="white" stop-opacity="0.69"/>
<stop offset="1" stop-color="white" stop-opacity="0"/>
</linearGradient>
<linearGradient id="paint40_linear" x1="104.726" y1="558.25" x2="119.832" y2="558.25" gradientUnits="userSpaceOnUse">
<stop offset="0.01"/>
<stop offset="0.13" stop-opacity="0.69"/>
<stop offset="1" stop-opacity="0"/>
</linearGradient>
</defs>
</svg>
