<svg width="1089" height="240" viewBox="0 0 1089 240" fill="none" xmlns="http://www.w3.org/2000/svg">
<g clip-path="url(#clip0)">
<path d="M428.67 119.51C428.67 121.52 428.72 123.52 428.81 125.51" stroke="black" stroke-miterlimit="10"/>
<path d="M430 137.71C438.46 194.79 486.1 238.51 543.61 238.51C603.14 238.51 652.1 191.66 657.96 131.63" stroke="black" stroke-miterlimit="10" stroke-dasharray="12.26 12.26"/>
<path d="M658.4 125.51C658.5 123.52 658.54 121.52 658.54 119.51" stroke="black" stroke-miterlimit="10"/>
<path d="M986.55 119.51C986.55 117.5 986.5 115.5 986.41 113.51" stroke="black" stroke-miterlimit="10"/>
<path d="M985.21 101.31C976.75 44.23 929.11 0.51001 871.6 0.51001C812.07 0.51001 763.11 47.36 757.25 107.39" stroke="black" stroke-miterlimit="10" stroke-dasharray="12.26 12.26"/>
<path d="M756.81 113.51C756.71 115.5 756.67 117.5 756.67 119.51" stroke="black" stroke-miterlimit="10"/>
<path d="M330.09 119.5C330.09 117.49 330.04 115.49 329.95 113.5" stroke="black" stroke-miterlimit="10"/>
<path d="M328.75 101.3C320.29 44.22 272.65 0.5 215.15 0.5C155.62 0.5 106.66 47.35 100.8 107.38" stroke="black" stroke-miterlimit="10" stroke-dasharray="12.26 12.26"/>
<path d="M100.35 113.5C100.25 115.49 100.21 117.49 100.21 119.5" stroke="black" stroke-miterlimit="10"/>
<g filter="url(#filter0_d)">
<path d="M214.5 214.5C267.243 214.5 310 171.743 310 119C310 66.2568 267.243 23.5 214.5 23.5C161.757 23.5 119 66.2568 119 119C119 171.743 161.757 214.5 214.5 214.5Z" fill="white"/>
</g>
<g filter="url(#filter1_d)">
<path d="M871.5 214.5C924.243 214.5 967 171.743 967 119C967 66.2568 924.243 23.5 871.5 23.5C818.757 23.5 776 66.2568 776 119C776 171.743 818.757 214.5 871.5 214.5Z" fill="white"/>
</g>
<g filter="url(#filter2_d)">
<path d="M544.5 214.5C597.243 214.5 640 171.743 640 119C640 66.2568 597.243 23.5 544.5 23.5C491.757 23.5 449 66.2568 449 119C449 171.743 491.757 214.5 544.5 214.5Z" fill="white"/>
</g>
<path d="M0 119.5H6" stroke="black" stroke-miterlimit="10"/>
<path d="M18.63 119.5H88.09" stroke="black" stroke-miterlimit="10" stroke-dasharray="12.63 12.63"/>
<path d="M94.41 119.5H100.41" stroke="black" stroke-miterlimit="10"/>
<path d="M658.4 118.62H664.4" stroke="black" stroke-miterlimit="10"/>
<path d="M677.03 118.62H746.5" stroke="black" stroke-miterlimit="10" stroke-dasharray="12.63 12.63"/>
<path d="M752.81 118.62H758.81" stroke="black" stroke-miterlimit="10"/>
<path d="M329.4 119.62H335.4" stroke="black" stroke-miterlimit="10"/>
<path d="M348.03 119.62H417.5" stroke="black" stroke-miterlimit="10" stroke-dasharray="12.63 12.63"/>
<path d="M423.81 119.62H429.81" stroke="black" stroke-miterlimit="10"/>
<path d="M988.4 118.62H994.4" stroke="black" stroke-miterlimit="10"/>
<path d="M1007.03 118.62H1076.5" stroke="black" stroke-miterlimit="10" stroke-dasharray="12.63 12.63"/>
<path d="M1082.81 118.62H1088.81" stroke="black" stroke-miterlimit="10"/>
<path d="M160.94 160.94L159.76 156.28C157.66 155.39 155.52 154.62 153.34 153.97L153.19 156.14L152.58 153.75C149.87 152.98 148.03 152.64 148.03 152.64C148.03 152.64 150.52 162.1 155.74 169.33L161.82 170.4L157.1 171.08C157.76 171.87 158.46 172.62 159.21 173.32C166.8 180.37 175.26 183.6 178.1 180.54C180.94 177.48 177.09 169.29 169.49 162.24C167.14 160.06 164.18 158.3 161.22 156.92L160.94 160.94Z" fill="#F2F2F2"/>
<path d="M172.19 155.87L173.59 151.27C172.25 149.43 170.82 147.66 169.28 145.98L168.03 147.76L168.75 145.4C166.83 143.34 165.43 142.1 165.43 142.1C165.43 142.1 162.67 151.49 163.4 160.37L168.05 164.43L163.65 162.57C163.8 163.59 164.02 164.59 164.3 165.58C167.16 175.54 172.72 182.67 176.73 181.52C180.74 180.37 181.68 171.37 178.82 161.41C177.93 158.32 176.31 155.29 174.49 152.58L172.19 155.87Z" fill="#F2F2F2"/>
<path d="M241.72 79.4H240.98V59.2C240.98 52.74 235.74 47.5 229.28 47.5H186.47C180.01 47.5 174.77 52.74 174.77 59.2V170.05C174.77 176.51 180.01 181.75 186.47 181.75H229.28C235.74 181.75 240.97 176.51 240.97 170.05V93.78H241.71L241.72 79.4Z" fill="#E6E6E6"/>
<path d="M229.76 50.54H224.17C225.04 52.66 224.02 55.08 221.9 55.95C221.4 56.15 220.87 56.26 220.33 56.26H195.8C193.51 56.26 191.65 54.4 191.65 52.11C191.65 51.57 191.75 51.04 191.96 50.54H186.74C181.92 50.54 178.01 54.45 178.01 59.27V169.96C178.01 174.78 181.92 178.69 186.74 178.69H229.76C234.58 178.69 238.49 174.78 238.49 169.96V59.28C238.49 54.45 234.58 50.54 229.76 50.54Z" fill="white"/>
<path d="M202.77 94.64C202.77 93.07 203.61 91.61 204.97 90.82C202.86 89.6 200.17 90.32 198.95 92.43C197.73 94.54 198.45 97.23 200.56 98.45C201.92 99.24 203.6 99.24 204.97 98.45C203.61 97.67 202.77 96.21 202.77 94.64Z" fill="#CCCCCC"/>
<path d="M208.31 94.64C208.31 93.07 209.15 91.61 210.51 90.82C208.4 89.6 205.71 90.32 204.49 92.43C203.27 94.54 203.99 97.23 206.1 98.45C207.46 99.24 209.14 99.24 210.51 98.45C209.15 97.67 208.31 96.21 208.31 94.64Z" fill="#CCCCCC"/>
<path d="M213.72 99.05C216.156 99.05 218.13 97.0756 218.13 94.64C218.13 92.2044 216.156 90.23 213.72 90.23C211.284 90.23 209.31 92.2044 209.31 94.64C209.31 97.0756 211.284 99.05 213.72 99.05Z" fill="#00BFA6"/>
<path d="M221.09 108.4H195.4C194.89 108.4 194.48 107.99 194.48 107.48V81.79C194.48 81.28 194.89 80.87 195.4 80.87H221.09C221.6 80.87 222.01 81.28 222.01 81.79V107.48C222.01 107.99 221.6 108.4 221.09 108.4ZM195.4 81.24C195.09 81.24 194.85 81.49 194.85 81.79V107.48C194.85 107.79 195.1 108.03 195.4 108.03H221.09C221.4 108.03 221.64 107.78 221.64 107.48V81.79C221.64 81.48 221.39 81.24 221.09 81.24H195.4Z" fill="#CCCCCC"/>
<path d="M226.82 128.09H187.43V128.46H226.82V128.09Z" fill="#CCCCCC"/>
<path d="M188.67 125.78C189.355 125.78 189.91 125.225 189.91 124.54C189.91 123.855 189.355 123.3 188.67 123.3C187.985 123.3 187.43 123.855 187.43 124.54C187.43 125.225 187.985 125.78 188.67 125.78Z" fill="#00BFA6"/>
<path d="M226.82 140.53H187.43V140.9H226.82V140.53Z" fill="#CCCCCC"/>
<path d="M188.67 138.22C189.355 138.22 189.91 137.665 189.91 136.98C189.91 136.295 189.355 135.74 188.67 135.74C187.985 135.74 187.43 136.295 187.43 136.98C187.43 137.665 187.985 138.22 188.67 138.22Z" fill="#00BFA6"/>
<path d="M226.1 154.7H213.65C213.2 154.7 212.84 154.34 212.84 153.89V149.53C212.84 149.08 213.2 148.72 213.65 148.72H226.1C226.55 148.72 226.91 149.08 226.91 149.53V153.89C226.91 154.33 226.55 154.7 226.1 154.7Z" fill="#00BFA6"/>
<path d="M192.73 125.78C193.415 125.78 193.97 125.225 193.97 124.54C193.97 123.855 193.415 123.3 192.73 123.3C192.045 123.3 191.49 123.855 191.49 124.54C191.49 125.225 192.045 125.78 192.73 125.78Z" fill="#00BFA6"/>
<path d="M196.79 125.78C197.475 125.78 198.03 125.225 198.03 124.54C198.03 123.855 197.475 123.3 196.79 123.3C196.105 123.3 195.55 123.855 195.55 124.54C195.55 125.225 196.105 125.78 196.79 125.78Z" fill="#00BFA6"/>
<path d="M192.73 138.22C193.415 138.22 193.97 137.665 193.97 136.98C193.97 136.295 193.415 135.74 192.73 135.74C192.045 135.74 191.49 136.295 191.49 136.98C191.49 137.665 192.045 138.22 192.73 138.22Z" fill="#00BFA6"/>
<path d="M196.79 138.22C197.475 138.22 198.03 137.665 198.03 136.98C198.03 136.295 197.475 135.74 196.79 135.74C196.105 135.74 195.55 136.295 195.55 136.98C195.55 137.665 196.105 138.22 196.79 138.22Z" fill="#00BFA6"/>
<path d="M281.79 182.16H152.37C152.09 182.16 151.87 182.06 151.87 181.94C151.87 181.82 152.09 181.72 152.37 181.72H281.79C282.07 181.72 282.29 181.82 282.29 181.94C282.29 182.06 282.07 182.16 281.79 182.16Z" fill="#3F3D56"/>
<path d="M249.82 135.73C249.91 135.77 249.99 135.82 250.07 135.87L258.15 132.42L258.44 130.29L261.67 130.27L261.48 135.15L250.81 137.97C250.79 138.04 250.76 138.12 250.73 138.19C250.3 139.11 249.2 139.51 248.28 139.08C247.36 138.65 246.96 137.55 247.39 136.63C247.82 135.71 248.9 135.31 249.82 135.73Z" fill="#FFB8B8"/>
<path d="M262.85 179.99H260.64L259.59 171.46H262.85V179.99Z" fill="#FFB8B8"/>
<path d="M259.06 179.36H263.32V182.04H256.37C256.38 180.56 257.58 179.36 259.06 179.36Z" fill="#2F2E41"/>
<path d="M271.44 179.36L269.24 179.58L267.36 171.2L270.61 170.88L271.44 179.36Z" fill="#FFB8B8"/>
<path d="M267.61 179.11L271.85 178.69L272.11 181.36L265.2 182.04C265.06 180.56 266.14 179.25 267.61 179.11Z" fill="#2F2E41"/>
<path d="M263.46 121.25C265.907 121.25 267.89 119.267 267.89 116.82C267.89 114.373 265.907 112.39 263.46 112.39C261.013 112.39 259.03 114.373 259.03 116.82C259.03 119.267 261.013 121.25 263.46 121.25Z" fill="#FFB8B8"/>
<path d="M260.15 178.26C259.76 178.26 259.42 177.98 259.35 177.59C258.21 171.24 254.47 150.48 254.38 149.9C254.38 149.89 254.38 149.87 254.38 149.86V148.31C254.38 148.25 254.4 148.2 254.43 148.15L254.92 147.46C254.97 147.39 255.04 147.35 255.13 147.35C257.95 147.22 267.17 146.83 267.61 147.39C268.06 147.95 267.9 149.64 267.86 149.98V150.01L272 176.51C272.07 176.95 271.77 177.36 271.33 177.44L268.74 177.87C268.34 177.93 267.96 177.7 267.83 177.31C267.03 174.75 264.35 166.15 263.42 162.82C263.41 162.77 263.36 162.74 263.31 162.76C263.27 162.77 263.24 162.81 263.24 162.85C263.29 166.02 263.4 174.12 263.44 176.92V177.22C263.44 177.64 263.12 178 262.7 178.04L260.2 178.27C260.2 178.26 260.17 178.26 260.15 178.26Z" fill="#2F2E41"/>
<path d="M260.65 122.99C259.88 123.45 259.42 124.29 259.15 125.15C258.66 126.74 258.36 128.38 258.27 130.05L257.99 135.02L254.52 148.21C257.53 150.76 259.26 150.18 263.31 148.09C267.36 146.01 267.82 148.78 267.82 148.78L268.63 137.56L269.79 125.3C269.53 124.99 269.24 124.7 268.91 124.46C266.74 122.78 263.92 122.18 261.26 122.84L260.65 122.99Z" fill="#00BFA6"/>
<path d="M259.53 138.39C259.62 138.43 259.71 138.47 259.8 138.52L267.79 134.52L267.92 132.35L271.22 132.12L271.4 137.06L260.72 140.59C260.48 141.61 259.47 142.24 258.45 142C257.43 141.76 256.8 140.75 257.04 139.73C257.28 138.71 258.29 138.08 259.31 138.32C259.38 138.34 259.45 138.36 259.53 138.39Z" fill="#FFB8B8"/>
<path d="M269.74 125.36C271.71 126.05 272.05 133.57 272.05 133.57C269.74 132.3 266.96 134.38 266.96 134.38C266.96 134.38 266.38 132.41 265.69 129.87C265.26 128.41 265.61 126.84 266.62 125.71C266.61 125.71 267.77 124.66 269.74 125.36Z" fill="#00BFA6"/>
<path d="M267.43 117.99C266.88 117.55 266.13 118.35 266.13 118.35L265.69 114.38C265.69 114.38 262.93 114.71 261.17 114.27C259.41 113.83 259.13 115.87 259.13 115.87C259.04 115.05 259.02 114.22 259.07 113.39C259.18 112.4 260.61 111.4 263.15 110.74C265.69 110.08 267.01 112.95 267.01 112.95C268.78 113.83 267.99 118.43 267.43 117.99Z" fill="#2F2E41"/>
<path d="M860.14 86.31C858.05 86.69 855.9 87.51 854.6 89.2C853.88 90.24 853.36 91.4 853.05 92.63C850.5 100.91 849.21 109.51 847.92 118.08C847.77 119.12 847.65 120.31 848.32 121.11C848.83 121.62 849.48 121.96 850.18 122.09C852.82 122.81 855.54 123.17 858.27 123.15C859.15 123.07 860.04 123.19 860.87 123.5C861.4 123.8 861.87 124.19 862.26 124.65C864.43 126.88 866.73 129.08 869.52 130.49C874.07 132.79 879.4 132.81 884.5 132.77L901.61 132.65C903.37 132.65 905.36 132.52 906.5 131.19C908.18 129.26 906.94 126.35 906.01 123.98C903.18 116.76 903.82 108.57 901.24 101.25C903.29 101.22 904.9 102.89 906.41 104.28C908.76 106.45 911.49 108.17 914.45 109.38C915.77 106.35 917.26 103.4 918.92 100.54C919.77 99.07 920.7 97.47 920.42 95.8C920.15 94.22 918.87 93.01 917.66 91.98C915.01 89.66 912.35 87.34 909.62 85.13C907.54 83.45 905.32 81.78 902.7 81.15C901.19 80.86 899.65 80.76 898.12 80.84C887.51 80.98 877.57 81.68 867.52 85.22C865.17 86.02 862.57 85.85 860.14 86.31Z" fill="#6DD5BE"/>
<path d="M860.14 86.31C858.05 86.69 855.9 87.51 854.6 89.2C853.88 90.24 853.36 91.4 853.05 92.63C850.5 100.91 849.21 109.51 847.92 118.08C847.77 119.12 847.65 120.31 848.32 121.11C848.83 121.62 849.48 121.96 850.18 122.09C852.82 122.81 855.54 123.17 858.27 123.15C859.15 123.07 860.04 123.19 860.87 123.5C861.4 123.8 861.87 124.19 862.26 124.65C864.43 126.88 866.73 129.08 869.52 130.49C874.07 132.79 879.4 132.81 884.5 132.77L901.61 132.65C903.37 132.65 905.36 132.52 906.5 131.19C908.18 129.26 906.94 126.35 906.01 123.98C903.18 116.76 903.82 108.57 901.24 101.25C903.29 101.22 904.9 102.89 906.41 104.28C908.76 106.45 911.49 108.17 914.45 109.38C915.77 106.35 917.26 103.4 918.92 100.54C919.77 99.07 920.7 97.47 920.42 95.8C920.15 94.22 918.87 93.01 917.66 91.98C915.01 89.66 912.35 87.34 909.62 85.13C907.54 83.45 905.32 81.78 902.7 81.15C901.19 80.86 899.65 80.76 898.12 80.84C887.51 80.98 877.57 81.68 867.52 85.22C865.17 86.02 862.57 85.85 860.14 86.31Z" fill="url(#paint0_linear)"/>
<path d="M891.23 115.86C891.03 113.51 890.62 111.19 890.02 108.91C889.3 105.74 888.73 102.45 889.28 99.24C889.83 96.03 891.72 92.88 894.72 91.61C896.89 90.69 899.35 90.85 901.7 91.02C902.12 91 902.53 91.15 902.85 91.43C903 91.65 903.09 91.9 903.12 92.17C904.98 102.7 904.88 113.48 902.82 123.97C902.77 124.48 902.56 124.96 902.21 125.33C901.84 125.58 901.4 125.71 900.96 125.72C898.9 125.92 891.13 127.3 889.9 125.33C889.29 124.35 890.21 122.54 890.46 121.6C891.02 119.74 891.28 117.8 891.23 115.86Z" fill="url(#paint1_linear)"/>
<path d="M906.71 89.03C905.53 89.34 904.43 89.93 903.53 90.75C902.44 91.87 902.03 93.47 901.67 94.99L898.6 107.84C897.94 110.26 897.51 112.74 897.32 115.25C897.1 120.19 898.73 125 900.36 129.67C901.51 132.97 902.68 136.27 903.86 139.56L941.9 141.49C942.37 135.54 944.07 129.76 945.44 123.96C946.81 118.16 947.86 112.14 947.03 106.23C946.2 100.32 943.21 94.46 938.09 91.41C929.64 86.38 915.81 86.12 906.71 89.03Z" fill="#6DD5BE"/>
<path d="M920.45 93.52C920.4 94.15 920.45 94.78 920.58 95.39C920.72 96.01 921.13 96.53 921.7 96.82C922.49 97.17 923.4 96.82 924.19 96.45C926.7 95.28 929.3 93.71 930.28 91.13C930.74 89.67 930.89 88.14 930.73 86.62C930.6 83.83 930.3 80.91 929.05 78.37C928.88 77.94 928.6 77.57 928.24 77.29C927.27 76.61 925.94 77.24 925.04 77.99C922.97 79.71 921.5 82.03 920.83 84.63C920.21 87.42 920.53 90.65 920.45 93.52Z" fill="#F7BC9F"/>
<path d="M920.45 93.52C920.4 94.15 920.45 94.78 920.58 95.39C920.72 96.01 921.13 96.53 921.7 96.82C922.49 97.17 923.4 96.82 924.19 96.45C926.7 95.28 929.3 93.71 930.28 91.13C930.74 89.67 930.89 88.14 930.73 86.62C930.6 83.83 930.3 80.91 929.05 78.37C928.88 77.94 928.6 77.57 928.24 77.29C927.27 76.61 925.94 77.24 925.04 77.99C922.97 79.71 921.5 82.03 920.83 84.63C920.21 87.42 920.53 90.65 920.45 93.52Z" fill="url(#paint2_linear)"/>
<path d="M867.46 97.7C867.11 97.82 866.79 98.02 866.54 98.29C866.38 98.51 866.26 98.75 866.19 99.01C865.81 100.41 865.51 101.84 865.3 103.28C864.4 107.78 862.15 111.89 860.88 116.3C860.71 116.77 860.65 117.28 860.7 117.78C860.77 118.29 861.16 118.7 861.67 118.8C862.33 118.87 862.82 118.24 863.17 117.68C864.75 115.16 866.56 112.8 868.57 110.61C868.78 112.57 868.48 114.55 867.71 116.36C867.44 116.89 867.25 117.45 867.15 118.04C867.13 118.93 867.4 119.8 867.9 120.53C868.07 120.87 868.29 121.17 868.56 121.44C868.93 121.72 869.35 121.93 869.79 122.05C872.71 123.17 875.76 123.94 878.86 124.33C871.04 124.17 863.22 123.85 855.4 123.36C855.22 123.37 855.04 123.32 854.89 123.22C854.73 123.04 854.66 122.81 854.68 122.57C854.77 120.95 855.15 119.36 855.8 117.88C857.69 112.77 859.65 107.68 861.95 102.76C863.22 100.04 864.74 97.22 867.32 95.71C868.2 95.23 869.12 94.84 870.08 94.54L874.26 93.06C874.86 95.72 869.17 96.98 867.46 97.7Z" fill="url(#paint3_linear)"/>
<path d="M950.2 150.72C950.2 153.34 949.08 155.88 947.04 158.29C938.34 157.9 929.62 157.42 921 157.96C907.73 158.8 895.2 164.11 882.54 167.73C864.83 172.76 846.29 174.16 828.02 171.84C821.41 171 814.74 169.61 808.95 166.31C803.17 163.02 798.55 157.87 794.62 152.46C790.84 147.38 787.76 141.81 785.45 135.91C801.04 127.68 829.2 122.2 861.38 122.2C910.43 122.2 950.2 134.96 950.2 150.72Z" fill="#6DD5BE"/>
<path d="M950.2 150.72C950.2 153.34 949.08 155.88 947.04 158.29C938.34 157.9 929.62 157.42 921 157.96C907.73 158.8 895.2 164.11 882.54 167.73C864.83 172.76 846.29 174.16 828.02 171.84C821.41 171 814.74 169.61 808.95 166.31C803.17 163.02 798.55 157.87 794.62 152.46C790.84 147.38 787.76 141.81 785.45 135.91C801.04 127.68 829.2 122.2 861.38 122.2C910.43 122.2 950.2 134.96 950.2 150.72Z" fill="url(#paint4_linear)"/>
<path d="M908.61 140.29C908.35 139.44 908.24 138.55 908.29 137.66C906.32 138.98 904.27 140.34 901.93 140.7C899.59 141.06 896.87 140.14 895.89 138.01C895.09 136.26 895.61 134.23 895.62 132.31C895.63 130.7 895.28 129.11 894.59 127.65C894.32 126.96 893.85 126.37 893.24 125.94C892.77 125.69 892.25 125.52 891.72 125.45C881.86 123.59 871.76 123.49 861.87 125.16C861.59 125.17 861.32 125.31 861.15 125.54C861.03 125.8 861.38 126.15 861.57 125.94C856.77 126.75 851.88 126.85 847.05 126.24C847.46 125.23 848.51 124.64 849.51 124.2C853.94 122.27 858.87 121.85 863.7 121.67C880.89 121.02 898.07 123.03 914.65 127.64C918.33 128.66 922.24 129.81 925.38 132.06C926.91 133.18 930.51 136.07 930.21 138.31C929.82 141.14 923.91 139.99 921.83 140.05C920.64 140.05 908.79 140.83 908.61 140.29Z" fill="url(#paint5_linear)"/>
<path d="M909.7 125.66C909.07 128.45 908.42 131.29 906.78 133.6C906.69 129.73 906.56 125.7 904.75 122.27C904.52 121.89 904.33 121.48 904.19 121.05C904.1 120.66 904.07 120.26 904.1 119.85C904.18 115.97 904.68 112.11 905.6 108.34C906.13 105.81 907.09 103.4 908.43 101.19C909.69 102.84 910.98 104.48 912.3 106.11L914.72 98.17L917.36 104.51C918.66 104.41 919.27 102.83 919.34 101.55C919.41 100.27 919.34 98.78 920.23 97.85C921.12 96.92 922.7 96.98 924.04 97.15C924.66 97.12 925.18 97.59 925.22 98.21C925.22 98.3 925.22 98.39 925.2 98.48C925.51 102.33 925.7 106.19 925.76 110.04L933.13 104.38C930.9 106.45 928.63 108.52 926.43 110.63C925.1 111.83 923.88 113.15 922.8 114.57C921.83 115.96 921.04 117.46 920.43 119.04C919.17 122.18 918.36 125.48 918.02 128.84C917.85 130.52 917.64 132.53 916.17 133.38C914.46 130.03 913.34 126.41 912.85 122.69C912.77 122.03 912.44 119.34 911.03 120.51C910.54 120.91 910.51 122.19 910.38 122.8L909.7 125.66Z" fill="url(#paint6_linear)"/>
<path d="M887.74 158.74C892.037 158.74 895.52 157.903 895.52 156.87C895.52 155.837 892.037 155 887.74 155C883.443 155 879.96 155.837 879.96 156.87C879.96 157.903 883.443 158.74 887.74 158.74Z" fill="url(#paint7_linear)"/>
<path d="M805.79 139.27C810.087 139.27 813.57 138.433 813.57 137.4C813.57 136.367 810.087 135.53 805.79 135.53C801.493 135.53 798.01 136.367 798.01 137.4C798.01 138.433 801.493 139.27 805.79 139.27Z" fill="url(#paint8_linear)"/>
<path d="M819.3 138.42C821.92 137.6 824.58 136.92 827.28 136.38C831.17 135.73 835.12 135.52 839.06 135.77C843.11 135.98 847.14 136.5 851.11 137.32C853.39 137.72 855.61 138.4 857.71 139.35C859.83 140.31 861.61 141.89 862.83 143.86C864.28 146.1 864.16 149.01 862.53 151.12C860.96 153.18 858.76 154.67 856.26 155.36C853.78 156.04 851.22 156.42 848.65 156.48C838.78 157.04 828.47 156.73 819.6 152.3C817.97 151.55 816.48 150.52 815.19 149.26C813.19 147.3 812.46 144.38 813.3 141.71C814.11 139.3 817.22 139.03 819.3 138.42Z" fill="url(#paint9_linear)"/>
<path d="M906.53 76.67C907.03 81.2 908.13 85.69 907.91 90.24C907.65 95.63 905.54 100.81 905.37 106.2C905.23 110.95 906.59 115.63 909.25 119.56C909.38 115.85 909.86 112.16 910.68 108.53C910.82 109.11 911.11 109.64 911.52 110.08C911.86 108.32 912.05 106.54 912.11 104.76C912.13 105.14 912.32 105.49 912.61 105.73C913.09 99.8 914.35 94 915.14 88.08C915.93 82.16 916.26 76.12 914.87 70.34C914.23 67.68 913.1 64.93 910.81 63.45C906.37 60.57 906.32 74.62 906.53 76.67Z" fill="#734A39"/>
<path d="M906.53 76.67C907.03 81.2 908.13 85.69 907.91 90.24C907.65 95.63 905.54 100.81 905.37 106.2C905.23 110.95 906.59 115.63 909.25 119.56C909.38 115.85 909.86 112.16 910.68 108.53C910.82 109.11 911.11 109.64 911.52 110.08C911.86 108.32 912.05 106.54 912.11 104.76C912.13 105.14 912.32 105.49 912.61 105.73C913.09 99.8 914.35 94 915.14 88.08C915.93 82.16 916.26 76.12 914.87 70.34C914.23 67.68 913.1 64.93 910.81 63.45C906.37 60.57 906.32 74.62 906.53 76.67Z" fill="url(#paint10_linear)"/>
<path d="M902.51 87.36C901.25 88.29 900.3 89.57 899.78 91.04C899.59 91.7 899.46 92.37 899.39 93.06L898.92 96.66C898.71 97.53 898.79 98.44 899.13 99.27C899.72 100.39 901.16 100.72 902.39 100.54C903.62 100.36 904.75 99.77 905.95 99.42C906.81 99.25 907.65 98.99 908.46 98.66C909.08 98.3 909.64 97.87 910.14 97.36C913.17 94.53 916.19 91.52 917.8 87.71C917.92 87.48 917.98 87.22 918 86.96C917.98 86.62 917.85 86.29 917.63 86.02C916.68 84.79 914.98 84.48 913.43 84.34C911.87 84.21 910.31 84.17 908.75 84.22C906.69 84.3 904.08 86.11 902.51 87.36Z" fill="#6DD5BE"/>
<path d="M907.8 94.76C905.42 96.31 902.52 97.05 900.4 98.94C900.18 99.09 900.05 99.33 900.04 99.59C900.07 99.74 900.16 99.88 900.28 99.97C900.95 100.44 901.81 100.54 902.57 100.24C903.31 99.93 904.07 99.68 904.85 99.47C905.53 99.36 906.22 99.47 906.9 99.34C908.16 99.13 909.19 98.22 910.15 97.38C912.07 95.72 913.89 93.93 915.59 92.03C915.76 91.86 915.88 91.65 915.94 91.42C915.95 91.2 915.9 90.99 915.79 90.8C915.61 90.29 915.33 89.83 914.96 89.44C914.52 89.14 914.26 89.35 913.71 89.48C913.06 89.55 912.48 89.9 912.11 90.43C910.79 92.07 909.56 93.61 907.8 94.76Z" fill="url(#paint11_linear)"/>
<path d="M905.25 95.32C903.73 96.36 902.35 97.72 900.56 98.16C900.4 98.22 900.21 98.2 900.07 98.1C899.99 98.01 899.95 97.89 899.95 97.77C899.83 97.25 899.87 96.71 900.07 96.22C900.41 95.59 901.19 95.37 901.87 95.16C904.66 94.28 907.1 92.49 909.46 90.72C910.62 89.85 911.76 88.85 912.99 88.1C913.68 89.63 911.46 91.14 910.5 91.97C908.9 93.33 906.96 94.13 905.25 95.32Z" fill="url(#paint12_linear)"/>
<path d="M907.03 91.71C906.49 92.1 905.88 92.38 905.23 92.54C904.72 92.62 904.2 92.54 903.68 92.6C902.66 92.79 901.7 93.24 900.89 93.9C900.61 94.14 900.25 94.28 899.88 94.29C899.52 94.26 899.18 93.83 899.38 93.51C899.14 94.86 898.98 96.23 898.9 97.6C898.62 96.1 898.97 94.55 899.31 93.06C899.49 92.07 899.82 91.1 900.29 90.21C900.66 89.64 901.1 89.11 901.59 88.63C902.43 87.7 903.36 86.87 904.38 86.16C906.87 84.62 909.85 84.1 912.72 84.72C915.14 85.19 912.57 87.51 911.6 88.27C910.08 89.43 908.66 90.67 907.03 91.71Z" fill="url(#paint13_linear)"/>
<path d="M883.5 98.26C883.08 98.64 882.58 98.91 882.04 99.06C881.52 99.17 880.97 99.16 880.45 99.03C879.98 98.93 879.53 98.78 879.09 98.58C877.62 97.86 876.3 96.85 875.22 95.62C873.9 94.25 872.75 92.74 871.79 91.11C871.48 90.52 871.12 89.96 870.72 89.43C870.19 88.84 869.6 88.31 868.95 87.85C867.55 86.73 866.28 85.46 865.15 84.08C862.65 81.02 860.87 77.44 859.95 73.61C859.79 72.65 859.7 71.68 859.7 70.71C859.57 68.79 859.58 66.86 859.73 64.93C859.78 63.74 860.04 62.57 860.5 61.48C861.14 60.32 861.98 59.28 862.99 58.42C863.73 57.64 864.62 57.01 865.6 56.58C866.34 56.34 867.11 56.22 867.88 56.21C869 56.16 870.11 56.15 871.23 56.21C871.81 56.22 872.38 56.3 872.93 56.46C873.5 56.68 874.03 57.01 874.48 57.43C876.86 59.5 877.97 62.94 878.81 65.99L879.93 65.2C880.06 65.09 880.22 65.02 880.39 64.99C880.63 65 880.85 65.11 881 65.29C882.34 66.48 883.46 68.18 883.14 69.94C882.91 71.28 881.89 72.35 881.56 73.65C881.42 74.31 881.37 74.99 881.42 75.67C881.51 79.28 881.64 83.08 883.5 86.17C884.09 87.16 884.84 88.04 885.36 89.07C886.89 92.2 886.12 95.97 883.5 98.26Z" fill="#F7BC9F"/>
<path d="M879.19 93.09C879.16 93.38 879.21 93.68 879.31 93.95C879.72 95.48 879.64 97.1 879.09 98.58C877.62 97.86 876.3 96.85 875.22 95.62C873.9 94.25 872.75 92.74 871.79 91.11C871.48 90.52 871.12 89.96 870.72 89.43C870.19 88.84 869.6 88.31 868.95 87.85C867.55 86.73 866.28 85.46 865.15 84.08C865.14 83.59 865.22 83.11 865.41 82.66C869.88 83.29 874.41 83.31 878.88 82.74C879.25 82.65 879.64 82.68 880 82.82C880.17 82.91 880.31 83.03 880.44 83.17L882.55 85.24C882.84 85.51 883.1 85.81 883.32 86.15C883.97 87.31 883.4 88.81 882.52 89.79C881.64 90.77 880.45 91.47 879.57 92.47C879.39 92.65 879.26 92.86 879.19 93.09Z" fill="url(#paint14_linear)"/>
<path d="M867.17 95.13C869.33 94.18 872.1 94.49 873.76 92.81C873.86 92.73 873.93 92.61 873.95 92.48C873.95 92.15 873.51 92.05 873.18 92.07C872.14 92.23 871.08 92.27 870.03 92.19C868.96 92.11 868.01 91.51 867.47 90.59C867.02 89.67 867.23 88.58 867.23 87.56C867.23 86.54 866.83 85.33 865.84 85.07C865.19 84.97 864.53 85.16 864.03 85.6C862.29 86.88 861.5 89.13 861.39 91.29C861.23 93.09 861.68 94.89 862.66 96.4C863.29 97.29 863.72 97.71 864.62 96.96C865.39 96.23 866.24 95.62 867.17 95.13Z" fill="#F7BC9F"/>
<path d="M867.17 95.13C869.33 94.18 872.1 94.49 873.76 92.81C873.86 92.73 873.93 92.61 873.95 92.48C873.95 92.15 873.51 92.05 873.18 92.07C872.14 92.23 871.08 92.27 870.03 92.19C868.96 92.11 868.01 91.51 867.47 90.59C867.02 89.67 867.23 88.58 867.23 87.56C867.23 86.54 866.83 85.33 865.84 85.07C865.19 84.97 864.53 85.16 864.03 85.6C862.29 86.88 861.5 89.13 861.39 91.29C861.23 93.09 861.68 94.89 862.66 96.4C863.29 97.29 863.72 97.71 864.62 96.96C865.39 96.23 866.24 95.62 867.17 95.13Z" fill="url(#paint15_linear)"/>
<path d="M882.71 82.15C882.99 82.44 883.22 82.79 883.37 83.16C883.72 83.73 883.91 84.38 883.93 85.04C883.88 85.45 883.75 85.84 883.54 86.2C882.58 87.99 880.83 89.21 879.07 90.23C878.34 90.66 877.57 91.03 876.79 91.35C875.94 91.66 875.08 91.91 874.2 92.1C872.51 92.55 870.76 92.79 869.01 92.81C868.77 92.82 868.53 92.78 868.31 92.69C867.98 92.51 867.75 92.18 867.7 91.81C867.65 91.43 867.69 91.05 867.83 90.69C868.11 89.95 868.52 89.28 869.05 88.7C871.32 86.04 874.6 84.45 877.9 83.3C878.54 83.1 879.17 82.84 879.77 82.53C880.69 82.04 881.7 81.22 882.71 82.15Z" fill="#6DD5BE"/>
<path d="M882.71 82.15C882.99 82.44 883.22 82.79 883.37 83.16C883.72 83.73 883.91 84.38 883.93 85.04C883.88 85.45 883.75 85.84 883.54 86.2C882.58 87.99 880.83 89.21 879.07 90.23C878.34 90.66 877.57 91.03 876.79 91.35C875.94 91.66 875.08 91.91 874.2 92.1C872.51 92.55 870.76 92.79 869.01 92.81C868.77 92.82 868.53 92.78 868.31 92.69C867.98 92.51 867.75 92.18 867.7 91.81C867.65 91.43 867.69 91.05 867.83 90.69C868.11 89.95 868.52 89.28 869.05 88.7C871.32 86.04 874.6 84.45 877.9 83.3C878.54 83.1 879.17 82.84 879.77 82.53C880.69 82.04 881.7 81.22 882.71 82.15Z" fill="url(#paint16_linear)"/>
<path d="M882.29 80.63C882.57 80.92 882.8 81.27 882.96 81.65C883.3 82.22 883.48 82.87 883.49 83.53C883.45 83.94 883.31 84.33 883.1 84.69C882.14 86.48 880.39 87.7 878.63 88.72C877.9 89.15 877.13 89.52 876.35 89.84C875.51 90.15 874.64 90.4 873.76 90.59C872.06 91.04 870.32 91.28 868.56 91.3C868.32 91.31 868.08 91.27 867.86 91.18C867.53 91 867.3 90.68 867.25 90.3C867.2 89.92 867.24 89.54 867.38 89.18C867.66 88.45 868.07 87.77 868.6 87.19C870.87 84.53 874.15 82.94 877.45 81.79C878.09 81.59 878.71 81.33 879.31 81.02C880.28 80.52 881.3 79.69 882.29 80.63Z" fill="url(#paint17_linear)"/>
<path d="M880.48 79.5199C880.91 79.5599 881.33 79.7 881.71 79.93C882.61 80.55 882.65 81.9099 882.24 82.9199C881.58 84.2999 880.54 85.4599 879.24 86.2699C876.6 88.1399 873.58 89.4199 870.4 90.0199C869.28 90.2599 868.13 90.3199 866.99 90.1999C866.87 90.1899 866.75 90.15 866.65 90.08C866.55 89.97 866.5 89.81 866.51 89.66C866.39 87.08 867.37 84.58 869.21 82.76C870.95 81.02 873.22 79.8999 875.66 79.5599C877.24 79.2899 878.88 79.2699 880.48 79.5199Z" fill="#6DD5BE"/>
<path d="M880.48 79.5199C880.91 79.5599 881.33 79.7 881.71 79.93C882.61 80.55 882.65 81.9099 882.24 82.9199C881.58 84.2999 880.54 85.4599 879.24 86.2699C876.6 88.1399 873.58 89.4199 870.4 90.0199C869.28 90.2599 868.13 90.3199 866.99 90.1999C866.87 90.1899 866.75 90.15 866.65 90.08C866.55 89.97 866.5 89.81 866.51 89.66C866.39 87.08 867.37 84.58 869.21 82.76C870.95 81.02 873.22 79.8999 875.66 79.5599C877.24 79.2899 878.88 79.2699 880.48 79.5199Z" fill="url(#paint18_linear)"/>
<path d="M870.27 81.46C869.96 81.02 869.96 80.43 870.27 79.99C870.57 79.56 870.99 79.22 871.47 79.01C872.36 78.54 873.32 78.22 874.31 78.05C874.96 77.92 875.64 77.93 876.29 78.08C876.94 78.24 877.49 78.69 877.78 79.3" fill="white"/>
<path d="M909 79.45C909.05 81.52 909.3 83.57 909.74 85.6C910.2 87.45 911.05 89.3 912.57 90.46C914.51 91.94 917.32 92.01 919.53 90.96C921.72 89.82 923.43 87.93 924.35 85.64C925.26 83.36 925.78 80.95 925.88 78.49C926.13 74.95 925.96 71.27 924.46 68.04C922.96 64.82 919.9 62.14 916.35 61.93C913.18 61.74 908.68 62.65 908.34 66.4C907.93 70.62 908.75 75.22 909 79.45Z" fill="#F7BC9F"/>
<path d="M914.84 83.4C915.1 83.37 915.37 83.42 915.6 83.56C915.72 83.66 915.81 83.78 915.86 83.92C916.12 84.49 916.12 85.15 915.86 85.72C915.84 85.77 915.8 85.82 915.75 85.84C915.71 85.85 915.67 85.85 915.63 85.84C914.59 85.4 913.23 84.9 912.37 84.16C911.81 83.67 912.37 83.6 912.84 83.55C913.52 83.45 914.18 83.41 914.84 83.4Z" fill="white"/>
<path d="M897.3 105.75C897.02 102.26 898.47 98.9 899.88 95.69C899.93 95.55 900 95.42 900.09 95.3C900.25 95.12 900.44 94.9699 900.65 94.8499C901.62 94.2399 902.54 93.55 903.44 92.87C904.74 91.9 906.12 90.8299 906.57 89.2699C906.03 89.1899 905.49 89.3399 905.07 89.6799C903.07 90.8599 900.97 91.84 898.79 92.62C899.08 91.73 899.59 90.9399 900.28 90.3099C900.43 90.1699 900.6 90.0599 900.78 89.9699C901.04 89.8899 901.3 89.86 901.57 89.87C902.87 89.85 904.14 89.5599 905.33 89.0399C905.66 88.8899 906.04 88.5799 905.89 88.2499C905.79 88.0299 905.5 87.9799 905.26 87.9599L903.26 87.8L905.16 86.3799C905.42 86.1899 905.69 85.8199 905.44 85.5999C904.13 85.4399 902.8 85.4 901.48 85.48C901.01 85.55 900.53 85.55 900.06 85.48C899.65 85.4 899.27 85.1999 898.86 85.0999C897.6 84.7999 896.33 85.4599 895.27 86.1799C894.24 86.8799 893.27 87.6699 892.38 88.5299C891.9 88.9499 891.5 89.4499 891.21 90.0199C890.91 90.8199 890.8 91.6799 890.87 92.5299L890.97 100.24C891 103.03 891.06 105.97 892.28 108.51C895.32 114.83 894.3 121.8 896.01 128.62C896.78 131.7 897.69 134.85 899.64 137.35C899.99 137.87 900.48 138.28 901.05 138.55C901.79 138.77 902.6 138.7 903.28 138.34C905.32 137.4 906.56 135.19 906.81 132.96C907.06 130.73 906.45 128.49 905.6 126.41C904.19 122.96 902.11 119.83 900.38 116.54C898.64 113.19 897.59 109.52 897.3 105.75Z" fill="#F7BC9F"/>
<path d="M923.03 106.31C923.01 100.58 922.41 94.86 921.24 89.25C921.16 88.7 920.97 88.18 920.68 87.71C920.34 87.32 919.92 86.99 919.45 86.76C917.58 85.67 915.67 84.56 913.56 84.1C912.3 83.82 911 83.78 909.74 83.51C909.35 83.39 908.93 83.36 908.53 83.42C907.96 83.64 907.48 84.06 907.2 84.61C907.8 85.07 908.32 85.65 908.91 86.12C908 85.89 907.06 85.8 906.12 85.86C905.96 86.34 906.46 86.77 906.9 87.02C907.62 87.43 908.37 87.79 909.13 88.1C909.9 88.36 910.64 88.72 911.31 89.17C912.37 89.98 912.9 91.27 913.39 92.52L916.03 99.1C916.25 99.59 916.41 100.1 916.52 100.63C916.61 101.46 916.57 102.29 916.41 103.11C916.2 104.78 916.12 106.46 916.19 108.14C916.52 116.46 911.85 124.23 913.17 132.45C913.48 134.38 914 136.36 915.25 137.85C915.6 138.35 916.13 138.7 916.73 138.82C917.15 138.85 917.57 138.76 917.94 138.57C919.78 137.71 920.86 135.78 921.68 133.92C925.67 124.88 923.08 116.15 923.03 106.31Z" fill="#F7BC9F"/>
<path d="M909.7 56.89C909.95 56.61 910.22 56.36 910.53 56.14C911.72 55.42 913.06 54.97 914.44 54.84C915.74 54.64 917.05 54.53 918.35 54.45C921.1 54.14 923.88 54.7 926.3 56.04C929.39 57.5 932.63 59.39 934.45 62.34C936.48 65.63 937.43 69.48 937.15 73.35C937.05 74.63 936.81 75.95 937.15 77.19C937.57 78.87 938.94 80.27 938.94 81.98C938.94 82.93 938.53 83.83 938.42 84.77C938.14 87.34 940.17 89.51 941.24 91.86C942.09 93.75 942.33 95.86 941.92 97.9C941.44 96.83 939.85 96.78 938.88 97.43C937.91 98.07 937.4 99.22 936.8 100.22C935.87 101.76 934.45 102.89 933.54 104.4C932.57 106.01 931.82 107.67 930.64 109.19C929.44 110.74 928.1 112.18 926.65 113.5C925.95 114.14 922.11 116.35 921.98 117.08C922.48 114.35 922.85 111.61 923.29 108.86C923.65 106.66 924.67 104.64 925.01 102.46C925.29 100.67 924.73 98.8 925.22 97.05C925.64 95.58 926.79 94.26 926.58 92.71C926.4 92.02 926.17 91.34 925.9 90.68C925.28 88.53 926.58 86.35 927.08 84.17C927.19 83.78 927.21 83.36 927.13 82.96C926.9 82.37 926.51 81.85 926.01 81.46C923.61 79.1 923.02 75.76 921.37 72.96C921.13 72.55 918.69 69.61 918.76 69.45L918.32 70.57C917.13 69.2 915.82 67.78 914.08 67.26C912.99 67.01 911.87 66.92 910.76 66.99C909.78 66.99 908.8 66.93 907.83 66.82C907.39 66.8 906.96 66.69 906.57 66.49C905.68 65.97 905.49 64.74 905.72 63.74C906.06 62.38 906.99 61.23 908.26 60.62C908.44 60.56 908.6 60.44 908.71 60.28C908.76 60.1 908.76 59.9 908.71 59.72C908.61 58.67 908.97 57.63 909.7 56.89Z" fill="#734A39"/>
<path d="M859.75 86.46C860.39 85.66 861.34 85.16 862.17 84.56C863.21 83.81 864.12 82.84 865.31 82.33C866.19 82.01 867.12 81.86 868.06 81.88C869.64 81.83 871.22 81.91 872.79 82.12C872.82 82.71 872.36 83.21 871.77 83.24C871.73 83.24 871.69 83.24 871.64 83.24L872.2 84.07C870.78 85.12 868.76 84.35 867.04 84.7C865.59 85.01 864.41 86.08 863.97 87.49C866.44 87.46 868.91 87.46 871.38 87.49C871.48 88.19 870.63 88.61 869.92 88.71C868.71 88.9 867.46 88.86 866.27 89.17C865.08 89.48 863.91 90.25 863.58 91.4C863.16 92.93 864.28 94.42 864.6 95.97C864.76 97.02 864.72 98.09 864.47 99.12C864.01 101.22 863.41 103.3 862.68 105.32C860.89 110.53 858.92 115.68 856.78 120.76C856.33 121.82 855.82 122.94 854.85 123.55C853.98 124.03 852.98 124.21 852 124.07C850.73 124.03 849.51 123.57 848.53 122.75C847.22 121.52 846.96 119.48 847.38 117.72C847.8 115.96 848.78 114.42 849.68 112.87C851.17 110.29 852.47 107.6 854.01 105.05C855.32 102.93 857.54 100.88 858.18 98.42C858.77 96.14 858.47 93.39 858.6 91.05C858.68 89.55 858.71 87.77 859.75 86.46Z" fill="#F7BC9F"/>
<path d="M854.82 58.44C853.91 59.61 853.53 61.11 853.79 62.57C854.05 64.01 854.54 65.4 855.23 66.69C856.27 68.84 857.51 71.04 859.57 72.22C860.72 69.94 859.65 67.11 860.39 64.67C860.43 64.49 860.52 64.33 860.65 64.21C860.8 64.12 860.97 64.07 861.15 64.06C863.88 63.84 866.93 64.16 869.06 62.44C870.07 62.9 871.14 63.22 872.24 63.39C873.36 63.55 874.49 63.23 875.36 62.5C878.03 63.71 879.71 66.42 879.59 69.35C879.78 67.7 879.87 66.04 879.86 64.38L880.98 65.07C880.99 62.51 880.74 59.95 880.24 57.43C880.07 56.24 879.66 55.1 879.03 54.08C877.91 52.44 875.9 51.62 873.94 51.29C868.9 50.54 863.87 52.51 859.12 54.48C857.95 54.97 856.71 55.51 856.03 56.58C855.24 57.8 855.39 59.37 855.57 60.83" fill="#F05A20"/>
<path d="M880.5 67.52C880.5 67.39 880.56 67.22 880.68 67.23C880.74 67.24 880.8 67.27 880.84 67.31C881.51 67.8 882.01 68.49 882.27 69.28C882.38 69.81 882.28 70.37 881.99 70.82C881.77 71.16 881.2 71.74 880.74 71.73C880.29 71.72 880.06 71.04 880.18 70.61C880.3 70.18 880.81 69.88 880.85 69.4C880.93 68.81 880.47 68.18 880.5 67.52Z" fill="url(#paint19_linear)"/>
<path d="M869.28 73.1C869.29 74.18 869.43 75.25 869.68 76.29C869.71 76.6 869.98 76.82 870.29 76.79C870.3 76.79 870.32 76.79 870.33 76.78C870.7 76.79 871.08 76.77 871.45 76.72C871.84 76.71 872.2 76.53 872.44 76.23C871.94 75.73 871.1 75.7 870.59 75.21C870.28 74.84 870.05 74.4 869.93 73.93C869.75 73.4 869.51 72.9 869.23 72.42L869.38 73.91" fill="url(#paint20_linear)"/>
<path d="M820.28 134.91C822.9 134.09 825.57 133.4 828.26 132.87C832.15 132.22 836.1 132.01 840.04 132.26C844.08 132.47 848.1 132.99 852.07 133.8C854.35 134.2 856.57 134.88 858.67 135.83C860.79 136.79 862.57 138.36 863.79 140.34C865.24 142.58 865.11 145.49 863.48 147.6C862.01 149.7 859.66 151.08 857.21 151.84C854.73 152.52 852.18 152.9 849.61 152.96C839.73 153.52 829.43 153.21 820.56 148.78C818.93 148.03 817.44 147 816.16 145.74C814.15 143.78 813.42 140.86 814.27 138.19C815.07 135.77 818.18 135.5 820.28 134.91Z" fill="white"/>
<path opacity="0.18" d="M826.95 137.59C828.65 137.06 830.38 136.62 832.13 136.27C834.66 135.84 837.23 135.71 839.79 135.87C842.42 136.01 845.03 136.35 847.61 136.88C849.09 137.14 850.53 137.58 851.9 138.2C853.29 138.82 854.45 139.84 855.25 141.13C855.7 141.88 855.93 142.75 855.89 143.63C855.82 144.44 855.53 145.21 855.05 145.86C854.03 147.2 852.6 148.17 850.98 148.61C849.37 149.05 847.71 149.29 846.04 149.32C839.62 149.67 832.92 149.48 827.17 146.6C826.11 146.11 825.14 145.44 824.31 144.63C823.01 143.35 822.53 141.45 823.08 139.71C823.57 138.17 825.59 137.99 826.95 137.59Z" fill="#6DD5BE"/>
<path d="M885.77 157.57C888.592 157.57 890.88 156.876 890.88 156.02C890.88 155.164 888.592 154.47 885.77 154.47C882.948 154.47 880.66 155.164 880.66 156.02C880.66 156.876 882.948 157.57 885.77 157.57Z" fill="white"/>
<path d="M878.58 141.07L880.67 156.02H890.88L892.24 141.07H878.58Z" fill="white"/>
<path d="M879.95 146.15L881.18 155.58C881.18 155.58 885.78 158.37 890.01 155.58L890.86 146.14C890.86 146.14 889.64 144.24 884.93 144.46C880.21 144.68 879.95 146.15 879.95 146.15Z" fill="#6DD5BE"/>
<path d="M885.41 143.15C889.182 143.15 892.24 142.219 892.24 141.07C892.24 139.921 889.182 138.99 885.41 138.99C881.638 138.99 878.58 139.921 878.58 141.07C878.58 142.219 881.638 143.15 885.41 143.15Z" fill="white"/>
<path d="M885.41 147.81C888.425 147.81 890.87 147.067 890.87 146.15C890.87 145.233 888.425 144.49 885.41 144.49C882.394 144.49 879.95 145.233 879.95 146.15C879.95 147.067 882.394 147.81 885.41 147.81Z" fill="url(#paint21_linear)"/>
<path d="M803.83 138.14C806.652 138.14 808.94 137.446 808.94 136.59C808.94 135.734 806.652 135.04 803.83 135.04C801.008 135.04 798.72 135.734 798.72 136.59C798.72 137.446 801.008 138.14 803.83 138.14Z" fill="white"/>
<path d="M796.64 121.64L798.72 136.59H808.93L810.3 121.64H796.64Z" fill="white"/>
<path d="M798.01 126.72L799.26 136.16C799.26 136.16 803.86 138.95 808.09 136.16L808.93 126.72C808.93 126.72 807.71 124.81 803 125.04C798.29 125.28 798.01 126.72 798.01 126.72Z" fill="#6DD5BE"/>
<path d="M803.47 123.72C807.242 123.72 810.3 122.789 810.3 121.64C810.3 120.491 807.242 119.56 803.47 119.56C799.698 119.56 796.64 120.491 796.64 121.64C796.64 122.789 799.698 123.72 803.47 123.72Z" fill="white"/>
<path d="M803.47 128.38C806.485 128.38 808.93 127.637 808.93 126.72C808.93 125.803 806.485 125.06 803.47 125.06C800.454 125.06 798.01 125.803 798.01 126.72C798.01 127.637 800.454 128.38 803.47 128.38Z" fill="url(#paint22_linear)"/>
<path d="M925.95 78.24C926.1 78.08 926.28 77.95 926.48 77.85C926.81 77.73 927.17 77.7 927.52 77.76C927.66 77.76 927.81 77.79 927.93 77.86C928.03 77.94 928.11 78.05 928.15 78.17C928.64 79.36 928.64 80.69 928.15 81.87C927.93 82.54 927.52 83.12 926.97 83.55C926.4 83.98 925.63 84.03 925 83.68C924.18 83.15 923.8 81.57 923.97 80.65C924.13 79.73 925.28 78.85 925.95 78.24Z" fill="#F7BC9F"/>
<path d="M917.96 138.54C917.96 138.54 933.36 135.15 935.93 130.66C938.5 126.16 942.16 112.53 942.16 112.53L939.14 101.95L935.61 104.36L923.75 118C923.74 117.99 925.52 134.07 917.96 138.54Z" fill="#6DD5BE"/>
<path d="M942.72 114.99C940.17 116.23 938.4 118.65 936.99 121.11C935.58 123.57 934.4 126.2 932.52 128.37C931.44 129.62 930.15 130.67 929.06 131.9C927.68 133.47 926.5 135.43 924.51 136.08C922.9 136.64 920.92 136.21 919.66 137.35C923.62 137.28 927.52 136.42 931.13 134.8C931.64 134.51 932.22 134.35 932.81 134.34C933.26 134.4 933.68 134.56 934.07 134.79C935.56 135.57 938.74 138.26 939.92 136.27C940.87 134.67 940.77 131.07 941.22 129.19C941.51 128.06 944.34 114.99 942.72 114.99Z" fill="url(#paint23_linear)"/>
<path opacity="0.24" d="M625.2 164.47C616.24 172.94 603.81 177.53 591.79 178.97C574.79 181 557.6 178.12 540.51 179.01C529.84 179.57 519.25 181.6 508.57 181.88C497.89 182.16 486.79 180.52 477.73 174.36C474.29 171.99 471.23 169.1 468.68 165.79C469.55 165.57 470.43 165.4 471.32 165.28C489.25 162.86 507.39 162.56 525.48 162.28L574.86 161.5C580.33 161.41 585.83 161.33 591.28 161.86C598.26 162.53 605.11 164.2 612.08 164.82C616.52 165.23 620.84 164.59 625.2 164.47Z" fill="#6DD5BE"/>
<path d="M594.1 165.52C560.72 163.67 527.26 163.64 493.87 165.43C488.23 165.73 482.49 166.11 477.22 168.15C479.81 170.51 483.65 170.7 487.16 170.76C512.84 171.17 538.51 171.29 564.19 171.1C565.7 171.1 567.78 170.43 567.48 168.95C567.39 168.5 567.06 168.1 567.09 167.66C567.14 166.84 568.19 166.54 569.03 166.5C571.26 166.38 573.49 166.5 575.7 166.86C576.5 166.99 577.35 167.18 577.88 167.8C578.29 168.28 578.43 168.93 578.73 169.48C579.72 171.29 582.19 171.68 584.23 171.28C586.27 170.88 588.16 169.92 590.22 169.82C592.03 169.73 593.8 170.31 595.58 170.72C601.37 172.06 607.4 171.56 613.32 171.06C619.46 170.54 619.59 166.3 613.47 165.96C607.03 165.6 600.54 165.88 594.1 165.52Z" fill="url(#paint24_linear)"/>
<path d="M616.97 121.51L614.2 106.38H618C618 106.38 618.87 118.48 619.29 121.76L616.97 121.51Z" fill="#F5C7C8"/>
<path d="M619.1 120.68C619.1 120.68 619.63 123.04 619.32 124.36C619.01 125.68 617.7 127.21 616.97 127.3C616.23 127.39 615.78 127.03 615.84 126.53C615.89 126.03 617.78 124.25 617.49 123.68C617.2 123.11 616.46 124.83 616.2 124.42C615.94 124 616.05 123.36 616.7 122.54C617.35 121.72 616.7 120.58 616.7 120.58C616.7 120.58 618.64 119.7 619.1 120.68Z" fill="#F5C7C8"/>
<path d="M611.67 75.02C612.46 74.43 614.07 74.64 614.87 74.96C616.04 75.44 616.92 76.43 617.25 77.64C617.39 78.2 617.44 78.79 617.37 79.36C617.25 80.63 616.71 81.91 615.68 82.67C613.52 84.25 612.19 82.78 611.55 80.81C611.14 79.7 611.01 78.5 611.17 77.33C611.29 76.44 610.88 75.74 611.57 75.1L611.67 75.02Z" fill="#606161"/>
<path d="M611.67 75.02C612.46 74.43 614.07 74.64 614.87 74.96C616.04 75.44 616.92 76.43 617.25 77.64C617.39 78.2 617.44 78.79 617.37 79.36C617.25 80.63 616.71 81.91 615.68 82.67C613.52 84.25 612.19 82.78 611.55 80.81C611.14 79.7 611.01 78.5 611.17 77.33C611.29 76.44 610.88 75.74 611.57 75.1L611.67 75.02Z" fill="url(#paint25_linear)"/>
<path d="M607.15 86.1201C610.458 86.1201 613.14 82.7756 613.14 78.6501C613.14 74.5245 610.458 71.1801 607.15 71.1801C603.842 71.1801 601.16 74.5245 601.16 78.6501C601.16 82.7756 603.842 86.1201 607.15 86.1201Z" fill="#606161"/>
<path d="M588.15 99.25C588.15 99.25 587.05 97.31 586.58 97.02C586.1 96.73 585.26 95.93 585.02 96.11C584.58 96.43 586.48 98.13 584.78 98C584.51 97.98 583.15 98 582.49 98.62C581.98 99.1 581.96 99.9 582.44 100.41C582.47 100.45 582.51 100.48 582.55 100.51C583 100.81 584.53 100.96 585.36 100.93C586.19 100.9 587.16 101.02 587.72 101.36" fill="#F5C7C8"/>
<path d="M599.88 91.02C599.88 91.02 599.09 93.49 599.02 94.82C598.94 96.15 598.32 101.76 598.11 102.04C597.9 102.31 587.84 98.89 587.84 98.89C587.84 98.89 587.23 99.75 587.72 101.36C587.72 101.36 595.19 108.12 599.71 108.38C604.23 108.65 603.65 97.94 603.65 97.94" fill="#F5C7C8"/>
<path d="M608.73 161.49L607.9 163.37C608.39 163.2 610.74 165.09 611.8 165.1C612.5 165.07 613.17 164.83 613.72 164.4L613.05 161L611.86 144.15L605.48 145.07L608.73 161.49Z" fill="#F5C7C8"/>
<path d="M596.44 161.35L595.21 162.5C595.73 162.46 597.53 164.88 598.56 165.15C599.24 165.3 599.95 165.23 600.6 164.95L600.8 161.48L602.09 145.88L595.8 146.5L596.44 161.35Z" fill="#F5C7C8"/>
<path d="M609.49 83.63L609.75 89.05C609.17 89.89 608.18 90.36 607.16 90.26C604.54 89.97 604.65 89.19 604.65 89.19C604.65 89.19 604.65 85.28 604.55 84.4" fill="#F5C7C8"/>
<path d="M608.86 85.39L609.46 84.3L604.54 84.85C604.58 85.17 604.6 85.96 604.62 86.79C606.19 87.25 607.88 86.69 608.86 85.39Z" fill="#DBB4AF"/>
<path d="M613.36 122.89C613.36 122.89 614.15 137.81 615.2 149.89C615.2 149.89 600.77 151.97 594.88 149.66C594.88 149.66 596.15 125.6 596.41 122.15L613.36 122.89Z" fill="#606161"/>
<path d="M613.36 122.89C613.36 122.89 614.15 137.81 615.2 149.89C615.2 149.89 600.77 151.97 594.88 149.66C594.88 149.66 596.15 125.6 596.41 122.15L613.36 122.89Z" fill="url(#paint26_linear)"/>
<path d="M613.36 90.7C613.36 90.7 613.33 89.63 609.64 89.6C606.95 89.57 606.01 89.35 604.09 89.72C600.6 90.39 600.21 90.6 599.68 91.05C598.42 92.14 596.27 121.43 596.27 121.43C596.27 121.43 594.13 124.95 605.22 126.08C609.33 126.5 613.3 123.66 613.3 123.66L613.36 90.7Z" fill="#6DD5BE"/>
<path d="M611.53 74.84C611.53 74.84 611.31 81.79 609.29 84.16C607.16 86.67 605.95 86.98 603.36 85.95C601.16 85.07 600.9 79.06 600.83 77.33C600.64 72.84 607.53 68.96 611.53 74.84Z" fill="#F5C7C8"/>
<path d="M613.14 95.46L613.3 123.65L610.75 125.12L610.29 100.22L613.14 95.46Z" fill="url(#paint27_linear)"/>
<path d="M610.99 88.4L611.04 89.67C611.05 89.88 610.93 90.07 610.75 90.16C610.75 90.16 608.76 90.84 605.31 91.02L602.78 90.37C602.59 90.29 602.47 90.12 602.46 89.91L602.42 89.28C602.4 89 602.61 88.75 602.89 88.72L610.39 87.87C610.68 87.83 610.95 88.04 610.99 88.33C610.99 88.35 610.99 88.38 610.99 88.4Z" fill="#6DD5BE"/>
<path d="M610.99 88.4L611.04 89.67C611.05 89.88 610.93 90.07 610.75 90.16C610.75 90.16 608.76 90.84 605.31 91.02L602.78 90.37C602.59 90.29 602.47 90.12 602.46 89.91L602.42 89.28C602.4 89 602.61 88.75 602.89 88.72L610.39 87.87C610.68 87.83 610.95 88.04 610.99 88.33C610.99 88.35 610.99 88.38 610.99 88.4Z" fill="url(#paint28_linear)"/>
<path d="M610.73 79.25C610.73 79.25 610.84 78.2 611.87 78.66C612.9 79.11 611.93 80.92 611.53 81.43C611.13 81.94 610.36 81.78 610.36 81.78" fill="#F5C7C8"/>
<path d="M612.36 74.42L612.77 76.07H612.1L611.53 73.56L612.36 74.42Z" fill="#4EAE93"/>
<path d="M613.23 90.41C613.23 90.41 614.75 91.84 617.55 98.55C618.69 101.29 619.64 106.4 619.64 106.4C619.64 106.4 615.74 108.4 613.44 108.4C612.41 102.44 609.94 100.13 609.48 97.37C609.02 94.61 611.84 89.88 613.23 90.41Z" fill="#6DD5BE"/>
<path d="M593.3 162.83C592.17 163.15 591.18 163.82 590.46 164.74C590.17 165.1 590 165.54 589.96 166C589.92 166.47 590.15 166.92 590.55 167.17C590.82 167.29 591.12 167.35 591.42 167.34C594.18 167.46 596.95 167.41 599.7 167.19C599.93 167.2 600.16 167.11 600.32 166.94C600.39 166.79 600.42 166.63 600.4 166.47L600.32 164.74C600.33 164.55 600.28 164.35 600.18 164.19C599.87 163.82 599.27 164.13 598.79 164.1C597.82 164.05 597.57 162.84 596.78 162.51C595.88 162.14 594.22 162.56 593.3 162.83Z" fill="#6DD5BE"/>
<path d="M606.76 162.73C605.63 163.05 604.64 163.72 603.92 164.64C603.63 165 603.46 165.44 603.42 165.9C603.39 166.37 603.62 166.82 604.01 167.06C604.28 167.18 604.58 167.24 604.88 167.23C607.64 167.35 610.41 167.3 613.16 167.08C613.48 167.15 613.79 166.95 613.86 166.64C613.88 166.55 613.88 166.46 613.86 166.36L613.78 164.62C613.79 164.43 613.74 164.24 613.64 164.07C613.33 163.7 612.73 164.01 612.25 163.98C611.28 163.93 611.04 162.72 610.24 162.39C609.32 162.04 607.66 162.45 606.76 162.73Z" fill="#6DD5BE"/>
<path d="M593.3 162.83C592.17 163.15 591.18 163.82 590.46 164.74C590.17 165.1 590 165.54 589.96 166C589.92 166.47 590.15 166.92 590.55 167.17C590.82 167.29 591.12 167.35 591.42 167.34C594.18 167.46 596.95 167.41 599.7 167.19C599.93 167.2 600.16 167.11 600.32 166.94C600.39 166.79 600.42 166.63 600.4 166.47L600.32 164.74C600.33 164.55 600.28 164.35 600.18 164.19C599.87 163.82 599.27 164.13 598.79 164.1C597.82 164.05 597.57 162.84 596.78 162.51C595.88 162.14 594.22 162.56 593.3 162.83Z" fill="url(#paint29_linear)"/>
<path d="M606.76 162.73C605.63 163.05 604.64 163.72 603.92 164.64C603.63 165 603.46 165.44 603.42 165.9C603.39 166.37 603.62 166.82 604.01 167.06C604.28 167.18 604.58 167.24 604.88 167.23C607.64 167.35 610.41 167.3 613.16 167.08C613.48 167.15 613.79 166.95 613.86 166.64C613.88 166.55 613.88 166.46 613.86 166.36L613.78 164.62C613.79 164.43 613.74 164.24 613.64 164.07C613.33 163.7 612.73 164.01 612.25 163.98C611.28 163.93 611.04 162.72 610.24 162.39C609.32 162.04 607.66 162.45 606.76 162.73Z" fill="url(#paint30_linear)"/>
<path d="M600.98 73.23C600.87 73.42 600.77 73.62 600.67 73.83C600.4 74.39 600.27 75.01 600.29 75.64C600.29 75.9 600.79 77.13 600.74 77.23C601.41 75.9 602.39 74.76 603.61 73.91C604.07 74.95 605.18 75.5 606.2 75.99C607.21 76.48 608.33 77.08 608.73 78.14C609 78.87 608.9 79.76 609.38 80.37C610.55 80.21 610.81 78.32 611.97 78.11C612.18 78.07 612.4 78.11 612.62 78.05C613.16 77.89 613.53 77.41 613.55 76.85C613.73 74.4 610.76 72.13 608.78 71.31C606.93 70.53 604.83 70.53 602.98 71.31C602.11 71.71 601.4 72.38 600.98 73.23Z" fill="#606161"/>
<path d="M600.98 73.23C600.87 73.42 600.77 73.62 600.67 73.83C600.4 74.39 600.27 75.01 600.29 75.64C600.29 75.9 600.79 77.13 600.74 77.23C601.41 75.9 602.39 74.76 603.61 73.91C604.07 74.95 605.18 75.5 606.2 75.99C607.21 76.48 608.33 77.08 608.73 78.14C609 78.87 608.9 79.76 609.38 80.37C610.55 80.21 610.81 78.32 611.97 78.11C612.18 78.07 612.4 78.11 612.62 78.05C613.16 77.89 613.53 77.41 613.55 76.85C613.73 74.4 610.76 72.13 608.78 71.31C606.93 70.53 604.83 70.53 602.98 71.31C602.11 71.71 601.4 72.38 600.98 73.23Z" fill="url(#paint31_linear)"/>
<path d="M490.33 61.69H549.76C552.61 61.69 554.93 64 554.93 66.86V163.15C554.93 166 552.62 168.32 549.76 168.32H490.33C487.48 168.32 485.16 166.01 485.16 163.15V66.85C485.17 64 487.48 61.69 490.33 61.69Z" fill="#6DD5BE"/>
<path d="M492.31 61.69H551.74C554.59 61.69 556.91 64 556.91 66.86V163.15C556.91 166 554.6 168.32 551.74 168.32H492.31C489.46 168.32 487.14 166.01 487.14 163.15V66.85C487.15 64 489.46 61.69 492.31 61.69Z" fill="#6DD5BE"/>
<path d="M492.31 61.69H551.74C554.59 61.69 556.91 64 556.91 66.86V163.15C556.91 166 554.6 168.32 551.74 168.32H492.31C489.46 168.32 487.14 166.01 487.14 163.15V66.85C487.15 64 489.46 61.69 492.31 61.69Z" fill="url(#paint32_linear)"/>
<path d="M492.48 123.02L494.31 66.87L547.11 67.99C547.11 67.99 540.21 126.28 545.08 141.32C549.95 156.36 550.77 162.01 550.77 162.01L493.7 163.63L492.48 123.02Z" fill="url(#paint33_linear)"/>
<path d="M560.26 157.03L502.54 157.64C502.54 157.64 496.61 123.16 495.57 111.6C494.56 100.46 494.33 66.86 494.33 66.86H549.45C549.45 66.86 549.59 99.43 550.57 110.22C551.64 122.13 560.26 157.03 560.26 157.03Z" fill="white"/>
<path d="M586.02 66.26L582.09 57.34L581.77 56.58C581.76 56.56 581.74 56.54 581.72 56.53C581.65 56.46 581.54 56.46 581.47 56.53C581.45 56.55 581.44 56.57 581.43 56.59L577.18 66.26C577.09 66.46 577.05 66.68 577.05 66.91V160.29H586.16V66.91C586.15 66.68 586.11 66.46 586.02 66.26ZM586.07 160.23H577.09V158.25H586.07V160.23Z" fill="#6DD5BE"/>
<path d="M584.58 66.91V158.25H579V66.89C579 66.67 579.02 66.45 579.07 66.24L581.68 56.57C581.68 56.55 581.69 56.53 581.7 56.52C581.75 56.43 581.85 56.46 581.88 56.57L582.09 57.33L584.49 66.25C584.55 66.46 584.58 66.68 584.58 66.91Z" fill="url(#paint34_linear)"/>
<path d="M579 160.23H584.58V166.96C584.58 167.85 584.13 168.56 583.59 168.56H579.97C579.43 168.56 579 167.85 579 166.96V160.23Z" fill="url(#paint35_linear)"/>
<path d="M586.15 66.91C583.28 68.31 579.92 68.31 577.04 66.91L579.72 61.05L581.75 56.61L583.5 60.73L586.15 66.91Z" fill="url(#paint36_linear)"/>
<path d="M583.51 60.71C582.33 61.26 580.98 61.38 579.72 61.03L581.75 56.59L583.51 60.71Z" fill="#6DD5BE"/>
<path d="M583.51 60.71C582.22 61.36 580.6 61.25 579.51 60.99L581.55 56.21L583.51 60.71Z" fill="url(#paint37_linear)"/>
<path d="M500.6 78.24H527.81C528.32 78.24 528.72 78.65 528.72 79.15C528.72 79.65 528.31 80.06 527.81 80.06H500.6C500.09 80.06 499.69 79.65 499.69 79.15C499.69 78.65 500.1 78.24 500.6 78.24Z" fill="#6DD5BE"/>
<path d="M500.6 81.39H527.81C528.32 81.39 528.72 81.8 528.72 82.3C528.72 82.8 528.31 83.21 527.81 83.21H500.6C500.09 83.21 499.69 82.8 499.69 82.3C499.69 81.8 500.1 81.39 500.6 81.39Z" fill="#6DD5BE"/>
<path d="M500.6 84.53H527.81C528.32 84.53 528.72 84.94 528.72 85.44C528.72 85.94 528.31 86.35 527.81 86.35H500.6C500.09 86.35 499.69 85.94 499.69 85.44C499.69 84.94 500.1 84.53 500.6 84.53Z" fill="#6DD5BE"/>
<path d="M509.94 87.6801H527.98C528.39 87.6801 528.73 88.0201 528.73 88.4301V88.7601C528.73 89.1701 528.39 89.5101 527.98 89.5101H509.94C509.53 89.5101 509.19 89.1701 509.19 88.7601V88.4301C509.19 88.0201 509.53 87.6801 509.94 87.6801Z" fill="#6DD5BE"/>
<path d="M500.91 98.19H528.12C528.63 98.19 529.03 98.6 529.03 99.1C529.03 99.6 528.62 100.01 528.12 100.01H500.91C500.4 100.01 500 99.6 500 99.1C499.99 98.6 500.4 98.19 500.91 98.19Z" fill="#6DD5BE"/>
<path d="M500.91 101.34H528.12C528.63 101.34 529.03 101.75 529.03 102.25C529.03 102.75 528.62 103.16 528.12 103.16H500.91C500.4 103.16 500 102.75 500 102.25C499.99 101.75 500.4 101.34 500.91 101.34Z" fill="#6DD5BE"/>
<path d="M500.91 104.49H528.12C528.63 104.49 529.03 104.9 529.03 105.4C529.03 105.9 528.62 106.31 528.12 106.31H500.91C500.4 106.31 500 105.9 500 105.4C499.99 104.89 500.4 104.49 500.91 104.49Z" fill="#6DD5BE"/>
<path d="M510.25 107.63H528.29C528.7 107.63 529.04 107.97 529.04 108.38V108.71C529.04 109.12 528.7 109.46 528.29 109.46H510.25C509.84 109.46 509.5 109.12 509.5 108.71V108.38C509.5 107.97 509.83 107.63 510.25 107.63Z" fill="#6DD5BE"/>
<path d="M530.19 119.06H502.98C502.46 119.04 502.02 118.66 501.95 118.15C501.88 117.73 502.16 117.32 502.58 117.25C502.63 117.24 502.68 117.24 502.74 117.24H529.95C530.47 117.25 530.91 117.64 530.99 118.15C531.06 118.58 530.78 118.98 530.35 119.05C530.29 119.05 530.24 119.06 530.19 119.06Z" fill="#6DD5BE"/>
<path d="M530.61 122.2H503.4C502.87 122.19 502.43 121.8 502.36 121.27C502.29 120.84 502.58 120.44 503 120.37C503.05 120.36 503.1 120.36 503.15 120.36H530.36C530.88 120.38 531.31 120.76 531.39 121.27C531.47 121.69 531.19 122.1 530.77 122.18C530.72 122.2 530.66 122.2 530.61 122.2Z" fill="#6DD5BE"/>
<path d="M531.03 125.34H503.82C503.3 125.32 502.87 124.94 502.79 124.43C502.72 124 503 123.6 503.43 123.53C503.48 123.52 503.53 123.52 503.58 123.52H530.8C531.32 123.54 531.76 123.92 531.83 124.43C531.9 124.86 531.61 125.26 531.19 125.33C531.14 125.34 531.08 125.34 531.03 125.34Z" fill="#6DD5BE"/>
<path d="M531.62 128.48H513.58C513.15 128.47 512.8 128.15 512.73 127.73L512.68 127.41C512.62 127.06 512.86 126.73 513.21 126.67C513.25 126.66 513.28 126.66 513.32 126.66H531.36C531.79 126.67 532.14 126.99 532.21 127.41L532.25 127.73C532.31 128.08 532.06 128.41 531.71 128.47C531.69 128.48 531.65 128.48 531.62 128.48Z" fill="#6DD5BE"/>
<path d="M533.49 139.05H506.28C505.75 139.03 505.3 138.65 505.19 138.13C505.09 137.73 505.33 137.33 505.73 137.23C505.8 137.21 505.86 137.21 505.93 137.21H533.14C533.67 137.23 534.12 137.61 534.23 138.13C534.33 138.53 534.09 138.93 533.7 139.03C533.63 139.04 533.56 139.05 533.49 139.05Z" fill="#6DD5BE"/>
<path d="M534.1 142.22H506.88C506.35 142.2 505.9 141.81 505.79 141.29C505.69 140.89 505.93 140.49 506.32 140.39C506.39 140.37 506.46 140.37 506.52 140.37H533.73C534.26 140.39 534.71 140.77 534.82 141.29C534.92 141.69 534.69 142.09 534.29 142.19C534.24 142.22 534.17 142.23 534.1 142.22Z" fill="#6DD5BE"/>
<path d="M534.7 145.41H507.49C506.96 145.39 506.51 145.01 506.4 144.49C506.31 144.09 506.56 143.69 506.96 143.6C507.02 143.59 507.08 143.58 507.14 143.58H534.36C534.89 143.6 535.34 143.99 535.45 144.51C535.54 144.91 535.29 145.31 534.89 145.4C534.82 145.41 534.76 145.41 534.7 145.41Z" fill="#6DD5BE"/>
<path d="M535.47 148.6H517.43C516.99 148.58 516.63 148.27 516.53 147.84L516.47 147.52C516.39 147.2 516.58 146.87 516.9 146.78C516.96 146.77 517.02 146.76 517.08 146.76H535.12C535.55 146.78 535.92 147.09 536.01 147.52L536.07 147.84C536.15 148.16 535.96 148.5 535.63 148.58C535.58 148.59 535.52 148.6 535.47 148.6Z" fill="#6DD5BE"/>
<path d="M541.57 91.62H536.15C533.99 91.62 532.23 89.86 532.23 87.7V81.83C532.23 79.67 533.99 77.91 536.15 77.91H541.57C543.73 77.91 545.49 79.67 545.49 81.83V87.71C545.48 89.88 543.73 91.62 541.57 91.62ZM536.15 78.98C534.58 78.98 533.31 80.25 533.31 81.82V87.7C533.31 89.27 534.58 90.54 536.15 90.54H541.57C543.14 90.54 544.41 89.27 544.41 87.7V81.83C544.41 80.26 543.14 78.99 541.57 78.99L536.15 78.98Z" fill="#6DD5BE"/>
<path d="M542.99 111.81H537.58C535.48 111.81 533.76 110.16 533.66 108.07L533.4 102.31C533.3 100.15 534.98 98.31 537.14 98.22C537.2 98.22 537.26 98.22 537.32 98.22H542.73C544.82 98.23 546.54 99.88 546.63 101.97L546.89 107.73C546.99 109.89 545.31 111.73 543.15 111.82C543.09 111.82 543.03 111.82 542.97 111.82H542.99V111.81ZM537.32 99.29C535.75 99.29 534.48 100.56 534.48 102.13C534.48 102.17 534.48 102.22 534.48 102.26L534.74 108.02C534.81 109.54 536.06 110.73 537.57 110.73H542.99C544.56 110.73 545.83 109.46 545.83 107.89C545.83 107.85 545.83 107.8 545.83 107.76L545.57 102C545.5 100.48 544.25 99.29 542.73 99.29H537.32Z" fill="#6DD5BE"/>
<path d="M539.3 130.48C537.26 130.48 535.56 128.91 535.4 126.87L534.94 121.13C534.77 118.97 536.38 117.08 538.54 116.91C538.6 116.91 538.66 116.9 538.71 116.9L544.12 116.71C546.21 116.65 547.98 118.23 548.17 120.3L548.63 126.04C548.8 128.2 547.19 130.09 545.02 130.26C544.96 130.26 544.91 130.27 544.85 130.27L539.44 130.46L539.3 130.48ZM544.26 117.79H544.16L538.75 117.98C537.18 118.04 535.95 119.36 536.01 120.93C536.01 120.97 536.01 121.01 536.02 121.05L536.48 126.79C536.61 128.3 537.89 129.45 539.41 129.4L544.82 129.21C546.39 129.16 547.61 127.84 547.56 126.28C547.56 126.24 547.56 126.19 547.55 126.15L547.09 120.41C546.97 118.92 545.74 117.79 544.26 117.79Z" fill="#6DD5BE"/>
<path d="M543.55 149.52C541.62 149.52 539.98 148.13 539.67 146.23L538.76 140.63C538.41 138.49 539.86 136.48 542 136.13C542.16 136.1 542.33 136.09 542.49 136.08L547.86 135.89C549.83 135.84 551.54 137.24 551.87 139.18L552.78 144.78C553.13 146.92 551.67 148.93 549.53 149.28C549.37 149.31 549.21 149.32 549.04 149.33L543.67 149.51L543.55 149.52ZM548.01 136.97H547.91L542.54 137.16C540.97 137.22 539.75 138.54 539.81 140.11C539.81 140.23 539.83 140.34 539.84 140.46L540.75 146.06C540.99 147.47 542.23 148.48 543.66 148.45L549.03 148.26C550.59 148.21 551.82 146.9 551.77 145.33C551.77 145.21 551.75 145.09 551.73 144.97L550.82 139.37C550.6 137.97 549.41 136.96 548.01 136.97Z" fill="#6DD5BE"/>
<path d="M509.78 64.73H536.09C537.15 64.73 538.01 65.59 538.01 66.65V69.66C538.01 70.72 537.15 71.58 536.09 71.58H509.78C508.72 71.58 507.86 70.72 507.86 69.66V66.65C507.86 65.59 508.72 64.73 509.78 64.73Z" fill="#6DD5BE"/>
<path d="M509.78 64.73H536.09C537.15 64.73 538.01 65.59 538.01 66.65V69.66C538.01 70.72 537.15 71.58 536.09 71.58H509.78C508.72 71.58 507.86 70.72 507.86 69.66V66.65C507.86 65.59 508.72 64.73 509.78 64.73Z" fill="url(#paint38_linear)"/>
<path d="M539.07 89.15L534.33 84.42C533.7 83.79 533.7 82.76 534.33 82.12C534.96 81.49 535.99 81.49 536.63 82.12L538.89 84.38L546.48 75.6C547.07 74.92 548.09 74.85 548.77 75.43C549.45 76.02 549.52 77.04 548.94 77.72L539.07 89.15Z" fill="#6DD5BE"/>
<path d="M541.3 108.85L536.56 104.11C535.93 103.48 535.93 102.45 536.56 101.81C537.19 101.18 538.22 101.18 538.85 101.81L541.11 104.07L548.7 95.2901C549.29 94.6101 550.31 94.5401 550.99 95.1201C551.67 95.7101 551.74 96.7301 551.16 97.4101L541.3 108.85Z" fill="#6DD5BE"/>
<path d="M542.93 127.63L538.19 122.88C537.56 122.25 537.56 121.22 538.19 120.58C538.82 119.95 539.85 119.95 540.48 120.58L542.74 122.84L550.33 114.06C550.92 113.38 551.94 113.31 552.62 113.89C553.3 114.47 553.37 115.5 552.79 116.18L542.93 127.63Z" fill="#6DD5BE"/>
<path d="M547.14 146.52L542.4 141.78C541.77 141.15 541.77 140.12 542.4 139.49C543.03 138.86 544.06 138.86 544.69 139.49L546.95 141.75L554.55 132.97C555.14 132.29 556.16 132.22 556.84 132.8C557.52 133.39 557.59 134.41 557.01 135.09L547.14 146.52Z" fill="#6DD5BE"/>
<path d="M586.07 158.25H577.09V160.23H586.07V158.25Z" fill="#6DD5BE"/>
<path d="M586.07 158.25H577.09V160.23H586.07V158.25Z" fill="url(#paint39_linear)"/>
<path d="M586.15 160.29V166.96C586.15 167.84 585.44 168.56 584.56 168.56C584.55 168.56 584.54 168.56 584.54 168.56H578.65C577.77 168.56 577.05 167.85 577.05 166.97C577.05 166.97 577.05 166.97 577.05 166.96V160.29H586.15Z" fill="#6DD5BE"/>
<path d="M586.15 160.29V166.96C586.15 167.84 585.44 168.56 584.56 168.56C584.55 168.56 584.54 168.56 584.54 168.56H578.65C577.77 168.56 577.05 167.85 577.05 166.97C577.05 166.97 577.05 166.97 577.05 166.96V160.29H586.15Z" fill="url(#paint40_linear)"/>
<circle cx="215" cy="217" r="19" fill="#6DD5BE"/>
<path d="M216.04 223H213.5V213.209L210.468 214.149V212.084L215.768 210.186H216.04V223Z" fill="white"/>
<circle cx="872" cy="215" r="19" fill="#6DD5BE"/>
<path d="M869.454 213.477H870.808C871.452 213.477 871.93 213.315 872.24 212.993C872.551 212.671 872.706 212.243 872.706 211.71C872.706 211.194 872.551 210.793 872.24 210.506C871.936 210.219 871.514 210.075 870.975 210.075C870.488 210.075 870.081 210.21 869.753 210.479C869.425 210.743 869.261 211.089 869.261 211.517H866.721C866.721 210.849 866.899 210.251 867.257 209.724C867.62 209.19 868.124 208.774 868.769 208.476C869.419 208.177 870.134 208.027 870.913 208.027C872.267 208.027 873.327 208.353 874.095 209.003C874.862 209.647 875.246 210.538 875.246 211.675C875.246 212.261 875.067 212.8 874.71 213.292C874.353 213.784 873.884 214.162 873.304 214.426C874.024 214.684 874.561 215.07 874.912 215.586C875.27 216.102 875.448 216.711 875.448 217.414C875.448 218.551 875.032 219.462 874.2 220.147C873.374 220.833 872.278 221.176 870.913 221.176C869.636 221.176 868.59 220.839 867.775 220.165C866.967 219.491 866.562 218.601 866.562 217.493H869.103C869.103 217.974 869.281 218.366 869.639 218.671C870.002 218.976 870.447 219.128 870.975 219.128C871.578 219.128 872.05 218.97 872.39 218.653C872.735 218.331 872.908 217.906 872.908 217.379C872.908 216.102 872.205 215.463 870.799 215.463H869.454V213.477Z" fill="white"/>
<circle cx="545" cy="24" r="19" fill="#6DD5BE"/>
<path d="M548.642 30H539.87V28.2598L544.01 23.8477C544.578 23.2266 544.997 22.6846 545.267 22.2217C545.542 21.7588 545.68 21.3193 545.68 20.9033C545.68 20.335 545.536 19.8896 545.249 19.5674C544.962 19.2393 544.552 19.0752 544.019 19.0752C543.444 19.0752 542.99 19.2744 542.656 19.6729C542.328 20.0654 542.164 20.584 542.164 21.2285H539.615C539.615 20.4492 539.8 19.7373 540.169 19.0928C540.544 18.4482 541.071 17.9443 541.751 17.5811C542.431 17.2119 543.201 17.0273 544.062 17.0273C545.381 17.0273 546.403 17.3438 547.13 17.9766C547.862 18.6094 548.229 19.5029 548.229 20.6572C548.229 21.29 548.064 21.9346 547.736 22.5908C547.408 23.2471 546.846 24.0117 546.049 24.8848L543.14 27.9521H548.642V30Z" fill="white"/>
</g>
<defs>
<filter id="filter0_d" x="115" y="23.5" width="199" height="199" filterUnits="userSpaceOnUse" color-interpolation-filters="sRGB">
<feFlood flood-opacity="0" result="BackgroundImageFix"/>
<feColorMatrix in="SourceAlpha" type="matrix" values="0 0 0 0 0 0 0 0 0 0 0 0 0 0 0 0 0 0 127 0"/>
<feOffset dy="4"/>
<feGaussianBlur stdDeviation="2"/>
<feColorMatrix type="matrix" values="0 0 0 0 0 0 0 0 0 0 0 0 0 0 0 0 0 0 0.25 0"/>
<feBlend mode="normal" in2="BackgroundImageFix" result="effect1_dropShadow"/>
<feBlend mode="normal" in="SourceGraphic" in2="effect1_dropShadow" result="shape"/>
</filter>
<filter id="filter1_d" x="772" y="23.5" width="199" height="199" filterUnits="userSpaceOnUse" color-interpolation-filters="sRGB">
<feFlood flood-opacity="0" result="BackgroundImageFix"/>
<feColorMatrix in="SourceAlpha" type="matrix" values="0 0 0 0 0 0 0 0 0 0 0 0 0 0 0 0 0 0 127 0"/>
<feOffset dy="4"/>
<feGaussianBlur stdDeviation="2"/>
<feColorMatrix type="matrix" values="0 0 0 0 0 0 0 0 0 0 0 0 0 0 0 0 0 0 0.25 0"/>
<feBlend mode="normal" in2="BackgroundImageFix" result="effect1_dropShadow"/>
<feBlend mode="normal" in="SourceGraphic" in2="effect1_dropShadow" result="shape"/>
</filter>
<filter id="filter2_d" x="445" y="23.5" width="199" height="199" filterUnits="userSpaceOnUse" color-interpolation-filters="sRGB">
<feFlood flood-opacity="0" result="BackgroundImageFix"/>
<feColorMatrix in="SourceAlpha" type="matrix" values="0 0 0 0 0 0 0 0 0 0 0 0 0 0 0 0 0 0 127 0"/>
<feOffset dy="4"/>
<feGaussianBlur stdDeviation="2"/>
<feColorMatrix type="matrix" values="0 0 0 0 0 0 0 0 0 0 0 0 0 0 0 0 0 0 0.25 0"/>
<feBlend mode="normal" in2="BackgroundImageFix" result="effect1_dropShadow"/>
<feBlend mode="normal" in="SourceGraphic" in2="effect1_dropShadow" result="shape"/>
</filter>
<linearGradient id="paint0_linear" x1="961.78" y1="126.39" x2="863.574" y2="99.9096" gradientUnits="userSpaceOnUse">
<stop offset="0.01"/>
<stop offset="0.13" stop-opacity="0.69"/>
<stop offset="1" stop-opacity="0"/>
</linearGradient>
<linearGradient id="paint1_linear" x1="919.714" y1="111.572" x2="884.732" y2="107.08" gradientUnits="userSpaceOnUse">
<stop offset="0.01"/>
<stop offset="0.13" stop-opacity="0.69"/>
<stop offset="1" stop-opacity="0"/>
</linearGradient>
<linearGradient id="paint2_linear" x1="926.294" y1="69.3786" x2="925.495" y2="91.6799" gradientUnits="userSpaceOnUse">
<stop offset="0.01"/>
<stop offset="0.13" stop-opacity="0.69"/>
<stop offset="1" stop-opacity="0"/>
</linearGradient>
<linearGradient id="paint3_linear" x1="833.423" y1="123.078" x2="875.305" y2="109.118" gradientUnits="userSpaceOnUse">
<stop offset="0.01"/>
<stop offset="0.13" stop-opacity="0.69"/>
<stop offset="1" stop-opacity="0"/>
</linearGradient>
<linearGradient id="paint4_linear" x1="867.102" y1="197.566" x2="868.063" y2="125.836" gradientUnits="userSpaceOnUse">
<stop offset="0.01"/>
<stop offset="0.13" stop-opacity="0.69"/>
<stop offset="1" stop-opacity="0"/>
</linearGradient>
<linearGradient id="paint5_linear" x1="922.763" y1="97.8413" x2="868.53" y2="152.723" gradientUnits="userSpaceOnUse">
<stop offset="0.01"/>
<stop offset="0.13" stop-opacity="0.69"/>
<stop offset="1" stop-opacity="0"/>
</linearGradient>
<linearGradient id="paint6_linear" x1="939.279" y1="140.739" x2="898.414" y2="94.7398" gradientUnits="userSpaceOnUse">
<stop offset="0.01"/>
<stop offset="0.13" stop-opacity="0.69"/>
<stop offset="1" stop-opacity="0"/>
</linearGradient>
<linearGradient id="paint7_linear" x1="879.954" y1="156.874" x2="895.518" y2="156.874" gradientUnits="userSpaceOnUse">
<stop offset="0.01"/>
<stop offset="0.13" stop-opacity="0.69"/>
<stop offset="1" stop-opacity="0"/>
</linearGradient>
<linearGradient id="paint8_linear" x1="798.006" y1="137.4" x2="813.57" y2="137.4" gradientUnits="userSpaceOnUse">
<stop offset="0.01"/>
<stop offset="0.13" stop-opacity="0.69"/>
<stop offset="1" stop-opacity="0"/>
</linearGradient>
<linearGradient id="paint9_linear" x1="812.961" y1="146.168" x2="863.843" y2="146.168" gradientUnits="userSpaceOnUse">
<stop offset="0.01"/>
<stop offset="0.13" stop-opacity="0.69"/>
<stop offset="1" stop-opacity="0"/>
</linearGradient>
<linearGradient id="paint10_linear" x1="918.512" y1="89.6381" x2="897.093" y2="93.571" gradientUnits="userSpaceOnUse">
<stop offset="0.01"/>
<stop offset="0.13" stop-opacity="0.69"/>
<stop offset="1" stop-opacity="0"/>
</linearGradient>
<linearGradient id="paint11_linear" x1="900.043" y1="94.858" x2="915.933" y2="94.858" gradientUnits="userSpaceOnUse">
<stop offset="0.01"/>
<stop offset="0.13" stop-opacity="0.69"/>
<stop offset="1" stop-opacity="0"/>
</linearGradient>
<linearGradient id="paint12_linear" x1="899.876" y1="93.1516" x2="913.113" y2="93.1516" gradientUnits="userSpaceOnUse">
<stop offset="0.01" stop-color="white"/>
<stop offset="0.13" stop-color="white" stop-opacity="0.69"/>
<stop offset="1" stop-color="white" stop-opacity="0"/>
</linearGradient>
<linearGradient id="paint13_linear" x1="910.634" y1="101.584" x2="903.254" y2="84.3612" gradientUnits="userSpaceOnUse">
<stop offset="0.01"/>
<stop offset="0.13" stop-opacity="0.69"/>
<stop offset="1" stop-opacity="0"/>
</linearGradient>
<linearGradient id="paint14_linear" x1="864.377" y1="113.303" x2="875.182" y2="83.3481" gradientUnits="userSpaceOnUse">
<stop offset="0.01"/>
<stop offset="0.13" stop-opacity="0.69"/>
<stop offset="1" stop-opacity="0"/>
</linearGradient>
<linearGradient id="paint15_linear" x1="861.379" y1="91.1878" x2="873.954" y2="91.1878" gradientUnits="userSpaceOnUse">
<stop offset="0.01"/>
<stop offset="0.13" stop-opacity="0.69"/>
<stop offset="1" stop-opacity="0"/>
</linearGradient>
<linearGradient id="paint16_linear" x1="867.647" y1="87.2681" x2="883.907" y2="87.2681" gradientUnits="userSpaceOnUse">
<stop offset="0.01"/>
<stop offset="0.13" stop-opacity="0.69"/>
<stop offset="1" stop-opacity="0"/>
</linearGradient>
<linearGradient id="paint17_linear" x1="867.236" y1="85.7431" x2="883.496" y2="85.7431" gradientUnits="userSpaceOnUse">
<stop offset="0.01"/>
<stop offset="0.13" stop-opacity="0.69"/>
<stop offset="1" stop-opacity="0"/>
</linearGradient>
<linearGradient id="paint18_linear" x1="866.493" y1="84.8062" x2="882.486" y2="84.8062" gradientUnits="userSpaceOnUse">
<stop offset="0.01" stop-color="white"/>
<stop offset="0.13" stop-color="white" stop-opacity="0.69"/>
<stop offset="1" stop-color="white" stop-opacity="0"/>
</linearGradient>
<linearGradient id="paint19_linear" x1="877.82" y1="69.2239" x2="881.63" y2="69.5646" gradientUnits="userSpaceOnUse">
<stop offset="0.01"/>
<stop offset="0.13" stop-opacity="0.69"/>
<stop offset="1" stop-opacity="0"/>
</linearGradient>
<linearGradient id="paint20_linear" x1="869.206" y1="74.6061" x2="872.418" y2="74.6061" gradientUnits="userSpaceOnUse">
<stop offset="0.01"/>
<stop offset="0.13" stop-opacity="0.69"/>
<stop offset="1" stop-opacity="0"/>
</linearGradient>
<linearGradient id="paint21_linear" x1="879.949" y1="146.148" x2="890.876" y2="146.148" gradientUnits="userSpaceOnUse">
<stop offset="0.01" stop-color="white"/>
<stop offset="0.13" stop-color="white" stop-opacity="0.69"/>
<stop offset="1" stop-color="white" stop-opacity="0"/>
</linearGradient>
<linearGradient id="paint22_linear" x1="798.006" y1="126.724" x2="808.933" y2="126.724" gradientUnits="userSpaceOnUse">
<stop offset="0.01" stop-color="white"/>
<stop offset="0.13" stop-color="white" stop-opacity="0.69"/>
<stop offset="1" stop-color="white" stop-opacity="0"/>
</linearGradient>
<linearGradient id="paint23_linear" x1="919.663" y1="126.168" x2="943.216" y2="126.168" gradientUnits="userSpaceOnUse">
<stop offset="0.01"/>
<stop offset="0.13" stop-opacity="0.69"/>
<stop offset="1" stop-opacity="0"/>
</linearGradient>
<linearGradient id="paint24_linear" x1="546.488" y1="197.15" x2="553.797" y2="7.47132" gradientUnits="userSpaceOnUse">
<stop stop-color="#010101" stop-opacity="0"/>
<stop offset="0.95" stop-color="#010101"/>
</linearGradient>
<linearGradient id="paint25_linear" x1="616.338" y1="79.1566" x2="610.348" y2="78.801" gradientUnits="userSpaceOnUse">
<stop stop-color="#010101" stop-opacity="0"/>
<stop offset="0.95" stop-color="#010101"/>
</linearGradient>
<linearGradient id="paint26_linear" x1="608.081" y1="136.877" x2="582.797" y2="134.743" gradientUnits="userSpaceOnUse">
<stop stop-color="#010101" stop-opacity="0"/>
<stop offset="0.95" stop-color="#010101"/>
</linearGradient>
<linearGradient id="paint27_linear" x1="605.675" y1="117.199" x2="652.587" y2="69.6761" gradientUnits="userSpaceOnUse">
<stop stop-color="#010101" stop-opacity="0"/>
<stop offset="0.95" stop-color="#010101"/>
</linearGradient>
<linearGradient id="paint28_linear" x1="605.402" y1="90.1769" x2="631.219" y2="76.3939" gradientUnits="userSpaceOnUse">
<stop stop-color="#010101" stop-opacity="0"/>
<stop offset="0.95" stop-color="#010101"/>
</linearGradient>
<linearGradient id="paint29_linear" x1="596.702" y1="171.252" x2="590.609" y2="148.402" gradientUnits="userSpaceOnUse">
<stop stop-color="#010101" stop-opacity="0"/>
<stop offset="0.95" stop-color="#010101"/>
</linearGradient>
<linearGradient id="paint30_linear" x1="609.289" y1="167.894" x2="603.196" y2="145.044" gradientUnits="userSpaceOnUse">
<stop stop-color="#010101" stop-opacity="0"/>
<stop offset="0.95" stop-color="#010101"/>
</linearGradient>
<linearGradient id="paint31_linear" x1="610.863" y1="73.6173" x2="601.825" y2="77.9811" gradientUnits="userSpaceOnUse">
<stop stop-color="#010101" stop-opacity="0"/>
<stop offset="0.95" stop-color="#010101"/>
</linearGradient>
<linearGradient id="paint32_linear" x1="516.44" y1="25.8085" x2="527.407" y2="200.867" gradientUnits="userSpaceOnUse">
<stop stop-color="white" stop-opacity="0"/>
<stop offset="0.14" stop-color="white" stop-opacity="0.22"/>
<stop offset="0.3" stop-color="white" stop-opacity="0.45"/>
<stop offset="0.45" stop-color="white" stop-opacity="0.65"/>
<stop offset="0.6" stop-color="white" stop-opacity="0.8"/>
<stop offset="0.73" stop-color="white" stop-opacity="0.91"/>
<stop offset="0.85" stop-color="white" stop-opacity="0.98"/>
<stop offset="0.94" stop-color="white"/>
</linearGradient>
<linearGradient id="paint33_linear" x1="479.694" y1="161.661" x2="630.383" y2="-4.46303" gradientUnits="userSpaceOnUse">
<stop stop-color="#010101" stop-opacity="0"/>
<stop offset="0.95" stop-color="#010101"/>
</linearGradient>
<linearGradient id="paint34_linear" x1="623.959" y1="91.0023" x2="348.656" y2="201.406" gradientUnits="userSpaceOnUse">
<stop stop-color="white" stop-opacity="0"/>
<stop offset="0.14" stop-color="white" stop-opacity="0.22"/>
<stop offset="0.3" stop-color="white" stop-opacity="0.45"/>
<stop offset="0.45" stop-color="white" stop-opacity="0.65"/>
<stop offset="0.6" stop-color="white" stop-opacity="0.8"/>
<stop offset="0.73" stop-color="white" stop-opacity="0.91"/>
<stop offset="0.85" stop-color="white" stop-opacity="0.98"/>
<stop offset="0.94" stop-color="white"/>
</linearGradient>
<linearGradient id="paint35_linear" x1="590.298" y1="160.811" x2="536.856" y2="182.242" gradientUnits="userSpaceOnUse">
<stop stop-color="white" stop-opacity="0"/>
<stop offset="0.14" stop-color="white" stop-opacity="0.22"/>
<stop offset="0.3" stop-color="white" stop-opacity="0.45"/>
<stop offset="0.45" stop-color="white" stop-opacity="0.65"/>
<stop offset="0.6" stop-color="white" stop-opacity="0.8"/>
<stop offset="0.73" stop-color="white" stop-opacity="0.91"/>
<stop offset="0.85" stop-color="white" stop-opacity="0.98"/>
<stop offset="0.94" stop-color="white"/>
</linearGradient>
<linearGradient id="paint36_linear" x1="581.926" y1="60.8996" x2="581.115" y2="75.5231" gradientUnits="userSpaceOnUse">
<stop stop-color="white" stop-opacity="0"/>
<stop offset="0.14" stop-color="white" stop-opacity="0.22"/>
<stop offset="0.3" stop-color="white" stop-opacity="0.45"/>
<stop offset="0.45" stop-color="white" stop-opacity="0.65"/>
<stop offset="0.6" stop-color="white" stop-opacity="0.8"/>
<stop offset="0.73" stop-color="white" stop-opacity="0.91"/>
<stop offset="0.85" stop-color="white" stop-opacity="0.98"/>
<stop offset="0.94" stop-color="white"/>
</linearGradient>
<linearGradient id="paint37_linear" x1="580.749" y1="62.7612" x2="585.824" y2="49.9092" gradientUnits="userSpaceOnUse">
<stop stop-color="#010101" stop-opacity="0"/>
<stop offset="0.95" stop-color="#010101"/>
</linearGradient>
<linearGradient id="paint38_linear" x1="523.031" y1="72.588" x2="522.828" y2="62.6386" gradientUnits="userSpaceOnUse">
<stop stop-color="white" stop-opacity="0"/>
<stop offset="0.14" stop-color="white" stop-opacity="0.22"/>
<stop offset="0.3" stop-color="white" stop-opacity="0.45"/>
<stop offset="0.45" stop-color="white" stop-opacity="0.65"/>
<stop offset="0.6" stop-color="white" stop-opacity="0.8"/>
<stop offset="0.73" stop-color="white" stop-opacity="0.91"/>
<stop offset="0.85" stop-color="white" stop-opacity="0.98"/>
<stop offset="0.94" stop-color="white"/>
</linearGradient>
<linearGradient id="paint39_linear" x1="581.493" y1="156.744" x2="582.104" y2="173.598" gradientUnits="userSpaceOnUse">
<stop stop-color="#010101" stop-opacity="0"/>
<stop offset="0.95" stop-color="#010101"/>
</linearGradient>
<linearGradient id="paint40_linear" x1="581.575" y1="167.385" x2="581.678" y2="145.553" gradientUnits="userSpaceOnUse">
<stop stop-color="#010101" stop-opacity="0"/>
<stop offset="0.95" stop-color="#010101"/>
</linearGradient>
<clipPath id="clip0">
<rect width="1088.81" height="239.01" fill="white"/>
</clipPath>
</defs>
</svg>
