<svg width="2098" height="1940" viewBox="0 0 2098 1940" fill="none" xmlns="http://www.w3.org/2000/svg">
<g opacity="0.18" filter="url(#filter0_d)">
<path d="M1211 2C1189 14.26 1138.21 19.26 1121 38C1050.84 114.94 1145.7 524.05 1095 615C1056.19 684.5 678.17 961.45 670 1041C738 1041 1135 1041 1336 1041C1413 1041 1394 1041 1451 1041C1532 1041 2025 1041 2094 1041C2094 954 1706 781 1706 631C1706 481 1706 353 1706 221C1706 132 1706 93 1706 17" fill="#6DD5BE"/>
<path d="M1604.5 1932C1638.94 1919.73 892.953 1816.72 919.898 1797.97C1029.74 1720.95 881.227 1311.45 960.604 1220.41C1021.37 1150.84 1742.21 775.627 1755 696C1648.54 696 1732.71 229 1755 0C2209 286 465.241 942 376 942C249.183 942 112.029 794 4 794C4 881.084 4 1054.25 4 1204.39C4 1354.54 4 1482.66 4 1614.79C4 1703.87 1409 1334.93 1409 1411" fill="#6DD5BE"/>
</g>
<defs>
<filter id="filter0_d" x="0" y="0" width="2098" height="1940" filterUnits="userSpaceOnUse" color-interpolation-filters="sRGB">
<feFlood flood-opacity="0" result="BackgroundImageFix"/>
<feColorMatrix in="SourceAlpha" type="matrix" values="0 0 0 0 0 0 0 0 0 0 0 0 0 0 0 0 0 0 127 0"/>
<feOffset dy="4"/>
<feGaussianBlur stdDeviation="2"/>
<feColorMatrix type="matrix" values="0 0 0 0 0 0 0 0 0 0 0 0 0 0 0 0 0 0 0.25 0"/>
<feBlend mode="normal" in2="BackgroundImageFix" result="effect1_dropShadow"/>
<feBlend mode="normal" in="SourceGraphic" in2="effect1_dropShadow" result="shape"/>
</filter>
</defs>
</svg>
